<svg xmlns="http://www.w3.org/2000/svg" width="21.186" height="21.186" viewBox="0 0 21.186 21.186">
  <g id="Group_25" data-name="Group 25" transform="translate(-611.782 -98.907)">
    <path id="Path_2" data-name="Path 2" d="M20.544,15.121H16.75V11.327a.815.815,0,0,0-1.63,0v3.794H11.327a.78.78,0,0,0-.815.815.789.789,0,0,0,.815.815h3.794v3.794a.789.789,0,0,0,.815.815.811.811,0,0,0,.815-.815V16.75h3.794a.815.815,0,1,0,0-1.63Z" transform="translate(606.439 93.564)" fill="#099" stroke="#099" stroke-width="1"/>
    <path id="Path_3" data-name="Path 3" d="M13.968,4.8A9.163,9.163,0,1,1,7.485,7.485,9.106,9.106,0,0,1,13.968,4.8m0-1.426A10.593,10.593,0,1,0,24.561,13.968,10.591,10.591,0,0,0,13.968,3.375Z" transform="translate(608.407 95.532)" fill="#099"/>
  </g>
</svg>
