<svg width="21" height="21" viewBox="0 0 21 21" fill="none" xmlns="http://www.w3.org/2000/svg">
<g clip-path="url(#clip0_534_2275)">
<path d="M15.0678 9.69219H11.3071V5.9315C11.3071 5.71725 11.222 5.51177 11.0705 5.36027C10.919 5.20877 10.7135 5.12366 10.4993 5.12366C10.285 5.12366 10.0795 5.20877 9.92802 5.36027C9.77652 5.51177 9.69141 5.71725 9.69141 5.9315V9.69219H5.93171C5.82431 9.68725 5.71706 9.70477 5.61681 9.74362C5.51656 9.78247 5.42552 9.8418 5.3495 9.91783C5.27347 9.99385 5.21414 10.0849 5.17529 10.1851C5.13644 10.2854 5.11893 10.3926 5.12386 10.5C5.12027 10.6071 5.13871 10.7137 5.17804 10.8134C5.21737 10.913 5.27674 11.0035 5.35249 11.0793C5.42823 11.155 5.51873 11.2144 5.61836 11.2537C5.718 11.293 5.82465 11.3115 5.93171 11.3079H9.6924V15.0686C9.68881 15.1756 9.70725 15.2823 9.74658 15.3819C9.7859 15.4816 9.84528 15.5721 9.92102 15.6478C9.99677 15.7235 10.0873 15.7829 10.1869 15.8222C10.2865 15.8616 10.3932 15.88 10.5002 15.8764C10.6065 15.8769 10.7118 15.8564 10.81 15.816C10.9083 15.7756 10.9975 15.7161 11.0726 15.641C11.1478 15.5659 11.2073 15.4766 11.2477 15.3783C11.2881 15.2801 11.3086 15.1748 11.3081 15.0686V11.3069H15.0688C15.1749 11.3069 15.2799 11.286 15.3779 11.2454C15.4759 11.2048 15.565 11.1453 15.64 11.0703C15.715 10.9953 15.7745 10.9062 15.8151 10.8082C15.8557 10.7102 15.8766 10.6051 15.8766 10.499C15.8766 10.393 15.8557 10.2879 15.8151 10.1899C15.7745 10.0919 15.715 10.0028 15.64 9.92781C15.565 9.8528 15.4759 9.79329 15.3779 9.7527C15.2799 9.7121 15.1749 9.6912 15.0688 9.6912L15.0678 9.69219Z" fill="#B5B5B5" stroke="#B5B5B5"/>
<path d="M10.5 1.4125C12.6011 1.41309 14.637 2.14213 16.2609 3.47542C17.8848 4.80871 18.9962 6.66378 19.4058 8.72459C19.8154 10.7854 19.4978 12.9245 18.5071 14.7774C17.5165 16.6303 15.914 18.0824 13.9728 18.8864C12.0316 19.6904 9.8717 19.7964 7.86105 19.1866C5.8504 18.5767 4.1134 17.2885 2.94596 15.5416C1.77852 13.7947 1.25286 11.697 1.45853 9.60599C1.66421 7.51496 2.58849 5.55992 4.07392 4.07393C4.91579 3.22736 5.91725 2.55622 7.02031 2.09938C8.12336 1.64253 9.30609 1.40907 10.5 1.4125ZM10.5 -0.000976562C8.42334 -0.000976553 6.39331 0.614813 4.66662 1.76852C2.93993 2.92223 1.59411 4.56205 0.799364 6.48062C0.00461532 8.39919 -0.203378 10.5103 0.201687 12.5471C0.606751 14.5839 1.60668 16.4548 3.07503 17.9233C4.54338 19.3918 6.41421 20.3919 8.45095 20.7971C10.4877 21.2024 12.5989 20.9946 14.5175 20.2C16.4361 19.4055 18.0761 18.0598 19.23 16.3332C20.3838 14.6066 20.9998 12.5767 21 10.5C21.0003 9.12106 20.7289 7.75557 20.2013 6.48153C19.6737 5.20749 18.9003 4.04988 17.9252 3.07481C16.9501 2.09975 15.7925 1.32633 14.5185 0.798749C13.2444 0.271167 11.879 -0.000245839 10.5 1.45863e-05V-0.000976562Z" fill="#B5B5B5"/>
</g>
<defs>
<clipPath id="clip0_534_2275">
<rect width="21" height="21" fill="white"/>
</clipPath>
</defs>
</svg>
