<svg width="20" height="20" viewBox="0 0 20 20" fill="none" xmlns="http://www.w3.org/2000/svg">
<path d="M9.49302 13.308H11.401V15.216H9.49302V13.308ZM9.49302 5.677H11.401V11.4H9.49302V5.677ZM10.447 0.908001C8.56039 0.908001 6.71612 1.46745 5.14744 2.51561C3.57876 3.56377 2.35612 5.05356 1.63414 6.79658C0.912153 8.53961 0.723249 10.4576 1.09131 12.308C1.45938 14.1584 2.36788 15.858 3.70193 17.1921C5.03599 18.5261 6.73567 19.4346 8.58606 19.8027C10.4364 20.1708 12.3544 19.9819 14.0974 19.2599C15.8405 18.5379 17.3303 17.3153 18.3784 15.7466C19.4266 14.1779 19.986 12.3336 19.986 10.447C19.9836 7.91783 18.9779 5.49293 17.1895 3.70454C15.4011 1.91615 12.9762 0.910384 10.447 0.908001ZM10.447 18.078C8.93775 18.078 7.46238 17.6305 6.20747 16.7919C4.95256 15.9534 3.97447 14.7616 3.3969 13.3673C2.81933 11.9729 2.66821 10.4385 2.96265 8.95827C3.2571 7.478 3.98388 6.11828 5.05109 5.05107C6.11831 3.98385 7.47802 3.25707 8.95829 2.96263C10.4386 2.66818 11.9729 2.8193 13.3673 3.39688C14.7617 3.97445 15.9535 4.95253 16.792 6.20744C17.6305 7.46236 18.078 8.93773 18.078 10.447C18.078 12.4709 17.274 14.4118 15.843 15.8429C14.4119 17.274 12.4709 18.078 10.447 18.078Z" fill="black"/>
</svg>
