<svg width="32" height="31" viewBox="0 0 32 31" fill="none" xmlns="http://www.w3.org/2000/svg">
<circle cx="16.1857" cy="15.1955" r="15.1955" fill="#4A7182"/>
<path d="M18.5468 5.51562C14.7756 5.51562 11.7187 8.57256 11.7187 12.3438C11.7187 13.9228 12.2555 15.376 13.154 16.5327L7.45787 22.2288C7.42443 22.2626 7.07442 22.7426 7.52057 23.2969C8.04442 23.8207 8.59215 23.5023 8.66177 23.4327L14.3579 17.7366C15.5146 18.6351 16.9678 19.1719 18.5468 19.1719C22.318 19.1719 25.375 16.1149 25.375 12.3438C25.375 8.57256 22.318 5.51562 18.5468 5.51562ZM22.1675 15.9645C21.2017 16.9325 19.9147 17.4648 18.5468 17.4648C17.179 17.4648 15.8919 16.9325 14.9261 15.9645C13.9581 14.9986 13.4257 13.7116 13.4257 12.3438C13.4257 10.9759 13.9581 9.68887 14.9261 8.72305C15.8919 7.75498 17.179 7.22266 18.5468 7.22266C19.9147 7.22266 21.2017 7.75498 22.1675 8.72305C23.1356 9.68887 23.6679 10.9759 23.6679 12.3438C23.6679 13.7116 23.1356 14.9986 22.1675 15.9645Z" fill="white"/>
<path d="M21.7716 11.2244L19.7453 13.5301L17.4396 11.5038L15.4133 13.8095" stroke="white" stroke-width="1.7" stroke-linecap="round"/>
</svg>
