<svg width="184" height="191" viewBox="0 0 184 191" fill="none" xmlns="http://www.w3.org/2000/svg">
<g clip-path="url(#clip0_15827_1221)">
<path d="M15.9541 85.3085C14.0626 61.9164 30.5821 37.5786 52.9023 30.4538C35.2479 45.7122 23.5203 63.1775 15.9541 85.3085Z" fill="#292929"/>
<path d="M52.7114 159.394C31.337 152.71 15.1958 129.886 16.3308 107.503C24.4013 128.31 36.0659 144.514 52.7114 159.394Z" fill="#292929"/>
<path d="M162.606 105.485C162.102 150.819 109.58 184.362 68.1553 165.951C78.6849 167.654 89.2144 167.591 99.3027 165.762C130.198 160.151 154.536 136.191 162.606 105.485Z" fill="#292929"/>
<path d="M68.2231 23.9595C111.035 4.66578 165.133 41.2356 163.116 88.1458C160.846 77.364 156.873 67.3389 151.073 58.5117C133.734 31.2104 99.938 17.9066 68.2862 23.9595H68.2231Z" fill="#292929"/>
<path d="M162.61 105.485C230.012 90.92 117.339 92.5593 88.651 92.5593C74.4014 92.5593 62.7999 81.084 62.4847 66.8344C62.1064 49.5583 61.4758 17.2129 60.404 -0.0631714C59.3321 17.4651 58.6385 50.1257 58.3233 67.7171C58.0711 81.7145 46.8479 93.0007 32.9136 93.379C21.5013 93.6943 -11.8529 93.9465 15.5114 85.3084C-23.3283 95.2075 21.5013 95.838 32.9136 96.1533C46.8479 96.5946 58.0711 107.881 58.3233 121.815C58.7016 139.407 59.3321 172.824 60.404 190.415C61.4128 173.139 62.1064 139.974 62.4847 122.698C62.7999 108.448 74.4014 96.9729 88.651 96.9729C117.276 96.9729 223.77 90.7939 162.61 105.359V105.485Z" fill="#292929"/>
</g>
<defs>
<clipPath id="clip0_15827_1221">
<rect width="183.795" height="190.541" fill="white"/>
</clipPath>
</defs>
</svg>
