<svg width="464" height="87" viewBox="0 0 464 87" fill="none" xmlns="http://www.w3.org/2000/svg">
<path d="M0 68.7302L29.6411 3.89039H36.4029L66.044 68.7302H58.819L31.5862 7.87341H34.3651L7.13238 68.7302H0ZM11.6712 51.4087L13.709 45.851H51.4087L53.4465 51.4087H11.6712Z" fill="black"/>
<path d="M75.3806 68.7302V0H81.9572V68.7302H75.3806Z" fill="black"/>
<path d="M125.359 69.1933C121.159 69.1933 117.362 68.2362 113.965 66.3218C110.569 64.3458 107.852 61.5361 105.814 57.8927C103.838 54.1875 102.85 49.6796 102.85 44.3689C102.85 39.0583 103.838 34.5812 105.814 30.9378C107.79 27.2327 110.476 24.423 113.873 22.5087C117.269 20.5944 121.098 19.6372 125.359 19.6372C129.99 19.6372 134.127 20.687 137.771 22.7866C141.476 24.8244 144.378 27.7267 146.478 31.4936C148.577 35.1987 149.627 39.4905 149.627 44.3689C149.627 49.3091 148.577 53.6318 146.478 57.3369C144.378 61.042 141.476 63.9444 137.771 66.044C134.127 68.1435 129.99 69.1933 125.359 69.1933ZM100.256 86.7001V20.1003H106.555V34.7356L105.907 44.4616L106.833 54.2802V86.7001H100.256ZM124.895 63.3577C128.354 63.3577 131.441 62.5858 134.158 61.042C136.875 59.4365 139.037 57.2134 140.642 54.3728C142.248 51.4704 143.051 48.1358 143.051 44.3689C143.051 40.6021 142.248 37.2983 140.642 34.4577C139.037 31.6171 136.875 29.394 134.158 27.7885C131.441 26.1829 128.354 25.3801 124.895 25.3801C121.437 25.3801 118.319 26.1829 115.54 27.7885C112.823 29.394 110.662 31.6171 109.056 34.4577C107.512 37.2983 106.74 40.6021 106.74 44.3689C106.74 48.1358 107.512 51.4704 109.056 54.3728C110.662 57.2134 112.823 59.4365 115.54 61.042C118.319 62.5858 121.437 63.3577 124.895 63.3577Z" fill="black"/>
<path d="M187.858 19.6372C191.81 19.6372 195.268 20.4091 198.232 21.9529C201.258 23.435 203.605 25.7198 205.272 28.8074C207.001 31.895 207.866 35.7854 207.866 40.4786V68.7302H201.289V41.127C201.289 36.0015 199.992 32.142 197.399 29.5484C194.867 26.8931 191.285 25.5654 186.654 25.5654C183.196 25.5654 180.17 26.2756 177.576 27.6959C175.045 29.0544 173.068 31.0613 171.648 33.7167C170.29 36.3103 169.61 39.4596 169.61 43.1648V68.7302H163.034V0H169.61V33.4388L168.314 30.9378C169.857 27.418 172.327 24.67 175.724 22.6939C179.12 20.6561 183.165 19.6372 187.858 19.6372Z" fill="black"/>
<path d="M256.105 68.7302V57.9853L255.827 56.2254V38.2555C255.827 34.1181 254.654 30.9378 252.307 28.7148C250.022 26.4917 246.595 25.3801 242.025 25.3801C238.876 25.3801 235.881 25.905 233.04 26.9548C230.2 28.0046 227.791 29.394 225.815 31.1231L222.851 26.2138C225.321 24.1142 228.286 22.5087 231.744 21.3971C235.202 20.2238 238.845 19.6372 242.674 19.6372C248.973 19.6372 253.82 21.2119 257.216 24.3612C260.675 27.4488 262.404 32.1729 262.404 38.5334V68.7302H256.105ZM239.339 69.1933C235.696 69.1933 232.516 68.6067 229.798 67.4334C227.143 66.1983 225.105 64.531 223.685 62.4315C222.265 60.2701 221.555 57.8 221.555 55.0212C221.555 52.4894 222.141 50.2045 223.314 48.1667C224.55 46.0671 226.526 44.3998 229.243 43.1648C232.022 41.868 235.727 41.2196 240.358 41.2196H257.124V46.1289H240.543C235.85 46.1289 232.577 46.9625 230.725 48.6298C228.934 50.2972 228.038 52.3659 228.038 54.8359C228.038 57.6148 229.119 59.8379 231.281 61.5052C233.442 63.1725 236.468 64.0061 240.358 64.0061C244.063 64.0061 247.243 63.1725 249.899 61.5052C252.616 59.7761 254.592 57.306 255.827 54.0949L257.309 58.6337C256.074 61.8448 253.913 64.4075 250.825 66.3218C247.799 68.2362 243.971 69.1933 239.339 69.1933Z" fill="black"/>
<path d="M310.093 69.2859C305.153 69.2859 300.583 68.4832 296.384 66.8776C292.246 65.2103 288.634 62.8946 285.546 59.9305C282.52 56.9664 280.143 53.4774 278.414 49.4635C276.746 45.4496 275.913 41.0652 275.913 36.3103C275.913 31.5554 276.746 27.171 278.414 23.1571C280.143 19.1432 282.551 15.6542 285.639 12.6901C288.726 9.72597 292.339 7.44114 296.476 5.83558C300.675 4.16827 305.245 3.33462 310.185 3.33462C315.125 3.33462 319.633 4.10652 323.709 5.65032C327.846 7.19413 331.366 9.54071 334.269 12.6901L330.008 17.0436C327.291 14.3265 324.296 12.3813 321.023 11.208C317.75 10.0347 314.23 9.44808 310.463 9.44808C306.449 9.44808 302.744 10.1274 299.348 11.4859C296.013 12.7827 293.08 14.6661 290.548 17.1362C288.078 19.5446 286.133 22.3852 284.713 25.658C283.354 28.8691 282.675 32.4199 282.675 36.3103C282.675 40.1389 283.354 43.6897 284.713 46.9625C286.133 50.2354 288.078 53.1069 290.548 55.577C293.08 57.9853 296.013 59.8687 299.348 61.2273C302.744 62.5241 306.418 63.1725 310.371 63.1725C314.076 63.1725 317.565 62.6167 320.838 61.5052C324.172 60.3936 327.229 58.5102 330.008 55.8549L333.898 61.042C330.811 63.7591 327.198 65.8278 323.061 67.2481C318.923 68.6067 314.601 69.2859 310.093 69.2859ZM327.322 60.2084V36.3103H333.898V61.042L327.322 60.2084Z" fill="black"/>
<path d="M372.565 69.1933C367.501 69.1933 363.055 68.1435 359.226 66.044C355.398 63.8826 352.403 60.9494 350.241 57.2443C348.08 53.4774 346.999 49.1856 346.999 44.3689C346.999 39.5523 348.018 35.2914 350.056 31.5862C352.156 27.8811 354.996 24.9788 358.578 22.8792C362.221 20.7179 366.297 19.6372 370.805 19.6372C375.374 19.6372 379.419 20.687 382.939 22.7866C386.521 24.8244 389.33 27.7267 391.368 31.4936C393.406 35.1987 394.425 39.4905 394.425 44.3689C394.425 44.6777 394.394 45.0173 394.332 45.3879C394.332 45.6966 394.332 46.0363 394.332 46.4068H352.001V41.4975H390.812L388.219 43.4427C388.219 39.9228 387.447 36.8043 385.903 34.0872C384.421 31.3084 382.383 29.147 379.79 27.6032C377.196 26.0594 374.201 25.2875 370.805 25.2875C367.47 25.2875 364.475 26.0594 361.82 27.6032C359.164 29.147 357.096 31.3084 355.614 34.0872C354.132 36.8661 353.391 40.0463 353.391 43.6279V44.6468C353.391 48.352 354.193 51.6248 355.799 54.4654C357.466 57.2443 359.751 59.4365 362.653 61.042C365.618 62.5858 368.983 63.3577 372.75 63.3577C375.714 63.3577 378.462 62.8329 380.994 61.7831C383.587 60.7333 385.81 59.1277 387.663 56.9664L391.368 61.2273C389.207 63.8209 386.49 65.797 383.217 67.1555C380.006 68.514 376.455 69.1933 372.565 69.1933Z" fill="black"/>
<g clip-path="url(#clip0_15827_1209)">
<path d="M409.151 41.5956C408.533 33.9553 413.931 26.0061 421.225 23.679C415.456 28.6627 411.623 34.3672 409.151 41.5956Z" fill="black"/>
<path d="M421.162 65.7934C414.177 63.6105 408.902 56.1555 409.273 48.8447C411.911 55.6406 415.723 60.9333 421.162 65.7934Z" fill="black"/>
<path d="M457.075 48.1857C456.91 62.9926 439.746 73.9486 426.209 67.9352C429.65 68.4912 433.091 68.4706 436.388 67.8734C446.484 66.0405 454.438 58.2149 457.075 48.1857Z" fill="black"/>
<path d="M426.232 21.5578C440.223 15.2561 457.902 27.2005 457.243 42.5223C456.501 39.0008 455.203 35.7264 453.307 32.8432C447.641 23.9261 436.597 19.5808 426.253 21.5578H426.232Z" fill="black"/>
<path d="M457.078 48.1857C479.104 43.4285 442.283 43.9639 432.908 43.9639C428.251 43.9639 424.46 40.2159 424.357 35.5616C424.233 29.9189 424.027 19.3543 423.677 13.7116C423.327 19.4367 423.1 30.1043 422.997 35.85C422.914 40.4218 419.247 44.1081 414.693 44.2317C410.964 44.3346 400.064 44.417 409.006 41.5956C396.313 44.8289 410.964 45.0348 414.693 45.1378C419.247 45.2819 422.914 48.9682 422.997 53.5195C423.121 59.2652 423.327 70.1799 423.677 75.9256C424.007 70.2829 424.233 59.4505 424.357 53.8078C424.46 49.1536 428.251 45.4055 432.908 45.4055C442.263 45.4055 477.064 43.3873 457.078 48.1445V48.1857Z" fill="black"/>
</g>
<rect x="317.956" y="36.166" width="16.076" height="6.59344" fill="black"/>
<defs>
<clipPath id="clip0_15827_1209">
<rect width="60.0636" height="62.2346" fill="white" transform="translate(403.937 13.7321)"/>
</clipPath>
</defs>
</svg>
