<svg width="141" height="17" viewBox="0 0 141 17" fill="none" xmlns="http://www.w3.org/2000/svg">
<rect x="0.5" y="0.889099" width="15" height="15" rx="1.5" fill="#009999" stroke="#009999"/>
<path d="M3.91308 7.42426H3.91326C3.99256 7.42435 4.07081 7.44241 4.14213 7.47708C4.21341 7.51172 4.27591 7.56205 4.32497 7.6243L3.91308 7.42426ZM3.91308 7.42426H3.09394C2.89031 7.42426 2.7766 7.65885 2.90232 7.8183L2.90237 7.81836L6.11214 11.8848L6.11218 11.8848C6.32247 12.151 6.72568 12.1502 6.93667 11.8853L6.93708 11.8848L12.6597 4.63308C12.6598 4.63288 12.66 4.63268 12.6602 4.63247C12.7884 4.47205 12.6699 4.2391 12.4689 4.2391H11.6498C11.4894 4.2391 11.3367 4.3126 11.2376 4.43954C11.2375 4.43965 11.2374 4.43976 11.2373 4.43987L6.52403 10.4107M3.91308 7.42426L6.52403 10.4107M6.52403 10.4107L4.32506 7.62441L6.52403 10.4107Z" fill="white" stroke="white" stroke-width="0.3"/>
<path d="M27.684 12.9611C27.06 12.9611 26.46 12.8611 25.884 12.6611C25.316 12.4531 24.876 12.1891 24.564 11.8691L24.912 11.1851C25.208 11.4731 25.604 11.7171 26.1 11.9171C26.604 12.1091 27.132 12.2051 27.684 12.2051C28.212 12.2051 28.64 12.1411 28.968 12.0131C29.304 11.8771 29.548 11.6971 29.7 11.4731C29.86 11.2491 29.94 11.0011 29.94 10.7291C29.94 10.4011 29.844 10.1371 29.652 9.9371C29.468 9.7371 29.224 9.5811 28.92 9.4691C28.616 9.3491 28.28 9.2451 27.912 9.1571C27.544 9.0691 27.176 8.9771 26.808 8.8811C26.44 8.7771 26.1 8.6411 25.788 8.4731C25.484 8.3051 25.236 8.0851 25.044 7.8131C24.86 7.5331 24.768 7.1691 24.768 6.7211C24.768 6.3051 24.876 5.9251 25.092 5.5811C25.316 5.2291 25.656 4.9491 26.112 4.7411C26.568 4.5251 27.152 4.4171 27.864 4.4171C28.336 4.4171 28.804 4.4851 29.268 4.6211C29.732 4.7491 30.132 4.9291 30.468 5.1611L30.168 5.8691C29.808 5.6291 29.424 5.4531 29.016 5.3411C28.616 5.2291 28.228 5.1731 27.852 5.1731C27.348 5.1731 26.932 5.2411 26.604 5.3771C26.276 5.5131 26.032 5.6971 25.872 5.9291C25.72 6.1531 25.644 6.4091 25.644 6.6971C25.644 7.0251 25.736 7.2891 25.92 7.4891C26.112 7.6891 26.36 7.8451 26.664 7.9571C26.976 8.0691 27.316 8.1691 27.684 8.2571C28.052 8.3451 28.416 8.4411 28.776 8.5451C29.144 8.6491 29.48 8.7851 29.784 8.9531C30.096 9.1131 30.344 9.3291 30.528 9.6011C30.72 9.8731 30.816 10.2291 30.816 10.6691C30.816 11.0771 30.704 11.4571 30.48 11.8091C30.256 12.1531 29.912 12.4331 29.448 12.6491C28.992 12.8571 28.404 12.9611 27.684 12.9611ZM35.7868 6.5291C36.2988 6.5291 36.7468 6.6291 37.1308 6.8291C37.5228 7.0211 37.8268 7.3171 38.0428 7.7171C38.2668 8.1171 38.3788 8.6211 38.3788 9.2291V12.8891H37.5268V9.3131C37.5268 8.6491 37.3588 8.1491 37.0228 7.8131C36.6948 7.4691 36.2308 7.2971 35.6308 7.2971C35.1828 7.2971 34.7908 7.3891 34.4548 7.5731C34.1268 7.7491 33.8708 8.0091 33.6868 8.3531C33.5108 8.6891 33.4228 9.0971 33.4228 9.5771V12.8891H32.5708V3.9851H33.4228V8.3171L33.2548 7.9931C33.4548 7.5371 33.7748 7.1811 34.2148 6.9251C34.6548 6.6611 35.1788 6.5291 35.7868 6.5291ZM43.2482 12.9491C42.6402 12.9491 42.0922 12.8131 41.6042 12.5411C41.1242 12.2611 40.7442 11.8811 40.4642 11.4011C40.1842 10.9131 40.0442 10.3571 40.0442 9.7331C40.0442 9.1011 40.1842 8.5451 40.4642 8.0651C40.7442 7.5851 41.1242 7.2091 41.6042 6.9371C42.0842 6.6651 42.6322 6.5291 43.2482 6.5291C43.8722 6.5291 44.4242 6.6651 44.9042 6.9371C45.3922 7.2091 45.7722 7.5851 46.0442 8.0651C46.3242 8.5451 46.4642 9.1011 46.4642 9.7331C46.4642 10.3571 46.3242 10.9131 46.0442 11.4011C45.7722 11.8811 45.3922 12.2611 44.9042 12.5411C44.4162 12.8131 43.8642 12.9491 43.2482 12.9491ZM43.2482 12.1931C43.7042 12.1931 44.1082 12.0931 44.4602 11.8931C44.8122 11.6851 45.0882 11.3971 45.2882 11.0291C45.4962 10.6531 45.6002 10.2211 45.6002 9.7331C45.6002 9.2371 45.4962 8.8051 45.2882 8.4371C45.0882 8.0691 44.8122 7.7851 44.4602 7.5851C44.1082 7.3771 43.7082 7.2731 43.2602 7.2731C42.8122 7.2731 42.4122 7.3771 42.0602 7.5851C41.7082 7.7851 41.4282 8.0691 41.2202 8.4371C41.0122 8.8051 40.9082 9.2371 40.9082 9.7331C40.9082 10.2211 41.0122 10.6531 41.2202 11.0291C41.4282 11.3971 41.7082 11.6851 42.0602 11.8931C42.4122 12.0931 42.8082 12.1931 43.2482 12.1931ZM49.3118 12.8891L46.9358 6.5891H47.7518L49.9118 12.4331H49.5398L51.7598 6.5891H52.4918L54.6878 12.4331H54.3158L56.5118 6.5891H57.2918L54.9038 12.8891H54.0998L51.9878 7.3931H52.2398L50.1158 12.8891H49.3118ZM64.2833 12.9491C63.6753 12.9491 63.1273 12.8131 62.6393 12.5411C62.1593 12.2611 61.7793 11.8811 61.4993 11.4011C61.2193 10.9131 61.0793 10.3571 61.0793 9.7331C61.0793 9.1011 61.2193 8.5451 61.4993 8.0651C61.7793 7.5851 62.1593 7.2091 62.6393 6.9371C63.1193 6.6651 63.6673 6.5291 64.2833 6.5291C64.9073 6.5291 65.4593 6.6651 65.9393 6.9371C66.4273 7.2091 66.8073 7.5851 67.0793 8.0651C67.3593 8.5451 67.4993 9.1011 67.4993 9.7331C67.4993 10.3571 67.3593 10.9131 67.0793 11.4011C66.8073 11.8811 66.4273 12.2611 65.9393 12.5411C65.4513 12.8131 64.8993 12.9491 64.2833 12.9491ZM64.2833 12.1931C64.7393 12.1931 65.1433 12.0931 65.4953 11.8931C65.8473 11.6851 66.1233 11.3971 66.3233 11.0291C66.5313 10.6531 66.6353 10.2211 66.6353 9.7331C66.6353 9.2371 66.5313 8.8051 66.3233 8.4371C66.1233 8.0691 65.8473 7.7851 65.4953 7.5851C65.1433 7.3771 64.7433 7.2731 64.2953 7.2731C63.8473 7.2731 63.4473 7.3771 63.0953 7.5851C62.7433 7.7851 62.4633 8.0691 62.2553 8.4371C62.0473 8.8051 61.9433 9.2371 61.9433 9.7331C61.9433 10.2211 62.0473 10.6531 62.2553 11.0291C62.4633 11.3971 62.7433 11.6851 63.0953 11.8931C63.4473 12.0931 63.8433 12.1931 64.2833 12.1931ZM72.4908 12.9491C71.9468 12.9491 71.4548 12.8251 71.0148 12.5771C70.5748 12.3211 70.2228 11.9571 69.9588 11.4851C69.7028 11.0051 69.5748 10.4211 69.5748 9.7331C69.5748 9.0451 69.7028 8.4651 69.9588 7.9931C70.2148 7.5131 70.5628 7.1491 71.0028 6.9011C71.4428 6.6531 71.9388 6.5291 72.4908 6.5291C73.0908 6.5291 73.6268 6.6651 74.0988 6.9371C74.5788 7.2011 74.9548 7.5771 75.2268 8.0651C75.4988 8.5451 75.6348 9.1011 75.6348 9.7331C75.6348 10.3731 75.4988 10.9331 75.2268 11.4131C74.9548 11.8931 74.5788 12.2691 74.0988 12.5411C73.6268 12.8131 73.0908 12.9491 72.4908 12.9491ZM69.2388 15.2171V6.5891H70.0548V8.4851L69.9708 9.7451L70.0908 11.0171V15.2171H69.2388ZM72.4308 12.1931C72.8788 12.1931 73.2788 12.0931 73.6308 11.8931C73.9828 11.6851 74.2628 11.3971 74.4708 11.0291C74.6788 10.6531 74.7828 10.2211 74.7828 9.7331C74.7828 9.2451 74.6788 8.8171 74.4708 8.4491C74.2628 8.0811 73.9828 7.7931 73.6308 7.5851C73.2788 7.3771 72.8788 7.2731 72.4308 7.2731C71.9828 7.2731 71.5788 7.3771 71.2188 7.5851C70.8668 7.7931 70.5868 8.0811 70.3788 8.4491C70.1788 8.8171 70.0788 9.2451 70.0788 9.7331C70.0788 10.2211 70.1788 10.6531 70.3788 11.0291C70.5868 11.3971 70.8668 11.6851 71.2188 11.8931C71.5788 12.0931 71.9828 12.1931 72.4308 12.1931ZM79.3636 12.9491C78.7716 12.9491 78.3156 12.7891 77.9956 12.4691C77.6756 12.1491 77.5156 11.6971 77.5156 11.1131V5.1971H78.3676V11.0651C78.3676 11.4331 78.4596 11.7171 78.6436 11.9171C78.8356 12.1171 79.1076 12.2171 79.4596 12.2171C79.8356 12.2171 80.1476 12.1091 80.3956 11.8931L80.6956 12.5051C80.5276 12.6571 80.3236 12.7691 80.0836 12.8411C79.8516 12.9131 79.6116 12.9491 79.3636 12.9491ZM76.3876 7.2971V6.5891H80.2876V7.2971H76.3876ZM82.2466 12.8891V6.5891H83.0986V12.8891H82.2466ZM82.6786 5.1971C82.5026 5.1971 82.3546 5.1371 82.2346 5.0171C82.1146 4.8971 82.0546 4.7531 82.0546 4.5851C82.0546 4.4171 82.1146 4.2771 82.2346 4.1651C82.3546 4.0451 82.5026 3.9851 82.6786 3.9851C82.8546 3.9851 83.0026 4.0411 83.1226 4.1531C83.2426 4.2651 83.3026 4.4051 83.3026 4.5731C83.3026 4.7491 83.2426 4.8971 83.1226 5.0171C83.0106 5.1371 82.8626 5.1971 82.6786 5.1971ZM88.0373 12.9491C87.4293 12.9491 86.8813 12.8131 86.3933 12.5411C85.9133 12.2611 85.5333 11.8811 85.2533 11.4011C84.9733 10.9131 84.8333 10.3571 84.8333 9.7331C84.8333 9.1011 84.9733 8.5451 85.2533 8.0651C85.5333 7.5851 85.9133 7.2091 86.3933 6.9371C86.8733 6.6651 87.4213 6.5291 88.0373 6.5291C88.6613 6.5291 89.2133 6.6651 89.6933 6.9371C90.1813 7.2091 90.5613 7.5851 90.8333 8.0651C91.1133 8.5451 91.2533 9.1011 91.2533 9.7331C91.2533 10.3571 91.1133 10.9131 90.8333 11.4011C90.5613 11.8811 90.1813 12.2611 89.6933 12.5411C89.2053 12.8131 88.6533 12.9491 88.0373 12.9491ZM88.0373 12.1931C88.4933 12.1931 88.8973 12.0931 89.2493 11.8931C89.6013 11.6851 89.8773 11.3971 90.0773 11.0291C90.2853 10.6531 90.3893 10.2211 90.3893 9.7331C90.3893 9.2371 90.2853 8.8051 90.0773 8.4371C89.8773 8.0691 89.6013 7.7851 89.2493 7.5851C88.8973 7.3771 88.4973 7.2731 88.0493 7.2731C87.6013 7.2731 87.2013 7.3771 86.8493 7.5851C86.4973 7.7851 86.2173 8.0691 86.0093 8.4371C85.8013 8.8051 85.6973 9.2371 85.6973 9.7331C85.6973 10.2211 85.8013 10.6531 86.0093 11.0291C86.2173 11.3971 86.4973 11.6851 86.8493 11.8931C87.2013 12.0931 87.5973 12.1931 88.0373 12.1931ZM96.2087 6.5291C96.7207 6.5291 97.1687 6.6291 97.5527 6.8291C97.9447 7.0211 98.2487 7.3171 98.4647 7.7171C98.6887 8.1171 98.8007 8.6211 98.8007 9.2291V12.8891H97.9487V9.3131C97.9487 8.6491 97.7807 8.1491 97.4447 7.8131C97.1167 7.4691 96.6527 7.2971 96.0527 7.2971C95.6047 7.2971 95.2127 7.3891 94.8767 7.5731C94.5487 7.7491 94.2927 8.0091 94.1087 8.3531C93.9327 8.6891 93.8447 9.0971 93.8447 9.5771V12.8891H92.9927V6.5891H93.8087V8.3171L93.6767 7.9931C93.8767 7.5371 94.1967 7.1811 94.6367 6.9251C95.0767 6.6611 95.6007 6.5291 96.2087 6.5291ZM105.05 12.8891V11.4971L105.014 11.2691V8.9411C105.014 8.4051 104.862 7.9931 104.558 7.7051C104.262 7.4171 103.818 7.2731 103.226 7.2731C102.818 7.2731 102.43 7.3411 102.062 7.4771C101.694 7.6131 101.382 7.7931 101.126 8.0171L100.742 7.3811C101.062 7.1091 101.446 6.9011 101.894 6.7571C102.342 6.6051 102.814 6.5291 103.31 6.5291C104.126 6.5291 104.754 6.7331 105.194 7.1411C105.642 7.5411 105.866 8.1531 105.866 8.9771V12.8891H105.05ZM102.878 12.9491C102.406 12.9491 101.994 12.8731 101.642 12.7211C101.298 12.5611 101.034 12.3451 100.85 12.0731C100.666 11.7931 100.574 11.4731 100.574 11.1131C100.574 10.7851 100.65 10.4891 100.802 10.2251C100.962 9.9531 101.218 9.7371 101.57 9.5771C101.93 9.4091 102.41 9.3251 103.01 9.3251H105.182V9.9611H103.034C102.426 9.9611 102.002 10.0691 101.762 10.2851C101.53 10.5011 101.414 10.7691 101.414 11.0891C101.414 11.4491 101.554 11.7371 101.834 11.9531C102.114 12.1691 102.506 12.2771 103.01 12.2771C103.49 12.2771 103.902 12.1691 104.246 11.9531C104.598 11.7291 104.854 11.4091 105.014 10.9931L105.206 11.5811C105.046 11.9971 104.766 12.3291 104.366 12.5771C103.974 12.8251 103.478 12.9491 102.878 12.9491ZM108.18 12.8891V3.9851H109.032V12.8891H108.18ZM117.051 12.9491C116.451 12.9491 115.911 12.8131 115.431 12.5411C114.959 12.2691 114.587 11.8931 114.315 11.4131C114.043 10.9251 113.907 10.3651 113.907 9.7331C113.907 9.0931 114.043 8.5331 114.315 8.0531C114.587 7.5731 114.959 7.2011 115.431 6.9371C115.911 6.6651 116.451 6.5291 117.051 6.5291C117.603 6.5291 118.095 6.6531 118.527 6.9011C118.967 7.1491 119.315 7.5131 119.571 7.9931C119.835 8.4651 119.967 9.0451 119.967 9.7331C119.967 10.4131 119.839 10.9931 119.583 11.4731C119.327 11.9531 118.979 12.3211 118.539 12.5771C118.107 12.8251 117.611 12.9491 117.051 12.9491ZM117.111 12.1931C117.559 12.1931 117.959 12.0931 118.311 11.8931C118.671 11.6851 118.951 11.3971 119.151 11.0291C119.359 10.6531 119.463 10.2211 119.463 9.7331C119.463 9.2371 119.359 8.8051 119.151 8.4371C118.951 8.0691 118.671 7.7851 118.311 7.5851C117.959 7.3771 117.559 7.2731 117.111 7.2731C116.671 7.2731 116.275 7.3771 115.923 7.5851C115.571 7.7851 115.291 8.0691 115.083 8.4371C114.875 8.8051 114.771 9.2371 114.771 9.7331C114.771 10.2211 114.875 10.6531 115.083 11.0291C115.291 11.3971 115.571 11.6851 115.923 11.8931C116.275 12.0931 116.671 12.1931 117.111 12.1931ZM119.487 12.8891V10.9931L119.571 9.7211L119.451 8.4491V3.9851H120.303V12.8891H119.487ZM126.624 12.8891V11.4971L126.588 11.2691V8.9411C126.588 8.4051 126.436 7.9931 126.132 7.7051C125.836 7.4171 125.392 7.2731 124.8 7.2731C124.392 7.2731 124.004 7.3411 123.636 7.4771C123.268 7.6131 122.956 7.7931 122.7 8.0171L122.316 7.3811C122.636 7.1091 123.02 6.9011 123.468 6.7571C123.916 6.6051 124.388 6.5291 124.884 6.5291C125.7 6.5291 126.328 6.7331 126.768 7.1411C127.216 7.5411 127.44 8.1531 127.44 8.9771V12.8891H126.624ZM124.452 12.9491C123.98 12.9491 123.568 12.8731 123.216 12.7211C122.872 12.5611 122.608 12.3451 122.424 12.0731C122.24 11.7931 122.148 11.4731 122.148 11.1131C122.148 10.7851 122.224 10.4891 122.376 10.2251C122.536 9.9531 122.792 9.7371 123.144 9.5771C123.504 9.4091 123.984 9.3251 124.584 9.3251H126.756V9.9611H124.608C124 9.9611 123.576 10.0691 123.336 10.2851C123.104 10.5011 122.988 10.7691 122.988 11.0891C122.988 11.4491 123.128 11.7371 123.408 11.9531C123.688 12.1691 124.08 12.2771 124.584 12.2771C125.064 12.2771 125.476 12.1691 125.82 11.9531C126.172 11.7291 126.428 11.4091 126.588 10.9931L126.78 11.5811C126.62 11.9971 126.34 12.3291 125.94 12.5771C125.548 12.8251 125.052 12.9491 124.452 12.9491ZM131.746 12.9491C131.154 12.9491 130.698 12.7891 130.378 12.4691C130.058 12.1491 129.898 11.6971 129.898 11.1131V5.1971H130.75V11.0651C130.75 11.4331 130.842 11.7171 131.026 11.9171C131.218 12.1171 131.49 12.2171 131.842 12.2171C132.218 12.2171 132.53 12.1091 132.778 11.8931L133.078 12.5051C132.91 12.6571 132.706 12.7691 132.466 12.8411C132.234 12.9131 131.994 12.9491 131.746 12.9491ZM128.77 7.2971V6.5891H132.67V7.2971H128.77ZM138.577 12.8891V11.4971L138.541 11.2691V8.9411C138.541 8.4051 138.389 7.9931 138.085 7.7051C137.789 7.4171 137.345 7.2731 136.753 7.2731C136.345 7.2731 135.957 7.3411 135.589 7.4771C135.221 7.6131 134.909 7.7931 134.653 8.0171L134.269 7.3811C134.589 7.1091 134.973 6.9011 135.421 6.7571C135.869 6.6051 136.341 6.5291 136.837 6.5291C137.653 6.5291 138.281 6.7331 138.721 7.1411C139.169 7.5411 139.393 8.1531 139.393 8.9771V12.8891H138.577ZM136.405 12.9491C135.933 12.9491 135.521 12.8731 135.169 12.7211C134.825 12.5611 134.561 12.3451 134.377 12.0731C134.193 11.7931 134.101 11.4731 134.101 11.1131C134.101 10.7851 134.177 10.4891 134.329 10.2251C134.489 9.9531 134.745 9.7371 135.097 9.5771C135.457 9.4091 135.937 9.3251 136.537 9.3251H138.709V9.9611H136.561C135.953 9.9611 135.529 10.0691 135.289 10.2851C135.057 10.5011 134.941 10.7691 134.941 11.0891C134.941 11.4491 135.081 11.7371 135.361 11.9531C135.641 12.1691 136.033 12.2771 136.537 12.2771C137.017 12.2771 137.429 12.1691 137.773 11.9531C138.125 11.7291 138.381 11.4091 138.541 10.9931L138.733 11.5811C138.573 11.9971 138.293 12.3291 137.893 12.5771C137.501 12.8251 137.005 12.9491 136.405 12.9491Z" fill="#292929"/>
</svg>
