<svg width="30" height="30" viewBox="0 0 30 30" fill="none" xmlns="http://www.w3.org/2000/svg">
<circle cx="15" cy="15" r="15" fill="#006666"/>
<path d="M18.375 9.3C18.1761 9.3 17.9853 9.22493 17.8447 9.09131C17.704 8.95769 17.625 8.77647 17.625 8.5875C17.625 8.39853 17.704 8.21731 17.8447 8.08369C17.9853 7.95007 18.1761 7.875 18.375 7.875H21.375C21.5739 7.875 21.7647 7.95007 21.9053 8.08369C22.046 8.21731 22.125 8.39853 22.125 8.5875V11.4375C22.125 11.6265 22.046 11.8077 21.9053 11.9413C21.7647 12.0749 21.5739 12.15 21.375 12.15C21.1761 12.15 20.9853 12.0749 20.8447 11.9413C20.704 11.8077 20.625 11.6265 20.625 11.4375V10.3075L16.2803 14.435C16.1396 14.5686 15.9489 14.6436 15.75 14.6436C15.5511 14.6436 15.3604 14.5686 15.2198 14.435L13.125 12.445L9.15525 16.2162C9.0138 16.346 8.82435 16.4178 8.6277 16.4162C8.43105 16.4146 8.24294 16.3397 8.10389 16.2076C7.96483 16.0755 7.88595 15.8968 7.88424 15.7099C7.88254 15.5231 7.95813 15.3431 8.09475 15.2088L12.5948 10.9338C12.7354 10.8002 12.9261 10.7252 13.125 10.7252C13.3239 10.7252 13.5146 10.8002 13.6553 10.9338L15.75 12.9238L19.5645 9.3H18.375ZM9.375 19.275V21.4125C9.375 21.6015 9.29598 21.7827 9.15533 21.9163C9.01468 22.0499 8.82391 22.125 8.625 22.125C8.42609 22.125 8.23532 22.0499 8.09467 21.9163C7.95402 21.7827 7.875 21.6015 7.875 21.4125V19.275C7.875 19.086 7.95402 18.9048 8.09467 18.7712C8.23532 18.6376 8.42609 18.5625 8.625 18.5625C8.82391 18.5625 9.01468 18.6376 9.15533 18.7712C9.29598 18.9048 9.375 19.086 9.375 19.275ZM13.125 16.425C13.125 16.236 13.046 16.0548 12.9053 15.9212C12.7647 15.7876 12.5739 15.7125 12.375 15.7125C12.1761 15.7125 11.9853 15.7876 11.8447 15.9212C11.704 16.0548 11.625 16.236 11.625 16.425V21.4125C11.625 21.6015 11.704 21.7827 11.8447 21.9163C11.9853 22.0499 12.1761 22.125 12.375 22.125C12.5739 22.125 12.7647 22.0499 12.9053 21.9163C13.046 21.7827 13.125 21.6015 13.125 21.4125V16.425ZM16.125 17.1375C16.3239 17.1375 16.5147 17.2126 16.6553 17.3462C16.796 17.4798 16.875 17.661 16.875 17.85V21.4125C16.875 21.6015 16.796 21.7827 16.6553 21.9163C16.5147 22.0499 16.3239 22.125 16.125 22.125C15.9261 22.125 15.7353 22.0499 15.5947 21.9163C15.454 21.7827 15.375 21.6015 15.375 21.4125V17.85C15.375 17.661 15.454 17.4798 15.5947 17.3462C15.7353 17.2126 15.9261 17.1375 16.125 17.1375ZM20.625 14.2875C20.625 14.0985 20.546 13.9173 20.4053 13.7837C20.2647 13.6501 20.0739 13.575 19.875 13.575C19.6761 13.575 19.4853 13.6501 19.3447 13.7837C19.204 13.9173 19.125 14.0985 19.125 14.2875V21.4125C19.125 21.6015 19.204 21.7827 19.3447 21.9163C19.4853 22.0499 19.6761 22.125 19.875 22.125C20.0739 22.125 20.2647 22.0499 20.4053 21.9163C20.546 21.7827 20.625 21.6015 20.625 21.4125V14.2875Z" fill="white"/>
</svg>
