 <svg width="121" height="34" viewBox="0 0 121 34" fill="none" xmlns="http://www.w3.org/2000/svg">
            <g clip-path="url(#clip0_15071_98)">
                <path d="M22.6534 30.0332L0.0795898 16.9991L22.6534 3.96692V30.0332Z" stroke="#292929"
                    stroke-width="0.555823" stroke-linejoin="bevel" />
                <path d="M7.60547 29.9498L30.1941 17.0139L7.62029 3.98175L7.60547 29.9498Z" stroke="#292929"
                    stroke-width="0.555823" stroke-linejoin="bevel" />
                <path
                    d="M7.66283 29.9331C7.30896 29.7275 7.19038 29.2754 7.39604 28.9215L14.5013 16.7045L21.5473 4.31709C21.7492 3.96137 22.2013 3.83723 22.5552 4.04103C22.9109 4.24298 23.035 4.69505 22.8331 5.04893L15.7834 17.4419L8.67443 29.6663C8.46878 30.0202 8.01671 30.1388 7.66283 29.9331Z"
                    fill="#292929" />
                <path
                    d="M27.4965 21.4438L27.076 21.529C26.9852 21.5476 26.8981 21.5809 26.8184 21.6291C20.4543 25.3883 20.5469 25.1808 18.1365 21.1029L13.1785 12.5303C10.4494 7.90954 5.7972 9.32688 1.89162 11.3945C1.04306 11.8429 1.51551 13.138 2.4567 12.9416C2.54564 12.9231 2.63271 12.8897 2.71053 12.8434C8.98392 9.13976 9.15067 9.35653 11.5796 13.4678L16.5376 22.0404C19.287 26.6926 24.0727 25.1382 28.0579 22.9946C28.9009 22.5406 28.434 21.2567 27.4965 21.4475V21.4438Z"
                    fill="#292929" />
                <path
                    d="M22.6534 3.96692H7.60543L0.0795898 16.9991L7.60543 30.0332H22.6534L30.1793 16.9991L22.6534 3.96692Z"
                    stroke="#292929" stroke-width="0.555823" stroke-linejoin="bevel" />
            </g>
            <path
                d="M38.1494 21.5734C37.5054 21.5734 36.9103 21.4674 36.3641 21.2554C35.8179 21.0353 35.3451 20.7296 34.9457 20.3383C34.5462 19.947 34.2324 19.4864 34.0041 18.9566C33.784 18.4267 33.6739 17.8479 33.6739 17.2202C33.6739 16.5925 33.784 16.0137 34.0041 15.4838C34.2324 14.9539 34.5462 14.4933 34.9457 14.102C35.3533 13.7107 35.8302 13.4091 36.3764 13.1971C36.9225 12.977 37.5176 12.867 38.1617 12.867C38.7812 12.867 39.3641 12.9729 39.9103 13.1849C40.4565 13.3887 40.9171 13.6985 41.2921 14.1142L40.7173 14.6889C40.3668 14.3303 39.9796 14.0735 39.5557 13.9186C39.1318 13.7555 38.6752 13.674 38.1861 13.674C37.6725 13.674 37.1956 13.7637 36.7554 13.943C36.3152 14.1142 35.9321 14.3629 35.606 14.6889C35.2799 15.0069 35.0231 15.3819 34.8356 15.8139C34.6563 16.2378 34.5666 16.7066 34.5666 17.2202C34.5666 17.7337 34.6563 18.2066 34.8356 18.6386C35.0231 19.0625 35.2799 19.4375 35.606 19.7636C35.9321 20.0815 36.3152 20.3302 36.7554 20.5095C37.1956 20.6807 37.6725 20.7663 38.1861 20.7663C38.6752 20.7663 39.1318 20.6848 39.5557 20.5218C39.9796 20.3587 40.3668 20.0978 40.7173 19.7392L41.2921 20.3139C40.9171 20.7296 40.4565 21.0435 39.9103 21.2554C39.3641 21.4674 38.7771 21.5734 38.1494 21.5734ZM43.0376 21.5V12.4267H43.9058V21.5H43.0376ZM46.3215 21.5V15.0802H47.1897V21.5H46.3215ZM46.7617 13.6618C46.5824 13.6618 46.4316 13.6006 46.3093 13.4784C46.187 13.3561 46.1259 13.2093 46.1259 13.0382C46.1259 12.867 46.187 12.7243 46.3093 12.6102C46.4316 12.4879 46.5824 12.4267 46.7617 12.4267C46.9411 12.4267 47.0919 12.4838 47.2142 12.5979C47.3365 12.7121 47.3976 12.8547 47.3976 13.0259C47.3976 13.2053 47.3365 13.3561 47.2142 13.4784C47.1001 13.6006 46.9492 13.6618 46.7617 13.6618ZM57.6271 15.0191C58.1488 15.0191 58.6013 15.121 58.9844 15.3248C59.3757 15.5205 59.6773 15.8221 59.8893 16.2297C60.1094 16.6373 60.2194 17.1509 60.2194 17.7704V21.5H59.3512V17.856C59.3512 17.1794 59.1882 16.6699 58.8621 16.3275C58.5442 15.977 58.0918 15.8017 57.5048 15.8017C57.0646 15.8017 56.6814 15.8955 56.3554 16.0829C56.0374 16.2623 55.7888 16.5272 55.6094 16.8778C55.4383 17.2202 55.3527 17.6359 55.3527 18.125V21.5H54.4845V17.856C54.4845 17.1794 54.3214 16.6699 53.9953 16.3275C53.6693 15.977 53.2127 15.8017 52.6258 15.8017C52.1937 15.8017 51.8147 15.8955 51.4886 16.0829C51.1625 16.2623 50.9098 16.5272 50.7304 16.8778C50.5592 17.2202 50.4736 17.6359 50.4736 18.125V21.5H49.6054V15.0802H50.437V16.8166L50.3025 16.5109C50.4981 16.0463 50.812 15.6835 51.244 15.4226C51.6842 15.1536 52.2019 15.0191 52.797 15.0191C53.4247 15.0191 53.9587 15.1781 54.3989 15.496C54.8391 15.8058 55.1244 16.2745 55.2548 16.9022L54.9124 16.7677C55.0999 16.246 55.4301 15.8262 55.9029 15.5082C56.3839 15.1821 56.9586 15.0191 57.6271 15.0191ZM66.597 21.5V20.0815L66.5603 19.8492V17.477C66.5603 16.9308 66.4054 16.5109 66.0956 16.2175C65.794 15.924 65.3416 15.7772 64.7383 15.7772C64.3225 15.7772 63.9272 15.8465 63.5522 15.9851C63.1772 16.1237 62.8593 16.3071 62.5984 16.5354L62.2071 15.8873C62.5332 15.6101 62.9245 15.3982 63.381 15.2514C63.8375 15.0965 64.3185 15.0191 64.8239 15.0191C65.6554 15.0191 66.2953 15.227 66.7437 15.6427C67.2002 16.0503 67.4285 16.674 67.4285 17.5136V21.5H66.597ZM64.3837 21.5611C63.9027 21.5611 63.4829 21.4837 63.1242 21.3288C62.7737 21.1658 62.5046 20.9457 62.3171 20.6685C62.1296 20.3832 62.0359 20.0571 62.0359 19.6902C62.0359 19.356 62.1133 19.0544 62.2682 18.7854C62.4313 18.5082 62.6921 18.2881 63.0508 18.125C63.4177 17.9538 63.9068 17.8683 64.5182 17.8683H66.7315V18.5163H64.5427C63.9231 18.5163 63.491 18.6264 63.2465 18.8465C63.0101 19.0666 62.8919 19.3397 62.8919 19.6658C62.8919 20.0326 63.0345 20.3261 63.3198 20.5462C63.6052 20.7663 64.0046 20.8764 64.5182 20.8764C65.0073 20.8764 65.4272 20.7663 65.7777 20.5462C66.1364 20.3179 66.3972 19.9919 66.5603 19.568L66.7559 20.1671C66.5929 20.591 66.3076 20.9294 65.9 21.1821C65.5005 21.4348 64.9951 21.5611 64.3837 21.5611ZM71.8165 21.5611C71.2132 21.5611 70.7485 21.3981 70.4225 21.072C70.0964 20.7459 69.9333 20.2853 69.9333 19.6902V13.6618H70.8015V19.6413C70.8015 20.0163 70.8953 20.3057 71.0828 20.5095C71.2784 20.7133 71.5556 20.8152 71.9143 20.8152C72.2974 20.8152 72.6154 20.7052 72.8681 20.4851L73.1738 21.1087C73.0026 21.2636 72.7947 21.3777 72.5502 21.4511C72.3137 21.5245 72.0692 21.5611 71.8165 21.5611ZM68.7839 15.8017V15.0802H72.758V15.8017H68.7839ZM77.2542 21.5611C76.5858 21.5611 75.9988 21.4226 75.4934 21.1454C74.988 20.8601 74.5926 20.4728 74.3073 19.9837C74.0219 19.4864 73.8793 18.9199 73.8793 18.284C73.8793 17.6481 74.0138 17.0857 74.2828 16.5965C74.56 16.1074 74.935 15.7243 75.4078 15.4471C75.8888 15.1618 76.4268 15.0191 77.0219 15.0191C77.6252 15.0191 78.1591 15.1577 78.6238 15.4349C79.0966 15.7039 79.4675 16.087 79.7366 16.5843C80.0056 17.0734 80.1401 17.64 80.1401 18.284C80.1401 18.3248 80.136 18.3696 80.1279 18.4185C80.1279 18.4593 80.1279 18.5041 80.1279 18.553H74.5396V17.9049H79.6632L79.3208 18.1617C79.3208 17.6971 79.2189 17.2854 79.0151 16.9267C78.8194 16.5598 78.5504 16.2745 78.208 16.0707C77.8657 15.8669 77.4703 15.765 77.0219 15.765C76.5817 15.765 76.1863 15.8669 75.8358 16.0707C75.4852 16.2745 75.2122 16.5598 75.0165 16.9267C74.8209 17.2935 74.723 17.7134 74.723 18.1862V18.3207C74.723 18.8098 74.829 19.2419 75.041 19.6169C75.2611 19.9837 75.5627 20.2731 75.9458 20.4851C76.3371 20.6889 76.7814 20.7908 77.2787 20.7908C77.67 20.7908 78.0328 20.7215 78.367 20.5829C78.7094 20.4443 79.0029 20.2324 79.2474 19.947L79.7366 20.5095C79.4512 20.8519 79.0925 21.1128 78.6605 21.2921C78.2366 21.4715 77.7678 21.5611 77.2542 21.5611ZM83.9214 21.5L87.8344 12.9403H88.7271L92.6401 21.5H91.6863L88.0912 13.4661H88.4581L84.863 21.5H83.9214ZM85.4622 19.2133L85.7312 18.4797H90.708L90.977 19.2133H85.4622ZM93.8726 21.5V12.4267H94.7408V21.5H93.8726ZM100.47 21.5611C99.916 21.5611 99.4147 21.4348 98.9663 21.1821C98.5179 20.9212 98.1592 20.5503 97.8902 20.0693C97.6294 19.5802 97.4989 18.9851 97.4989 18.284C97.4989 17.5829 97.6294 16.9919 97.8902 16.5109C98.1511 16.0218 98.5057 15.6509 98.9541 15.3982C99.4024 15.1455 99.9079 15.0191 100.47 15.0191C101.082 15.0191 101.628 15.1577 102.109 15.4349C102.598 15.7039 102.981 16.087 103.258 16.5843C103.536 17.0734 103.674 17.64 103.674 18.284C103.674 18.9362 103.536 19.5068 103.258 19.9959C102.981 20.4851 102.598 20.8682 102.109 21.1454C101.628 21.4226 101.082 21.5611 100.47 21.5611ZM97.1565 23.8723V15.0802H97.9881V17.0123L97.9025 18.2962L98.0247 19.5924V23.8723H97.1565ZM100.409 20.7908C100.866 20.7908 101.273 20.6889 101.632 20.4851C101.991 20.2731 102.276 19.9796 102.488 19.6046C102.7 19.2215 102.806 18.7813 102.806 18.284C102.806 17.7867 102.7 17.3506 102.488 16.9756C102.276 16.6006 101.991 16.3071 101.632 16.0952C101.273 15.8832 100.866 15.7772 100.409 15.7772C99.9527 15.7772 99.541 15.8832 99.1742 16.0952C98.8155 16.3071 98.5302 16.6006 98.3182 16.9756C98.1144 17.3506 98.0125 17.7867 98.0125 18.284C98.0125 18.7813 98.1144 19.2215 98.3182 19.6046C98.5302 19.9796 98.8155 20.2731 99.1742 20.4851C99.541 20.6889 99.9527 20.7908 100.409 20.7908ZM108.721 15.0191C109.243 15.0191 109.699 15.121 110.091 15.3248C110.49 15.5205 110.8 15.8221 111.02 16.2297C111.248 16.6373 111.362 17.1509 111.362 17.7704V21.5H110.494V17.856C110.494 17.1794 110.323 16.6699 109.981 16.3275C109.646 15.977 109.174 15.8017 108.562 15.8017C108.106 15.8017 107.706 15.8955 107.364 16.0829C107.03 16.2623 106.769 16.5272 106.581 16.8778C106.402 17.2202 106.312 17.6359 106.312 18.125V21.5H105.444V12.4267H106.312V16.8411L106.141 16.5109C106.345 16.0463 106.671 15.6835 107.119 15.4226C107.568 15.1536 108.102 15.0191 108.721 15.0191ZM117.731 21.5V20.0815L117.694 19.8492V17.477C117.694 16.9308 117.539 16.5109 117.229 16.2175C116.928 15.924 116.475 15.7772 115.872 15.7772C115.456 15.7772 115.061 15.8465 114.686 15.9851C114.311 16.1237 113.993 16.3071 113.732 16.5354L113.341 15.8873C113.667 15.6101 114.058 15.3982 114.515 15.2514C114.971 15.0965 115.452 15.0191 115.957 15.0191C116.789 15.0191 117.429 15.227 117.877 15.6427C118.334 16.0503 118.562 16.674 118.562 17.5136V21.5H117.731ZM115.517 21.5611C115.036 21.5611 114.616 21.4837 114.258 21.3288C113.907 21.1658 113.638 20.9457 113.451 20.6685C113.263 20.3832 113.169 20.0571 113.169 19.6902C113.169 19.356 113.247 19.0544 113.402 18.7854C113.565 18.5082 113.826 18.2881 114.184 18.125C114.551 17.9538 115.04 17.8683 115.652 17.8683H117.865V18.5163H115.676C115.057 18.5163 114.625 18.6264 114.38 18.8465C114.144 19.0666 114.025 19.3397 114.025 19.6658C114.025 20.0326 114.168 20.3261 114.453 20.5462C114.739 20.7663 115.138 20.8764 115.652 20.8764C116.141 20.8764 116.561 20.7663 116.911 20.5462C117.27 20.3179 117.531 19.9919 117.694 19.568L117.889 20.1671C117.726 20.591 117.441 20.9294 117.034 21.1821C116.634 21.4348 116.129 21.5611 115.517 21.5611Z"
                fill="#292929" />
            <defs>
                <clipPath id="clip0_15071_98">
                    <rect width="30.259" height="26.2515" fill="white" transform="translate(0 3.87424)" />
                </clipPath>
            </defs>
</svg>