<svg width="31" height="32" viewBox="0 0 31 32" fill="none" xmlns="http://www.w3.org/2000/svg">
<circle cx="15.1955" cy="15.9777" r="15.1955" fill="#DDDDDD"/>
<path d="M17.0276 12.6135C16.5353 12.1363 15.8854 11.875 15.1961 11.875C14.5069 11.875 13.857 12.1381 13.3646 12.6135C12.8526 13.1089 12.5703 13.7748 12.5703 14.4879V14.6258C12.5703 14.7056 12.6294 14.771 12.7016 14.771H13.4893C13.5616 14.771 13.6206 14.7056 13.6206 14.6258V14.4879C13.6206 13.6877 14.328 13.0363 15.1961 13.0363C16.0643 13.0363 16.7716 13.6877 16.7716 14.4879C16.7716 15.0522 16.4106 15.5694 15.8509 15.8071C15.503 15.954 15.2076 16.2117 14.9959 16.5492C14.7809 16.894 14.6693 17.3077 14.6693 17.7268V18.1169C14.6693 18.1968 14.7284 18.2621 14.8006 18.2621H15.5884C15.6606 18.2621 15.7197 18.1968 15.7197 18.1169V17.705C15.7205 17.5289 15.7693 17.3571 15.8598 17.2121C15.9503 17.0671 16.0781 16.9556 16.2268 16.8921C17.195 16.4802 17.8203 15.5367 17.8203 14.4879C17.8219 13.7748 17.5397 13.1089 17.0276 12.6135ZM14.5397 20.1492C14.5397 20.3417 14.6088 20.5263 14.7319 20.6624C14.8551 20.7985 15.022 20.875 15.1961 20.875C15.3702 20.875 15.5372 20.7985 15.6603 20.6624C15.7834 20.5263 15.8526 20.3417 15.8526 20.1492C15.8526 19.9567 15.7834 19.7721 15.6603 19.636C15.5372 19.4999 15.3702 19.4234 15.1961 19.4234C15.022 19.4234 14.8551 19.4999 14.7319 19.636C14.6088 19.7721 14.5397 19.9567 14.5397 20.1492Z" fill="#292929"/>
<path d="M15.1953 8.125C10.8465 8.125 7.32031 11.6512 7.32031 16C7.32031 20.3488 10.8465 23.875 15.1953 23.875C19.5441 23.875 23.0703 20.3488 23.0703 16C23.0703 11.6512 19.5441 8.125 15.1953 8.125ZM19.8184 20.623C19.2172 21.2242 18.5176 21.6953 17.7389 22.0258C16.9355 22.3668 16.0795 22.5391 15.1953 22.5391C14.3111 22.5391 13.4551 22.3668 12.65 22.0258C11.8725 21.6974 11.1662 21.221 10.5705 20.623C9.96934 20.0219 9.49824 19.3223 9.16777 18.5436C8.82852 17.7402 8.65625 16.8842 8.65625 16C8.65625 15.1158 8.82852 14.2598 9.16953 13.4547C9.4979 12.6772 9.97432 11.9709 10.5723 11.3752C11.1734 10.774 11.873 10.3029 12.6518 9.97246C13.4551 9.6332 14.3111 9.46094 15.1953 9.46094C16.0795 9.46094 16.9355 9.6332 17.7406 9.97422C18.5182 10.3026 19.2244 10.779 19.8201 11.377C20.4213 11.9781 20.8924 12.6777 21.2229 13.4564C21.5621 14.2598 21.7344 15.1158 21.7344 16C21.7344 16.8842 21.5621 17.7402 21.2211 18.5453C20.8931 19.3225 20.4166 20.0283 19.8184 20.623Z" fill="#292929"/>
</svg>
