<svg width="30" height="30" viewBox="0 0 30 30" fill="none" xmlns="http://www.w3.org/2000/svg">
<circle cx="15" cy="15" r="15" fill="#009999"/>
<path d="M19.6154 8.25H10.8462C10.5554 8.25 10.2766 8.36549 10.0711 8.57106C9.86549 8.77662 9.75 9.05544 9.75 9.34615V21.4038C9.75 21.6946 9.86549 21.9734 10.0711 22.1789C10.2766 22.3845 10.5554 22.5 10.8462 22.5H19.6154C19.9061 22.5 20.1849 22.3845 20.3905 22.1789C20.5961 21.9734 20.7115 21.6946 20.7115 21.4038V9.34615C20.7115 9.05544 20.5961 8.77662 20.3905 8.57106C20.1849 8.36549 19.9061 8.25 19.6154 8.25ZM19.6154 9.34615V12.6346H10.8462V9.34615H19.6154ZM10.8462 17.0192V13.7308H19.6154V17.0192H10.8462ZM10.8462 21.4038V18.1154H19.6154V21.4038H10.8462Z" fill="white"/>
<path d="M12.1875 11.625C12.4982 11.625 12.75 11.3732 12.75 11.0625C12.75 10.7518 12.4982 10.5 12.1875 10.5C11.8768 10.5 11.625 10.7518 11.625 11.0625C11.625 11.3732 11.8768 11.625 12.1875 11.625Z" fill="white"/>
<path d="M12.1875 16.125C12.4982 16.125 12.75 15.8732 12.75 15.5625C12.75 15.2518 12.4982 15 12.1875 15C11.8768 15 11.625 15.2518 11.625 15.5625C11.625 15.8732 11.8768 16.125 12.1875 16.125Z" fill="white"/>
<path d="M12.1875 20.625C12.4982 20.625 12.75 20.3732 12.75 20.0625C12.75 19.7518 12.4982 19.5 12.1875 19.5C11.8768 19.5 11.625 19.7518 11.625 20.0625C11.625 20.3732 11.8768 20.625 12.1875 20.625Z" fill="white"/>
</svg>
