<svg width="25" height="24" viewBox="0 0 25 24" fill="none" xmlns="http://www.w3.org/2000/svg">
<g clip-path="url(#clip0_3902_29986)">
<path d="M17.179 10.0083C17.179 9.90518 17.0946 9.8208 16.9915 9.8208H7.99152C7.88839 9.8208 7.80402 9.90518 7.80402 10.0083V11.1333C7.80402 11.2364 7.88839 11.3208 7.99152 11.3208H16.9915C17.0946 11.3208 17.179 11.2364 17.179 11.1333V10.0083ZM16.9915 13.1958H7.99152C7.88839 13.1958 7.80402 13.2802 7.80402 13.3833V14.5083C7.80402 14.6114 7.88839 14.6958 7.99152 14.6958H16.9915C17.0946 14.6958 17.179 14.6114 17.179 14.5083V13.3833C17.179 13.2802 17.0946 13.1958 16.9915 13.1958ZM16.9915 16.5708H7.99152C7.88839 16.5708 7.80402 16.6552 7.80402 16.7583V17.8833C7.80402 17.9864 7.88839 18.0708 7.99152 18.0708H16.9915C17.0946 18.0708 17.179 17.9864 17.179 17.8833V16.7583C17.179 16.6552 17.0946 16.5708 16.9915 16.5708Z" fill="#616161"/>
<path fill-rule="evenodd" clip-rule="evenodd" d="M7.0235 2C7.0235 1.44772 7.47121 1 8.0235 1H16.7424C17.2947 1 17.7424 1.44772 17.7424 2V2.78668H20.0824C20.4543 2.83143 20.7415 3.14719 20.7415 3.53125V21.9062C20.7415 22.3211 20.4064 22.6562 19.9915 22.6562L12.4227 22.6067L4.99152 22.6562C4.57667 22.6562 4.24152 22.3211 4.24152 21.9062V3.53125C4.24152 3.14719 4.52878 2.83143 4.90059 2.78668H7.0235V2ZM8.5235 4.78687V2.5H16.2424V4.78687H8.5235ZM17.7424 4.46875V5.28687C17.7424 5.83915 17.2947 6.28687 16.7424 6.28687H8.0235C7.47121 6.28687 7.0235 5.83915 7.0235 5.28687V4.46875H5.92902V20.9688H19.054V4.46875H17.7424Z" fill="#616161"/>
</g>
<defs>
<clipPath id="clip0_3902_29986">
<rect width="17" height="22" fill="white" transform="translate(4.05402 1)"/>
</clipPath>
</defs>
</svg>
