<svg width="24" height="24" viewBox="0 0 24 24" fill="none" xmlns="http://www.w3.org/2000/svg">
<path d="M9.375 7.44687H11.107V15.3758C11.107 15.4789 11.1914 15.5633 11.2945 15.5633H12.7008C12.8039 15.5633 12.8883 15.4789 12.8883 15.3758V7.44687H14.625C14.782 7.44687 14.8687 7.2664 14.7727 7.14452L12.1477 3.82109C12.1301 3.79868 12.1077 3.78055 12.0821 3.76809C12.0565 3.75562 12.0285 3.74915 12 3.74915C11.9715 3.74915 11.9435 3.75562 11.9179 3.76809C11.8923 3.78055 11.8699 3.79868 11.8523 3.82109L9.22734 7.14218C9.13125 7.2664 9.21797 7.44687 9.375 7.44687ZM20.5781 14.6727H19.1719C19.0688 14.6727 18.9844 14.757 18.9844 14.8602V18.4695H5.01562V14.8602C5.01562 14.757 4.93125 14.6727 4.82812 14.6727H3.42188C3.31875 14.6727 3.23438 14.757 3.23438 14.8602V19.5008C3.23438 19.9156 3.56953 20.2508 3.98438 20.2508H20.0156C20.4305 20.2508 20.7656 19.9156 20.7656 19.5008V14.8602C20.7656 14.757 20.6812 14.6727 20.5781 14.6727Z" fill="#616161"/>
</svg>
