<svg width="23" height="24" viewBox="0 0 23 24" fill="none" xmlns="http://www.w3.org/2000/svg">
<g clip-path="url(#clip0_3962_14092)">
<path d="M10.493 14.8615H12.401V16.7695H10.493V14.8615ZM10.493 7.2305H12.401V12.9535H10.493V7.2305ZM11.447 2.4615C9.56036 2.4615 7.7161 3.02095 6.14742 4.06911C4.57874 5.11727 3.3561 6.60706 2.63411 8.35008C1.91213 10.0931 1.72323 12.0111 2.09129 13.8615C2.45936 15.7119 3.36786 17.4115 4.70191 18.7456C6.03596 20.0796 7.73565 20.9881 9.58604 21.3562C11.4364 21.7243 13.3544 21.5354 15.0974 20.8134C16.8404 20.0914 18.3302 18.8688 19.3784 17.3001C20.4265 15.7314 20.986 13.8871 20.986 12.0005C20.9836 9.47133 19.9779 7.04644 18.1895 5.25804C16.4011 3.46965 13.9762 2.46388 11.447 2.4615ZM11.447 19.6315C9.93773 19.6315 8.46236 19.184 7.20745 18.3454C5.95253 17.5069 4.97445 16.3151 4.39688 14.9208C3.8193 13.5264 3.66818 11.992 3.96263 10.5118C4.25707 9.0315 4.98386 7.67178 6.05107 6.60457C7.11828 5.53736 8.478 4.81057 9.95827 4.51613C11.4385 4.22169 12.9729 4.37281 14.3673 4.95038C15.7616 5.52795 16.9534 6.50603 17.7919 7.76095C18.6305 9.01586 19.078 10.4912 19.078 12.0005C19.078 14.0244 18.274 15.9653 16.8429 17.3964C15.4118 18.8275 13.4709 19.6315 11.447 19.6315Z" fill="#616161"/>
</g>
<defs>
<clipPath id="clip0_3962_14092">
<rect width="22.893" height="22.893" fill="white" transform="translate(0 0.553497)"/>
</clipPath>
</defs>
</svg>
