<svg width="17" height="16" viewBox="0 0 17 16" fill="none" xmlns="http://www.w3.org/2000/svg">
<path d="M15 2.5H2C1.72344 2.5 1.5 2.72344 1.5 3V13C1.5 13.2766 1.72344 13.5 2 13.5H15C15.2766 13.5 15.5 13.2766 15.5 13V3C15.5 2.72344 15.2766 2.5 15 2.5ZM14.375 5.75H11.0625V3.625H14.375V5.75ZM14.375 9.25H11.0625V6.75H14.375V9.25ZM6.9375 6.75H10.0625V9.25H6.9375V6.75ZM10.0625 5.75H6.9375V3.625H10.0625V5.75ZM2.625 6.75H5.9375V9.25H2.625V6.75ZM2.625 3.625H5.9375V5.75H2.625V3.625ZM2.625 10.25H5.9375V12.375H2.625V10.25ZM6.9375 10.25H10.0625V12.375H6.9375V10.25ZM14.375 12.375H11.0625V10.25H14.375V12.375Z" fill="#262626"/>
</svg>
