<svg width="63" height="24" viewBox="0 0 63 24" fill="none" xmlns="http://www.w3.org/2000/svg">
<path d="M13.8333 17.3334C13.6444 17.3334 13.4862 17.2694 13.3587 17.1414C13.2307 17.0139 13.1667 16.8556 13.1667 16.6667V12.6667L9.3 7.73341C9.13333 7.51119 9.10844 7.27786 9.22533 7.03341C9.34177 6.78897 9.54444 6.66675 9.83333 6.66675H19.1667C19.4556 6.66675 19.6584 6.78897 19.7753 7.03341C19.8918 7.27786 19.8667 7.51119 19.7 7.73341L15.8333 12.6667V16.6667C15.8333 16.8556 15.7696 17.0139 15.642 17.1414C15.514 17.2694 15.3556 17.3334 15.1667 17.3334H13.8333ZM14.5 12.6667L18.5 7.66675H10.5L14.5 12.6667Z" fill="#009999"/>
<path d="M26.84 12.072H31.172V13.104H26.84V12.072ZM26.96 16.5H25.76V8.1H31.688V9.144H26.96V16.5ZM33.2092 16.5V10.14H34.3612V16.5H33.2092ZM33.7852 8.916C33.5612 8.916 33.3732 8.844 33.2212 8.7C33.0772 8.556 33.0052 8.38 33.0052 8.172C33.0052 7.956 33.0772 7.776 33.2212 7.632C33.3732 7.488 33.5612 7.416 33.7852 7.416C34.0092 7.416 34.1932 7.488 34.3372 7.632C34.4892 7.768 34.5652 7.94 34.5652 8.148C34.5652 8.364 34.4932 8.548 34.3492 8.7C34.2052 8.844 34.0172 8.916 33.7852 8.916ZM36.5608 16.5V7.596H37.7128V16.5H36.5608ZM42.2604 16.572C41.6204 16.572 41.1244 16.4 40.7724 16.056C40.4204 15.712 40.2444 15.22 40.2444 14.58V8.748H41.3964V14.532C41.3964 14.876 41.4804 15.14 41.6484 15.324C41.8244 15.508 42.0724 15.6 42.3924 15.6C42.7524 15.6 43.0524 15.5 43.2924 15.3L43.6524 16.128C43.4764 16.28 43.2644 16.392 43.0164 16.464C42.7764 16.536 42.5244 16.572 42.2604 16.572ZM39.1644 11.088V10.14H43.2204V11.088H39.1644ZM47.6662 16.572C46.9862 16.572 46.3862 16.432 45.8662 16.152C45.3542 15.872 44.9542 15.488 44.6662 15C44.3862 14.512 44.2462 13.952 44.2462 13.32C44.2462 12.688 44.3822 12.128 44.6542 11.64C44.9342 11.152 45.3142 10.772 45.7942 10.5C46.2822 10.22 46.8302 10.08 47.4382 10.08C48.0542 10.08 48.5982 10.216 49.0702 10.488C49.5422 10.76 49.9102 11.144 50.1742 11.64C50.4462 12.128 50.5822 12.7 50.5822 13.356C50.5822 13.404 50.5782 13.46 50.5702 13.524C50.5702 13.588 50.5662 13.648 50.5582 13.704H45.1462V12.876H49.9582L49.4902 13.164C49.4982 12.756 49.4142 12.392 49.2382 12.072C49.0622 11.752 48.8182 11.504 48.5062 11.328C48.2022 11.144 47.8462 11.052 47.4382 11.052C47.0382 11.052 46.6822 11.144 46.3702 11.328C46.0582 11.504 45.8142 11.756 45.6382 12.084C45.4622 12.404 45.3742 12.772 45.3742 13.188V13.38C45.3742 13.804 45.4702 14.184 45.6622 14.52C45.8622 14.848 46.1382 15.104 46.4902 15.288C46.8422 15.472 47.2462 15.564 47.7022 15.564C48.0782 15.564 48.4182 15.5 48.7222 15.372C49.0342 15.244 49.3062 15.052 49.5382 14.796L50.1742 15.54C49.8862 15.876 49.5262 16.132 49.0942 16.308C48.6702 16.484 48.1942 16.572 47.6662 16.572ZM52.1818 16.5V10.14H53.2858V11.868L53.1778 11.436C53.3538 10.996 53.6498 10.66 54.0658 10.428C54.4818 10.196 54.9938 10.08 55.6018 10.08V11.196C55.5538 11.188 55.5058 11.184 55.4578 11.184C55.4178 11.184 55.3778 11.184 55.3378 11.184C54.7218 11.184 54.2338 11.368 53.8738 11.736C53.5138 12.104 53.3338 12.636 53.3338 13.332V16.5H52.1818Z" fill="#009999"/>
</svg>
