<svg width="38" height="33" viewBox="0 0 38 33" fill="none" xmlns="http://www.w3.org/2000/svg">
<g clip-path="url(#clip0_5826_92958)">
<path d="M28.1876 32.5493L0.0991211 16.3311L28.1876 0.115234V32.5493Z" stroke="black" stroke-width="0.230536" stroke-linejoin="bevel"/>
<path d="M9.4635 32.4457L37.5704 16.3497L9.48194 0.133789L9.4635 32.4457Z" stroke="black" stroke-width="0.230536" stroke-linejoin="bevel"/>
<path d="M9.535 32.4249C9.09468 32.169 8.94713 31.6065 9.20303 31.1662L18.0441 15.9646L26.8114 0.551015C27.0627 0.108386 27.6252 -0.0460736 28.0655 0.207516C28.5081 0.4588 28.6626 1.02131 28.4113 1.46163L19.6394 16.8822L10.7937 32.0929C10.5378 32.5333 9.97533 32.6808 9.535 32.4249Z" fill="black"/>
<path d="M34.2138 21.8616L33.6905 21.9676C33.5775 21.9907 33.4692 22.0322 33.3701 22.0921C25.4512 26.7697 25.5664 26.5115 22.5672 21.4374L16.398 10.7705C13.0022 5.02093 7.21345 6.78453 2.35376 9.35731C1.2979 9.91521 1.88577 11.5267 3.05689 11.2823C3.16755 11.2592 3.2759 11.2177 3.37273 11.1601C11.1787 6.55169 11.3862 6.82142 14.4085 11.937L20.5776 22.6039C23.9988 28.3927 29.9535 26.4585 34.9123 23.7912C35.9613 23.2264 35.3803 21.6287 34.2138 21.8662V21.8616Z" fill="black"/>
<path d="M28.1876 0.115234H9.46349L0.0991211 16.3311L9.46349 32.5493H28.1876L37.552 16.3311L28.1876 0.115234Z" stroke="black" stroke-width="0.230536" stroke-linejoin="bevel"/>
</g>
<defs>
<clipPath id="clip0_5826_92958">
<rect width="37.6511" height="32.6646" fill="white"/>
</clipPath>
</defs>
</svg>
