<svg width="25" height="25" viewBox="0 0 25 25" fill="none" xmlns="http://www.w3.org/2000/svg">
<path d="M6.86914 10.7754C6.86914 11.0738 6.98767 11.3599 7.19865 11.5709C7.40962 11.7819 7.69577 11.9004 7.99414 11.9004C8.29251 11.9004 8.57866 11.7819 8.78964 11.5709C9.00061 11.3599 9.11914 11.0738 9.11914 10.7754C9.11914 10.477 9.00061 10.1909 8.78964 9.9799C8.57866 9.76892 8.29251 9.65039 7.99414 9.65039C7.69577 9.65039 7.40962 9.76892 7.19865 9.9799C6.98767 10.1909 6.86914 10.477 6.86914 10.7754ZM15.1191 10.7754C15.1191 11.0738 15.2377 11.3599 15.4486 11.5709C15.6596 11.7819 15.9458 11.9004 16.2441 11.9004C16.5425 11.9004 16.8287 11.7819 17.0396 11.5709C17.2506 11.3599 17.3691 11.0738 17.3691 10.7754C17.3691 10.477 17.2506 10.1909 17.0396 9.9799C16.8287 9.76892 16.5425 9.65039 16.2441 9.65039C15.9458 9.65039 15.6596 9.76892 15.4486 9.9799C15.2377 10.1909 15.1191 10.477 15.1191 10.7754ZM12.1191 2.4082C6.3207 2.4082 1.61914 7.10977 1.61914 12.9082C1.61914 18.7066 6.3207 23.4082 12.1191 23.4082C17.9176 23.4082 22.6191 18.7066 22.6191 12.9082C22.6191 7.10977 17.9176 2.4082 12.1191 2.4082ZM18.2832 19.0723C17.4816 19.8738 16.5488 20.502 15.5105 20.9426C14.4395 21.3973 13.298 21.627 12.1191 21.627C10.9402 21.627 9.79883 21.3973 8.72539 20.9426C7.68868 20.5047 6.74699 19.8695 5.95273 19.0723C5.15117 18.2707 4.52305 17.3379 4.08242 16.2996C3.63008 15.2285 3.40039 14.0871 3.40039 12.9082C3.40039 11.7293 3.63008 10.5879 4.08477 9.51445C4.5226 8.47774 5.15782 7.53605 5.95508 6.7418C6.75664 5.94023 7.68945 5.31211 8.72773 4.87148C9.79883 4.41914 10.9402 4.18945 12.1191 4.18945C13.298 4.18945 14.4395 4.41914 15.5129 4.87383C16.5496 5.31166 17.4913 5.94688 18.2855 6.74414C19.0871 7.5457 19.7152 8.47852 20.1559 9.5168C20.6082 10.5879 20.8379 11.7293 20.8379 12.9082C20.8379 14.0871 20.6082 15.2285 20.1535 16.302C19.7162 17.3383 19.0809 18.2793 18.2832 19.0723Z" fill="black"/>
<path d="M9.68399 17.1504H8.55665C8.53122 17.1504 8.50605 17.1453 8.48266 17.1353C8.45928 17.1253 8.43818 17.1106 8.42064 17.0922C8.4031 17.0738 8.38949 17.052 8.38064 17.0281C8.37179 17.0043 8.36788 16.9789 8.36915 16.9535C8.47228 14.9777 10.1152 13.4004 12.1192 13.4004C14.1231 13.4004 15.766 14.9777 15.8692 16.9535C15.8704 16.9789 15.8665 17.0043 15.8577 17.0282C15.8488 17.052 15.8352 17.0738 15.8177 17.0922C15.8001 17.1106 15.779 17.1253 15.7556 17.1353C15.7323 17.1453 15.7071 17.1504 15.6817 17.1504L14.5543 17.1504C14.4559 17.1504 14.3715 17.0754 14.3645 16.977C14.2777 15.8168 13.3027 14.9004 12.1192 14.9004C10.9356 14.9004 9.9629 15.8168 9.87384 16.977C9.86681 17.0754 9.78243 17.1504 9.68399 17.1504Z" fill="black"/>
</svg>
