<svg width="10" height="10" viewBox="0 0 10 10" fill="none" xmlns="http://www.w3.org/2000/svg">
<path d="M5 0.125C4.03582 0.125 3.09329 0.410914 2.2916 0.946586C1.48991 1.48226 0.865067 2.24363 0.496089 3.13442C0.127112 4.02521 0.030571 5.00541 0.218674 5.95107C0.406777 6.89672 0.871076 7.76536 1.55286 8.44715C2.23464 9.12893 3.10328 9.59323 4.04894 9.78133C4.99459 9.96943 5.97479 9.87289 6.86558 9.50391C7.75637 9.13494 8.51775 8.51009 9.05342 7.7084C9.58909 6.90671 9.875 5.96418 9.875 5C9.87364 3.70749 9.35958 2.46831 8.44564 1.55436C7.5317 0.640418 6.29251 0.126365 5 0.125ZM3.76391 6.875H6.2361C5.98438 7.73469 5.5625 8.50953 5 9.11984C4.4375 8.50953 4.01563 7.73469 3.76391 6.875ZM3.59375 6.125C3.46938 5.38016 3.46938 4.61984 3.59375 3.875H6.40625C6.53063 4.61984 6.53063 5.38016 6.40625 6.125H3.59375ZM0.875002 5C0.874676 4.61958 0.927209 4.24096 1.0311 3.875H2.83391C2.72203 4.62083 2.72203 5.37917 2.83391 6.125H1.0311C0.927209 5.75904 0.874676 5.38042 0.875002 5ZM6.2361 3.125H3.76391C4.01563 2.26531 4.4375 1.49047 5 0.880156C5.5625 1.49047 5.98438 2.26531 6.2361 3.125ZM7.1661 3.875H8.96891C9.17704 4.61056 9.17704 5.38944 8.96891 6.125H7.1661C7.27797 5.37917 7.27797 4.62083 7.1661 3.875ZM8.6736 3.125H7.01281C6.82144 2.37196 6.50005 1.65811 6.06313 1.01562C6.62134 1.16563 7.14197 1.43081 7.59156 1.79409C8.04114 2.15738 8.40972 2.61073 8.6736 3.125ZM3.93688 1.01562C3.49995 1.65811 3.17856 2.37196 2.98719 3.125H1.32641C1.59028 2.61073 1.95886 2.15738 2.40844 1.79409C2.85803 1.43081 3.37867 1.16563 3.93688 1.01562ZM1.32641 6.875H2.98719C3.17856 7.62804 3.49995 8.34189 3.93688 8.98438C3.37867 8.83437 2.85803 8.56919 2.40844 8.20591C1.95886 7.84262 1.59028 7.38927 1.32641 6.875ZM6.06313 8.98438C6.50005 8.34189 6.82144 7.62804 7.01281 6.875H8.6736C8.40972 7.38927 8.04114 7.84262 7.59156 8.20591C7.14197 8.56919 6.62134 8.83437 6.06313 8.98438Z" fill="black"/>
</svg>
