<svg width="61" height="60" viewBox="0 0 61 60" fill="none" xmlns="http://www.w3.org/2000/svg">
<path fill-rule="evenodd" clip-rule="evenodd" d="M42.175 32.8252C45.6 35.1502 48 38.3002 48 42.5002V50.0002H55.5C56.875 50.0002 58 48.8752 58 47.5002V42.5002C58 37.0502 49.075 33.8252 42.175 32.8252Z" fill="#009999"/>
<path d="M23 30C28.5228 30 33 25.5228 33 20C33 14.4772 28.5228 10 23 10C17.4772 10 13 14.4772 13 20C13 25.5228 17.4772 30 23 30Z" fill="#009999"/>
<path fill-rule="evenodd" clip-rule="evenodd" d="M38 30C43.525 30 48 25.525 48 20C48 14.475 43.525 10 38 10C36.825 10 35.725 10.25 34.675 10.6C36.8263 13.2605 37.9999 16.5785 37.9999 20C37.9999 23.4215 36.8263 26.7395 34.675 29.4C35.725 29.75 36.825 30 38 30ZM23 32.5C16.325 32.5 3 35.85 3 42.5V47.5C3 48.875 4.125 50 5.5 50H40.5C41.875 50 43 48.875 43 47.5V42.5C43 35.85 29.675 32.5 23 32.5Z" fill="#009999"/>
</svg>
