<svg width="30" height="30" viewBox="0 0 30 30" fill="none" xmlns="http://www.w3.org/2000/svg">
<rect opacity="0.2" width="30" height="30" rx="5" fill="#009999"/>
<path d="M23.4375 12.2344C23.5406 12.2344 23.625 12.15 23.625 12.0469V10.6406C23.625 10.5375 23.5406 10.4531 23.4375 10.4531H19.5938V6.5625C19.5938 6.45937 19.5094 6.375 19.4062 6.375H17.9062C17.8031 6.375 17.7188 6.45937 17.7188 6.5625V10.4531H12.375V6.5625C12.375 6.45937 12.2906 6.375 12.1875 6.375H10.6875C10.5844 6.375 10.5 6.45937 10.5 6.5625V10.4531H6.5625C6.45937 10.4531 6.375 10.5375 6.375 10.6406V12.0469C6.375 12.15 6.45937 12.2344 6.5625 12.2344H10.5V17.7656H6.5625C6.45937 17.7656 6.375 17.85 6.375 17.9531V19.3594C6.375 19.4625 6.45937 19.5469 6.5625 19.5469H10.5V23.4375C10.5 23.5406 10.5844 23.625 10.6875 23.625H12.1875C12.2906 23.625 12.375 23.5406 12.375 23.4375V19.5469H17.7188V23.4375C17.7188 23.5406 17.8031 23.625 17.9062 23.625H19.4062C19.5094 23.625 19.5938 23.5406 19.5938 23.4375V19.5469H23.4375C23.5406 19.5469 23.625 19.4625 23.625 19.3594V17.9531C23.625 17.85 23.5406 17.7656 23.4375 17.7656H19.5938V12.2344H23.4375ZM17.7188 17.7656H12.375V12.2344H17.7188V17.7656Z" fill="#009999"/>
</svg>
