<svg width="21" height="20" viewBox="0 0 25 24" fill="none" xmlns="http://www.w3.org/2000/svg">
<path d="M12.4465 1.5C6.6481 1.5 1.94653 6.20156 1.94653 12C1.94653 17.7984 6.6481 22.5 12.4465 22.5C18.245 22.5 22.9465 17.7984 22.9465 12C22.9465 6.20156 18.245 1.5 12.4465 1.5ZM12.4465 20.7188C7.63247 20.7188 3.72778 16.8141 3.72778 12C3.72778 7.18594 7.63247 3.28125 12.4465 3.28125C17.2606 3.28125 21.1653 7.18594 21.1653 12C21.1653 16.8141 17.2606 20.7188 12.4465 20.7188Z" fill="#292929"/>
<path d="M11.3215 7.875C11.3215 8.17337 11.4401 8.45952 11.651 8.6705C11.862 8.88147 12.1482 9 12.4465 9C12.7449 9 13.031 8.88147 13.242 8.6705C13.453 8.45952 13.5715 8.17337 13.5715 7.875C13.5715 7.57663 13.453 7.29048 13.242 7.0795C13.031 6.86853 12.7449 6.75 12.4465 6.75C12.1482 6.75 11.862 6.86853 11.651 7.0795C11.4401 7.29048 11.3215 7.57663 11.3215 7.875ZM13.009 10.5H11.884C11.7809 10.5 11.6965 10.5844 11.6965 10.6875V17.0625C11.6965 17.1656 11.7809 17.25 11.884 17.25H13.009C13.1122 17.25 13.1965 17.1656 13.1965 17.0625V10.6875C13.1965 10.5844 13.1122 10.5 13.009 10.5Z" fill="#292929"/>
</svg>
