<svg width="16" height="16" viewBox="0 0 16 16" fill="none" xmlns="http://www.w3.org/2000/svg">
<path d="M9.4995 1.75C6.87606 1.75 4.7495 3.87656 4.7495 6.5C4.7495 7.59844 5.12293 8.60938 5.74793 9.41406L5.10575 10.0562L4.13231 9.08281C4.10851 9.05953 4.07654 9.04649 4.04325 9.04649C4.00995 9.04649 3.97798 9.05953 3.95418 9.08281L3.33231 9.70469C3.30902 9.72848 3.29598 9.76046 3.29598 9.79375C3.29598 9.82704 3.30902 9.85902 3.33231 9.88281L4.30575 10.8562L3.60418 11.5578L2.63075 10.5844C2.60695 10.5611 2.57498 10.548 2.54168 10.548C2.50839 10.548 2.47642 10.5611 2.45262 10.5844L1.83075 11.2063C1.80746 11.23 1.79442 11.262 1.79442 11.2953C1.79442 11.3286 1.80746 11.3606 1.83075 11.3844L2.80418 12.3578L1.78387 13.3781C1.76061 13.4016 1.74756 13.4333 1.74756 13.4664C1.74756 13.4995 1.76061 13.5312 1.78387 13.5547L2.44481 14.2156C2.49325 14.2641 2.57293 14.2641 2.62137 14.2156L6.58387 10.2531C7.41801 10.9001 8.44386 11.2509 9.4995 11.25C12.1229 11.25 14.2495 9.12344 14.2495 6.5C14.2495 3.87656 12.1229 1.75 9.4995 1.75ZM12.0182 9.01875C11.3464 9.69219 10.4511 10.0625 9.4995 10.0625C8.54793 10.0625 7.65262 9.69219 6.98075 9.01875C6.30731 8.34688 5.937 7.45156 5.937 6.5C5.937 5.54844 6.30731 4.65313 6.98075 3.98125C7.65262 3.30781 8.54793 2.9375 9.4995 2.9375C10.4511 2.9375 11.3464 3.30781 12.0182 3.98125C12.6917 4.65313 13.062 5.54844 13.062 6.5C13.062 7.45156 12.6917 8.34688 12.0182 9.01875Z" fill="white"/>
</svg>
