<svg width="23" height="23" viewBox="0 0 23 23" fill="none" xmlns="http://www.w3.org/2000/svg">
<path d="M13.6554 2.51562C9.88418 2.51562 6.82725 5.57256 6.82725 9.34375C6.82725 10.9228 7.36406 12.376 8.2625 13.5327L7.33936 14.4559L5.94004 13.0565C5.90583 13.0231 5.85987 13.0043 5.81201 13.0043C5.76415 13.0043 5.71819 13.0231 5.68399 13.0565L4.79004 13.9505C4.75657 13.9847 4.73782 14.0307 4.73782 14.0785C4.73782 14.1264 4.75657 14.1723 4.79004 14.2065L6.18936 15.6059L5.18086 16.6144L3.78154 15.215C3.74734 15.1816 3.70138 15.1628 3.65352 15.1628C3.60566 15.1628 3.5597 15.1816 3.52549 15.215L2.63154 16.109C2.59807 16.1432 2.57933 16.1892 2.57933 16.237C2.57933 16.2849 2.59807 16.3308 2.63154 16.365L4.03086 17.7644L2.56416 19.2311C2.53072 19.2648 2.51196 19.3104 2.51196 19.358C2.51196 19.4055 2.53072 19.4511 2.56416 19.4849L3.51426 20.435C3.58389 20.5046 3.69844 20.5046 3.76807 20.435L9.46416 14.7389C10.6632 15.6689 12.1379 16.1731 13.6554 16.1719C17.4266 16.1719 20.4835 13.1149 20.4835 9.34375C20.4835 5.57256 17.4266 2.51562 13.6554 2.51562ZM17.2761 12.9645C16.3103 13.9325 15.0232 14.4648 13.6554 14.4648C12.2875 14.4648 11.0005 13.9325 10.0347 12.9645C9.0666 11.9986 8.53428 10.7116 8.53428 9.34375C8.53428 7.97588 9.0666 6.68887 10.0347 5.72305C11.0005 4.75498 12.2875 4.22266 13.6554 4.22266C15.0232 4.22266 16.3103 4.75498 17.2761 5.72305C18.2441 6.68887 18.7765 7.97588 18.7765 9.34375C18.7765 10.7116 18.2441 11.9986 17.2761 12.9645Z" fill="#EAAE14"/>
</svg>
