<svg width="16" height="17" viewBox="0 0 16 17" fill="none" xmlns="http://www.w3.org/2000/svg">
<path d="M6.28731 11.8234L5.63931 12.4674C5.36784 12.7346 5.00221 12.8843 4.62131 12.8843C4.2404 12.8843 3.87477 12.7346 3.60331 12.4674C3.47095 12.3363 3.36589 12.1803 3.29418 12.0084C3.22248 11.8365 3.18556 11.6521 3.18556 11.4658C3.18556 11.2795 3.22248 11.0951 3.29418 10.9232C3.36589 10.7512 3.47095 10.5952 3.60331 10.4642L5.98731 8.10018C6.48091 7.60978 7.41051 6.88818 8.08811 7.56018C8.16103 7.63793 8.24886 7.7002 8.34638 7.74326C8.44389 7.78633 8.54908 7.8093 8.65566 7.81082C8.76225 7.81234 8.86805 7.79237 8.96675 7.75211C9.06545 7.71184 9.15503 7.6521 9.23013 7.57646C9.30524 7.50082 9.36434 7.41082 9.4039 7.31183C9.44346 7.21285 9.46267 7.10691 9.46039 7.00033C9.45811 6.89376 9.43439 6.78874 9.39063 6.69154C9.34687 6.59433 9.28398 6.50694 9.20571 6.43458C8.05531 5.29218 6.35291 5.50338 4.87051 6.97458L2.48651 9.33938C2.20482 9.61709 1.98134 9.94819 1.82914 10.3133C1.67694 10.6784 1.59908 11.0702 1.60011 11.4658C1.59912 11.8613 1.67701 12.2531 1.82921 12.6182C1.9814 12.9833 2.20486 13.3144 2.48651 13.5922C3.05426 14.1553 3.82202 14.4706 4.62171 14.469C5.39531 14.469 6.16891 14.177 6.75691 13.5922L7.40571 12.9482C7.4797 12.875 7.53851 12.7879 7.57877 12.692C7.61903 12.596 7.63995 12.4931 7.64032 12.389C7.64069 12.285 7.62051 12.1818 7.58093 12.0856C7.54136 11.9894 7.48317 11.9019 7.40971 11.8282C7.2612 11.6793 7.0598 11.5952 6.8495 11.5943C6.6392 11.5934 6.43708 11.6757 6.28731 11.8234V11.8234ZM13.5129 2.63618C12.2753 1.40898 10.5457 1.34258 9.40171 2.47858L8.59451 3.28018C8.44535 3.42828 8.36113 3.62956 8.36038 3.83975C8.35963 4.04994 8.44241 4.25182 8.59051 4.40098C8.7386 4.55014 8.93989 4.63435 9.15008 4.6351C9.36027 4.63585 9.56215 4.55308 9.71131 4.40498L10.5193 3.60418C11.1113 3.01538 11.8881 3.25938 12.3961 3.76178C12.6649 4.02978 12.8137 4.38498 12.8137 4.76338C12.8137 5.14178 12.6649 5.49698 12.3961 5.76418L9.85211 8.28738C8.68891 9.44018 8.14331 8.90018 7.91051 8.66898C7.83665 8.59565 7.74908 8.53758 7.65278 8.4981C7.55649 8.45861 7.45336 8.43848 7.34928 8.43885C7.2452 8.43923 7.14222 8.46009 7.04621 8.50026C6.9502 8.54044 6.86304 8.59912 6.78971 8.67298C6.71638 8.74684 6.65831 8.83441 6.61883 8.93071C6.57934 9.027 6.55921 9.13013 6.55958 9.23421C6.55995 9.33828 6.58082 9.44127 6.62099 9.53728C6.66116 9.63329 6.71985 9.72045 6.79371 9.79378C7.32811 10.3234 7.93771 10.5858 8.57611 10.5858C9.35771 10.5858 10.1841 10.1922 10.9705 9.41218L13.5145 6.88978C13.7956 6.61165 14.0186 6.28046 14.1706 5.91543C14.3227 5.5504 14.4007 5.1588 14.4001 4.76338C14.4008 4.36767 14.3227 3.97578 14.1704 3.61056C14.0181 3.24534 13.7946 2.91411 13.5129 2.63618V2.63618Z" fill="white"/>
</svg>
