<svg width="17" height="16" viewBox="0 0 17 16" fill="none" xmlns="http://www.w3.org/2000/svg">
<path d="M3.12455 7.87813C3.14018 7.19531 3.2808 6.53281 3.54486 5.90938C3.81518 5.26875 4.20268 4.69531 4.69643 4.2C5.19018 3.70469 5.76518 3.31719 6.4058 3.04688C7.0683 2.76719 7.77143 2.625 8.49799 2.625C9.22455 2.625 9.92768 2.76719 10.5886 3.04688C11.2274 3.31663 11.8075 3.70831 12.2964 4.2C12.4511 4.35469 12.5964 4.51875 12.7308 4.69063L11.7902 5.425C11.7716 5.4394 11.7574 5.45875 11.7493 5.48085C11.7412 5.50294 11.7395 5.52687 11.7444 5.54988C11.7493 5.5729 11.7606 5.59406 11.777 5.61094C11.7934 5.62783 11.8142 5.63974 11.8371 5.64531L14.5824 6.31719C14.6605 6.33594 14.7371 6.27656 14.7371 6.19688L14.7496 3.37031C14.7496 3.26562 14.6292 3.20625 14.548 3.27187L13.6667 3.96094C12.4652 2.42344 10.5964 1.4375 8.49643 1.4375C4.91674 1.4375 2.00424 4.30625 1.93705 7.87187C1.93663 7.88855 1.93956 7.90514 1.94565 7.92067C1.95175 7.9362 1.96089 7.95035 1.97254 7.96229C1.98419 7.97423 1.99811 7.98372 2.01348 7.9902C2.02886 7.99667 2.04537 8.00001 2.06205 8H2.99955C3.0683 8 3.12299 7.94531 3.12455 7.87813ZM14.9371 8H13.9996C13.9308 8 13.8761 8.05469 13.8746 8.12187C13.8589 8.80469 13.7183 9.46719 13.4542 10.0906C13.1839 10.7312 12.7964 11.3063 12.3027 11.8C11.8043 12.3004 11.2118 12.6972 10.5594 12.9675C9.90688 13.2379 9.20736 13.3763 8.50111 13.375C7.7951 13.3763 7.09582 13.2378 6.44361 12.9675C5.7914 12.6972 5.19918 12.3004 4.70111 11.8C4.54643 11.6453 4.40111 11.4812 4.26674 11.3094L5.20736 10.575C5.22597 10.5606 5.24014 10.5412 5.24824 10.5192C5.25634 10.4971 5.25804 10.4731 5.25314 10.4501C5.24825 10.4271 5.23695 10.4059 5.22056 10.3891C5.20417 10.3722 5.18335 10.3603 5.16049 10.3547L2.41518 9.68281C2.33705 9.66406 2.26049 9.72344 2.26049 9.80313L2.24955 12.6313C2.24955 12.7359 2.36986 12.7953 2.45111 12.7297L3.33236 12.0406C4.53393 13.5766 6.40268 14.5625 8.50268 14.5625C12.0839 14.5625 14.9949 11.6922 15.0621 8.12813C15.0625 8.11145 15.0595 8.09486 15.0534 8.07933C15.0474 8.0638 15.0382 8.04965 15.0266 8.03771C15.0149 8.02577 15.001 8.01628 14.9856 8.0098C14.9702 8.00333 14.9537 7.99999 14.9371 8V8Z" fill="#262626"/>
</svg>
