<svg width="12" height="13" viewBox="0 0 12 13" fill="none" xmlns="http://www.w3.org/2000/svg">
<path d="M10.7499 5.7875H9.74053V2.4625C9.74053 1.41305 8.88998 0.5625 7.84053 0.5625H4.15928C3.10982 0.5625 2.25928 1.41305 2.25928 2.4625V5.7875H1.2499C0.987168 5.7875 0.774902 5.99977 0.774902 6.2625V11.9625C0.774902 12.2252 0.987168 12.4375 1.2499 12.4375H10.7499C11.0126 12.4375 11.2249 12.2252 11.2249 11.9625V6.2625C11.2249 5.99977 11.0126 5.7875 10.7499 5.7875ZM3.32803 2.4625C3.32803 2.00383 3.70061 1.63125 4.15928 1.63125H7.84053C8.2992 1.63125 8.67178 2.00383 8.67178 2.4625V5.7875H3.32803V2.4625ZM10.1562 11.3687H1.84365V6.85625H10.1562V11.3687ZM5.58428 9.30547V10.0922C5.58428 10.1575 5.63771 10.2109 5.70303 10.2109H6.29678C6.36209 10.2109 6.41553 10.1575 6.41553 10.0922V9.30547C6.53806 9.2175 6.62951 9.09292 6.67673 8.94966C6.72395 8.8064 6.7245 8.65185 6.67829 8.50826C6.63208 8.36467 6.54151 8.23945 6.4196 8.15062C6.29769 8.06178 6.15074 8.01392 5.9999 8.01392C5.84906 8.01392 5.70211 8.06178 5.58021 8.15062C5.4583 8.23945 5.36772 8.36467 5.32151 8.50826C5.27531 8.65185 5.27585 8.8064 5.32307 8.94966C5.37029 9.09292 5.46175 9.2175 5.58428 9.30547Z" fill="#292929"/>
</svg>
