<svg width="25" height="25" viewBox="0 0 25 25" fill="none" xmlns="http://www.w3.org/2000/svg">
<path d="M7.60742 10.2754C7.60742 10.5738 7.72595 10.8599 7.93693 11.0709C8.1479 11.2819 8.43405 11.4004 8.73242 11.4004C9.03079 11.4004 9.31694 11.2819 9.52792 11.0709C9.7389 10.8599 9.85742 10.5738 9.85742 10.2754C9.85742 9.97702 9.7389 9.69087 9.52792 9.4799C9.31694 9.26892 9.03079 9.15039 8.73242 9.15039C8.43405 9.15039 8.1479 9.26892 7.93693 9.4799C7.72595 9.69087 7.60742 9.97702 7.60742 10.2754ZM15.8574 10.2754C15.8574 10.5738 15.9759 10.8599 16.1869 11.0709C16.3979 11.2819 16.6841 11.4004 16.9824 11.4004C17.2808 11.4004 17.5669 11.2819 17.7779 11.0709C17.9889 10.8599 18.1074 10.5738 18.1074 10.2754C18.1074 9.97702 17.9889 9.69087 17.7779 9.4799C17.5669 9.26892 17.2808 9.15039 16.9824 9.15039C16.6841 9.15039 16.3979 9.26892 16.1869 9.4799C15.9759 9.69087 15.8574 9.97702 15.8574 10.2754ZM12.8574 1.9082C7.05898 1.9082 2.35742 6.60977 2.35742 12.4082C2.35742 18.2066 7.05898 22.9082 12.8574 22.9082C18.6559 22.9082 23.3574 18.2066 23.3574 12.4082C23.3574 6.60977 18.6559 1.9082 12.8574 1.9082ZM19.0215 18.5723C18.2199 19.3738 17.2871 20.002 16.2488 20.4426C15.1777 20.8973 14.0363 21.127 12.8574 21.127C11.6785 21.127 10.5371 20.8973 9.46367 20.4426C8.42696 20.0047 7.48527 19.3695 6.69102 18.5723C5.88945 17.7707 5.26133 16.8379 4.8207 15.7996C4.36836 14.7285 4.13867 13.5871 4.13867 12.4082C4.13867 11.2293 4.36836 10.0879 4.82305 9.01445C5.26088 7.97774 5.8961 7.03605 6.69336 6.2418C7.49492 5.44023 8.42773 4.81211 9.46602 4.37148C10.5371 3.91914 11.6785 3.68945 12.8574 3.68945C14.0363 3.68945 15.1777 3.91914 16.2512 4.37383C17.2879 4.81166 18.2296 5.44688 19.0238 6.24414C19.8254 7.0457 20.4535 7.97852 20.8941 9.0168C21.3465 10.0879 21.5762 11.2293 21.5762 12.4082C21.5762 13.5871 21.3465 14.7285 20.8918 15.802C20.4545 16.8383 19.8192 17.7793 19.0215 18.5723ZM16.4199 13.6504H9.29492C9.1918 13.6504 9.10742 13.7348 9.10742 13.8379V14.9629C9.10742 15.066 9.1918 15.1504 9.29492 15.1504H16.4199C16.523 15.1504 16.6074 15.066 16.6074 14.9629V13.8379C16.6074 13.7348 16.523 13.6504 16.4199 13.6504Z" fill="#EA8814"/>
</svg>
