<svg width="24" height="24" viewBox="0 0 24 24" fill="none" xmlns="http://www.w3.org/2000/svg">
<path d="M19.769 17.2819C19.4784 15.5194 17.9128 14.2561 16.1292 14.3428C14.3456 14.4295 12.9112 15.8428 12.7964 17.624C9.19872 17.5115 7.92138 16.6701 8.12997 14.9592C8.20732 14.3193 8.59404 13.9772 9.30419 13.8108C9.73544 13.71 10.2136 13.6959 10.6472 13.7358C10.687 13.7404 10.7292 13.7428 10.769 13.7475C11.0339 13.8108 11.3034 13.8647 11.5729 13.9069C12.3722 14.0381 13.1854 14.1037 13.9589 14.0615C16.1339 13.9443 17.6151 12.9858 17.6901 10.9514C17.7628 8.98029 16.4081 7.58341 14.2237 6.64826C13.5229 6.34826 12.78 6.11622 12.037 5.94044C11.7018 5.86076 11.4206 5.80685 11.212 5.77169C11.0268 3.99279 9.53622 2.63576 7.74794 2.62169C5.95966 2.60763 4.4456 3.93654 4.22997 5.7131C4.01435 7.48966 5.16747 9.14201 6.90654 9.55451C8.6456 9.96701 10.4198 9.00841 11.0245 7.3256C11.2448 7.36544 11.4628 7.40997 11.6808 7.46154C12.3417 7.61622 13.0026 7.82247 13.612 8.08497C15.269 8.79279 16.1737 9.72794 16.1315 10.8951C16.094 11.9404 15.344 12.4233 13.8768 12.5029C13.2323 12.5381 12.5268 12.4818 11.8308 12.367C11.6362 12.3342 11.4581 12.3014 11.3011 12.2662C11.2097 12.2475 11.1464 12.2311 11.1183 12.224L11.0456 12.21C10.994 12.2029 10.9073 12.1912 10.7948 12.1795C10.2089 12.1256 9.57372 12.1443 8.95497 12.2873C7.66122 12.5897 6.75419 13.3936 6.58544 14.767C6.21747 17.7248 8.42763 19.0959 13.0542 19.1944C13.7362 20.8444 15.5479 21.7233 17.2636 21.2334C18.9815 20.7436 20.0597 19.0444 19.769 17.2819V17.2819ZM7.71279 8.08966C6.63466 8.08966 5.76044 7.21544 5.76044 6.13732C5.76044 5.05919 6.63466 4.18497 7.71279 4.18497C8.79091 4.18497 9.66513 5.05919 9.66513 6.13732C9.66513 7.21544 8.79091 8.08966 7.71279 8.08966ZM16.3026 19.8037C15.2245 19.8037 14.3503 18.9295 14.3503 17.8514C14.3503 16.7733 15.2245 15.899 16.3026 15.899C17.3808 15.899 18.255 16.7733 18.255 17.8514C18.255 18.9295 17.3808 19.8037 16.3026 19.8037Z" fill="#616161"/>
</svg>
