<svg width="21" height="17" viewBox="0 0 21 17" fill="none" xmlns="http://www.w3.org/2000/svg">
<g clip-path="url(#clip0_381_494)">
<path d="M3.71649 9.125C4.17349 9.125 4.63149 9.105 5.08649 9.125C5.81449 9.166 6.78647 8.93299 6.94647 9.95599C7.10647 10.998 6.16947 10.867 5.51947 10.906C4.61947 10.961 4.67247 11.606 4.66547 12.213C4.65447 13.202 4.66548 14.191 4.65448 15.18C4.64348 15.872 4.64349 16.729 3.71149 16.685C2.77949 16.641 2.90148 15.757 2.87848 15.085C2.86348 14.629 2.89855 14.17 2.87055 13.716C2.79055 12.416 3.48446 10.64 1.03046 10.801C0.630458 10.827 0.38546 10.425 0.45746 9.98499C0.483277 9.79349 0.572001 9.61601 0.709535 9.48029C0.847069 9.34456 1.02565 9.25826 1.21747 9.23499C2.04447 9.13499 2.88147 9.12699 3.71747 9.08099L3.71649 9.125Z" fill="black"/>
<path d="M17.3716 10.884C17.754 10.8605 18.1376 10.8639 18.5196 10.894C19.2066 10.994 20.2426 10.505 20.3996 11.624C20.5356 12.592 19.6215 12.543 18.9575 12.68C17.5215 12.98 18.2705 14.143 18.1195 14.931C17.9825 15.64 18.2805 16.707 17.1935 16.674C16.1385 16.643 16.3226 15.589 16.3376 14.861C16.3606 13.672 16.4766 12.518 14.7226 12.534C14.6053 12.5299 14.4905 12.4991 14.387 12.4438C14.2835 12.3886 14.194 12.3104 14.1253 12.2153C14.0566 12.1201 14.0105 12.0106 13.9906 11.8949C13.9708 11.7793 13.9775 11.6606 14.0105 11.548C14.1175 10.999 14.5916 10.897 15.0746 10.893C15.8406 10.886 16.6075 10.893 17.3745 10.893L17.3716 10.884Z" fill="black"/>
<path d="M10.3255 5.83299C9.86652 5.83299 9.40659 5.84299 8.94759 5.83299C8.27759 5.81399 7.37855 5.99397 7.23555 5.11497C7.07955 4.15797 7.94754 4.09697 8.64754 4.07597C10.0175 4.03297 9.61659 3.00396 9.71859 2.23496C9.82059 1.46596 9.3366 0.176969 10.4366 0.114969C11.6446 0.0479687 11.2576 1.354 11.2456 2.098C11.2276 3.298 11.3145 4.23596 12.8925 4.13596C13.0085 4.12418 13.1256 4.13787 13.2357 4.17606C13.3458 4.21426 13.4461 4.27604 13.5299 4.3571C13.6136 4.43815 13.6787 4.53651 13.7204 4.6453C13.7622 4.7541 13.7796 4.87073 13.7716 4.98698C13.7276 5.66198 13.2045 5.81999 12.6235 5.82499C11.8575 5.83099 11.0926 5.82499 10.3236 5.82499L10.3255 5.83299Z" fill="black"/>
<path d="M18.1025 4.62402C18.1025 5.69702 18.1125 6.77001 18.1025 7.84301C18.0975 8.39701 18.0455 8.97 17.3115 9.005C16.6175 9.039 16.3574 8.53403 16.3494 7.96203C16.3194 5.66336 16.3172 3.36334 16.3425 1.06201C16.3475 0.485006 16.6094 -0.0480104 17.2764 -0.0050104C17.9434 0.0379896 18.0915 0.595015 18.0965 1.17102C18.1075 2.32902 18.1025 3.47902 18.1025 4.62402Z" fill="black"/>
<path d="M2.86863 3.36101C3.30163 2.39001 1.98164 0.189996 3.82664 0.160996C5.38064 0.138996 4.44564 2.28202 4.64964 3.44902C4.73053 4.20391 4.73651 4.96492 4.66758 5.72099C4.64658 6.45999 4.78566 7.44601 3.69566 7.42101C2.78266 7.39601 2.88356 6.49403 2.87156 5.82103C2.85956 5.06303 2.86863 4.30301 2.86863 3.36101Z" fill="black"/>
<path d="M9.73348 12.121C9.73348 10.97 9.72046 9.82101 9.73946 8.66901C9.74746 8.18301 9.90851 7.71102 10.4925 7.71302C11.0765 7.71502 11.2405 8.18798 11.2425 8.67298C11.2525 11.051 11.2485 13.4286 11.2305 15.806C11.2502 16.0008 11.1959 16.1959 11.0784 16.3526C10.961 16.5093 10.789 16.6161 10.5965 16.652C10.0245 16.724 9.77445 16.286 9.76045 15.801C9.72545 14.575 9.74947 13.348 9.74947 12.12L9.73348 12.121Z" fill="black"/>
</g>
<defs>
<clipPath id="clip0_381_494">
<rect width="19.967" height="16.696" fill="white" transform="translate(0.446533)"/>
</clipPath>
</defs>
</svg>
