<svg width="200" height="225" viewBox="0 0 200 225" fill="none" xmlns="http://www.w3.org/2000/svg">
<g clip-path="url(#clip0_17793_66118)">
<path d="M113.381 173.237C161.219 173.237 200 134.457 200 86.6187C200 38.7805 161.219 0 113.381 0C65.5427 0 26.7622 38.7805 26.7622 86.6187C26.7622 134.457 65.5427 173.237 113.381 173.237Z" fill="#F2F2F2"/>
<path d="M169.985 38.7357H11.3116C10.9713 38.7285 10.7014 38.4467 10.7086 38.1065C10.7157 37.7765 10.9815 37.5106 11.3116 37.5036H169.985C170.325 37.5108 170.595 37.7926 170.588 38.1328C170.581 38.4628 170.315 38.7287 169.985 38.7357Z" fill="#CACACA"/>
<path d="M115.91 59.4984H72.0461C68.7514 59.4984 66.0806 62.1692 66.0806 65.4638V65.4639C66.0806 68.7585 68.7514 71.4294 72.0461 71.4294H115.91C119.204 71.4294 121.875 68.7585 121.875 65.4638C121.875 62.1692 119.204 59.4984 115.91 59.4984Z" fill="white"/>
<path d="M43.7096 83.3604H144.245C147.54 83.3604 150.211 86.0312 150.211 89.3259C150.211 92.6205 147.54 95.2914 144.245 95.2914H43.7096C40.415 95.2914 37.7441 92.6205 37.7441 89.3259C37.7441 86.0312 40.415 83.3604 43.7096 83.3604Z" fill="white"/>
<path d="M43.7096 107.222H144.245C147.54 107.222 150.211 109.893 150.211 113.188C150.211 116.483 147.54 119.153 144.245 119.153H43.7096C40.415 119.153 37.7441 116.483 37.7441 113.188C37.7441 109.893 40.415 107.222 43.7096 107.222Z" fill="white"/>
<path d="M31.2511 224.308L31.0145 224.285C22.9867 223.457 15.7296 219.139 11.1712 212.479C9.92259 210.624 8.91262 208.618 8.16511 206.51L8.09326 206.309L8.30597 206.292C10.8455 206.088 13.4544 205.657 14.6134 205.452L7.14007 202.919L7.09386 202.698C6.65079 200.616 7.51881 198.474 9.2861 197.289C11.0582 196.046 13.4081 196.006 15.2212 197.188C16.0349 197.708 16.8859 198.223 17.7089 198.72C20.537 200.431 23.4615 202.2 25.654 204.621C28.9788 208.364 30.4361 213.408 29.6201 218.348L31.2511 224.308Z" fill="#F2F2F2"/>
<path d="M58.4165 220.592L62.0996 220.591L63.852 206.384L58.4155 206.384L58.4165 220.592Z" fill="#A0616A"/>
<path d="M58.2863 224.434L69.613 224.433V224.29C69.6129 221.855 67.6391 219.882 65.2043 219.882L63.1351 218.312L59.2749 219.882L58.2861 219.882L58.2863 224.434Z" fill="#2F2E41"/>
<path d="M28.8979 210.39L31.844 212.6L41.7721 202.287L37.4234 199.025L28.8979 210.39Z" fill="#A0616A"/>
<path d="M26.4883 213.385L35.5488 220.182L35.6348 220.068C37.0958 218.12 36.7015 215.357 34.754 213.896L34.0408 211.398L30.0108 210.337L29.2199 209.744L26.4883 213.385Z" fill="#2F2E41"/>
<path d="M41.1418 153.92C41.1418 153.92 41.3451 159.466 41.6015 163.914C41.6436 164.643 39.9346 165.436 39.9788 166.229C40.0082 166.756 40.3294 167.268 40.3593 167.817C40.3908 168.396 39.9473 168.909 39.9788 169.508C40.0097 170.094 40.5157 170.765 40.5462 171.364C40.8747 177.813 42.0653 185.532 40.873 187.69C40.2855 188.754 32.7959 203.488 32.7959 203.488C32.7959 203.488 36.9688 209.747 38.1611 207.661C39.7358 204.905 51.8721 192.012 51.8721 189.55C51.8721 187.091 54.6799 168.662 54.6799 168.662L56.6377 179.568L57.5354 181.729L57.2533 182.997L57.8334 184.71L57.8648 186.404L58.4296 189.55C58.4296 189.55 56.7306 214.063 57.6874 214.746C58.6472 215.431 63.294 216.662 63.8425 215.431C64.3879 214.2 67.9384 189.848 67.9384 189.848C67.9384 189.848 68.5106 178.689 69.1306 168.316C69.1664 167.714 69.5897 166.987 69.6225 166.393C69.6612 165.705 69.393 164.811 69.4287 164.143C69.4674 163.377 69.8072 162.837 69.84 162.104C70.0934 156.438 68.6711 149.538 68.2181 148.858C66.8499 146.808 65.6189 145.168 65.6189 145.168C65.6189 145.168 47.1918 139.114 42.2678 145.266L41.1418 153.92Z" fill="#2F2E41"/>
<path d="M59.5203 96.8846L52.2154 95.4236L48.8064 100.05C42.4455 106.305 42.3497 111.825 43.4853 120.673V133.091L42.6634 141.416C42.6634 141.416 39.754 147.502 42.7548 148.918C45.7555 150.335 65.4661 150.215 67.348 149.649C69.2299 149.083 67.5987 148.389 67.1045 145.753C66.1762 140.802 66.7971 143.19 66.861 141.614C67.7769 118.999 65.6435 109.715 65.4269 107.275L61.7118 100.537L59.5203 96.8846Z" fill="#3F3D56"/>
<path d="M98.0217 115.118C97.2604 116.56 95.4738 117.113 94.0313 116.351C93.8775 116.27 93.7312 116.176 93.594 116.069L77.8184 126.085L77.8638 120.632L93.1887 111.738C94.2802 110.515 96.1573 110.407 97.3811 111.499C98.4052 112.412 98.6701 113.909 98.0217 115.118Z" fill="#A0616A"/>
<path d="M53.7526 103.2L51.9565 103.01C50.297 102.838 48.6688 103.549 47.6667 104.883C47.2829 105.389 47.0072 105.968 46.8568 106.585L46.8557 106.59C46.4052 108.447 47.1118 110.393 48.6488 111.528L54.8521 116.102C59.2053 121.984 67.3867 125.886 76.9836 129.057L91.9007 119.792L86.6245 113.402L76.3928 118.886L61.1839 107.113L61.1752 107.106L55.3866 103.376L53.7526 103.2Z" fill="#3F3D56"/>
<path d="M57.0523 93.2975C61.7569 93.2975 65.5708 89.4837 65.5708 84.779C65.5708 80.0743 61.7569 76.2604 57.0523 76.2604C52.3476 76.2604 48.5337 80.0743 48.5337 84.779C48.5337 89.4837 52.3476 93.2975 57.0523 93.2975Z" fill="#A0616A"/>
<path d="M57.2489 93.2994C57.1802 93.3016 57.1114 93.3032 57.0426 93.305C57.0132 93.3814 56.9815 93.4571 56.9448 93.5313L57.2489 93.2994Z" fill="#2F2E41"/>
<path d="M59.5869 85.0153C59.6003 85.0992 59.6207 85.1819 59.648 85.2624C59.6367 85.178 59.6163 85.0952 59.5869 85.0153Z" fill="#2F2E41"/>
<path d="M65.6792 76.6249C65.3286 77.7136 65.0156 76.3326 63.8622 76.581C62.4746 76.8798 60.8599 76.7772 59.7236 75.9266C58.0305 74.6844 55.8364 74.35 53.8502 75.0314C51.9058 75.7193 48.6484 76.2043 48.1418 78.2035C47.9657 78.8984 47.8958 79.6526 47.4689 80.2285C47.0957 80.7321 46.5067 81.0192 46.0141 81.4068C44.3509 82.7154 45.6221 86.4333 46.4093 88.3978C47.1965 90.3623 49.0022 91.7934 50.9875 92.5264C52.9084 93.2357 54.9933 93.3608 57.0424 93.305C57.3989 92.3807 57.2449 91.313 56.9508 90.3548C56.6324 89.3174 56.161 88.3162 56.028 87.2392C55.895 86.1623 56.1871 84.939 57.0901 84.3372C57.9201 83.7841 59.2708 84.121 59.5866 85.0153C59.4023 83.8973 60.5348 82.8154 61.7026 82.6252C62.9564 82.4209 64.2101 82.8735 65.4602 83.0988C66.7104 83.3241 66.2667 78.061 65.6792 76.6249Z" fill="#2F2E41"/>
<path d="M113.322 98.8704C114.116 89.2753 106.981 80.8532 97.3859 80.0591C87.7908 79.265 79.3687 86.3996 78.5746 95.9947C77.7805 105.59 84.9151 114.012 94.5102 114.806C104.105 115.6 112.527 108.466 113.322 98.8704Z" fill="#009999"/>
<path d="M100.527 90.1688L95.9481 94.7481L91.3688 90.1688C90.6275 89.4276 89.4256 89.4276 88.6844 90.1688C87.9431 90.9101 87.9431 92.112 88.6844 92.8533L93.2637 97.4326L88.6844 102.012C87.9438 102.754 87.9449 103.956 88.6869 104.696C89.4279 105.436 90.6278 105.436 91.3688 104.696L95.9481 100.117L100.527 104.696C101.269 105.437 102.471 105.436 103.212 104.694C103.951 103.953 103.951 102.753 103.212 102.012L98.6325 97.4326L103.212 92.8533C103.953 92.112 103.953 90.9101 103.212 90.1688C102.471 89.4276 101.269 89.4276 100.527 90.1688Z" fill="white"/>
<path d="M89.0786 82.7801C89.5925 84.3282 88.7541 85.9997 87.2061 86.5136C87.0411 86.5684 86.8715 86.6085 86.6994 86.6334L83.006 104.952L79.1021 101.143L83.2941 83.9281C83.1667 82.2931 84.3888 80.8644 86.0238 80.737C87.3918 80.6304 88.6548 81.475 89.0786 82.7801Z" fill="#A0616A"/>
<path d="M49.8311 106.474L48.4504 107.639C47.1773 108.717 46.5629 110.384 46.8317 112.031C46.931 112.658 47.1583 113.258 47.4994 113.794L47.5022 113.798C48.5303 115.408 50.4238 116.246 52.3071 115.923L59.9018 114.613C67.1602 115.544 75.6403 112.341 84.5721 107.611L88.2141 90.4332L79.9502 89.8166L76.8237 100.996L57.7989 103.82L57.7877 103.822L51.0891 105.417L49.8311 106.474Z" fill="#3F3D56"/>
<path d="M93.0765 224.728L0.404733 224.833C0.180483 224.832 -0.000724193 224.65 2.17613e-06 224.425C0.000721725 224.202 0.181502 224.021 0.404733 224.021L93.0765 223.916C93.3007 223.917 93.4819 224.099 93.4812 224.323C93.4805 224.546 93.2997 224.727 93.0765 224.728Z" fill="#CACACA"/>
<path d="M19.3619 30.9315C20.9546 30.9315 22.2457 29.6116 22.2457 27.9834C22.2457 26.3552 20.9546 25.0353 19.3619 25.0353C17.7692 25.0353 16.478 26.3552 16.478 27.9834C16.478 29.6116 17.7692 30.9315 19.3619 30.9315Z" fill="#3F3D56"/>
<path d="M29.3243 30.9315C30.917 30.9315 32.2082 29.6116 32.2082 27.9834C32.2082 26.3552 30.917 25.0353 29.3243 25.0353C27.7316 25.0353 26.4404 26.3552 26.4404 27.9834C26.4404 29.6116 27.7316 30.9315 29.3243 30.9315Z" fill="#3F3D56"/>
<path d="M39.2867 30.9315C40.8794 30.9315 42.1706 29.6116 42.1706 27.9834C42.1706 26.3552 40.8794 25.0353 39.2867 25.0353C37.694 25.0353 36.4028 26.3552 36.4028 27.9834C36.4028 29.6116 37.694 30.9315 39.2867 30.9315Z" fill="#3F3D56"/>
<path d="M50.6463 30.3135C50.5577 30.3135 50.4693 30.2792 50.4025 30.2109L48.4567 28.2218C48.3269 28.0892 48.3269 27.8774 48.4567 27.7449L50.4025 25.7559C50.5346 25.6213 50.7507 25.6192 50.8848 25.7505C51.0195 25.8823 51.0218 26.0982 50.8901 26.2328L49.1775 27.9833L50.8901 29.734C51.0218 29.8686 51.0195 30.0845 50.8848 30.2163C50.8185 30.2812 50.7324 30.3135 50.6463 30.3135Z" fill="#3F3D56"/>
<path d="M53.9162 30.3135C53.8302 30.3135 53.7441 30.2812 53.6778 30.2163C53.5431 30.0846 53.5407 29.8688 53.6725 29.734L55.3849 27.9833L53.6725 26.2328C53.5408 26.0982 53.5431 25.8823 53.6778 25.7506C53.8122 25.6187 54.0283 25.6212 54.16 25.7559L56.1057 27.7449C56.2354 27.8774 56.2354 28.0892 56.1057 28.2218L54.16 30.2109C54.0932 30.2792 54.0048 30.3135 53.9162 30.3135Z" fill="#3F3D56"/>
<path d="M155.714 25.3766H152.095C151.683 25.3766 151.349 25.7108 151.349 26.1234V29.745C151.349 30.1577 151.683 30.4919 152.095 30.4919H155.714C156.126 30.4919 156.464 30.1577 156.464 29.745V26.1234C156.464 25.7108 156.126 25.3766 155.714 25.3766Z" fill="#3F3D56"/>
<path d="M146.847 25.3766H143.229C142.816 25.3766 142.482 25.7108 142.482 26.1234V29.745C142.482 30.1577 142.816 30.4919 143.229 30.4919H146.847C147.26 30.4919 147.597 30.1577 147.597 29.745V26.1234C147.597 25.7108 147.26 25.3766 146.847 25.3766Z" fill="#3F3D56"/>
<path d="M164.069 25.5471H160.45C160.038 25.5471 159.704 25.8813 159.704 26.2939V29.9155C159.704 30.3282 160.038 30.6624 160.45 30.6624H164.069C164.481 30.6624 164.819 30.3282 164.819 29.9155V26.2939C164.819 25.8813 164.481 25.5471 164.069 25.5471Z" fill="#3F3D56"/>
<path d="M109.532 26.9248H80.6107C80.106 26.9248 79.7002 27.334 79.7002 27.8353C79.7002 28.3366 80.106 28.7458 80.6107 28.7458H109.532C110.034 28.7458 110.443 28.3366 110.443 27.8353C110.443 27.3341 110.034 26.9248 109.532 26.9248Z" fill="#3F3D56"/>
</g>
<defs>
<clipPath id="clip0_17793_66118">
<rect width="200" height="224.833" fill="white"/>
</clipPath>
</defs>
</svg>
