<svg width="18" height="18" viewBox="0 0 18 18" fill="none" xmlns="http://www.w3.org/2000/svg">
<path d="M14.3879 5.85352L12.1642 3.62827C10.6439 2.10577 9.88416 1.34602 9.06741 1.52602C8.25141 1.70602 7.88166 2.71627 7.14141 4.73602L6.64041 6.10326C6.44316 6.64176 6.34416 6.91102 6.16641 7.11951C6.08676 7.21308 5.9961 7.29669 5.89641 7.36852C5.67441 7.52826 5.39841 7.60401 4.84641 7.75626C3.60141 8.09976 2.97816 8.27151 2.74341 8.67876C2.64186 8.85501 2.58905 9.05511 2.59041 9.25851C2.59341 9.72876 3.05016 10.1855 3.96291 11.0998L5.02491 12.1618L1.66791 15.5218C1.56561 15.6302 1.50961 15.7742 1.51178 15.9233C1.51395 16.0724 1.57413 16.2147 1.67955 16.3201C1.78496 16.4255 1.92731 16.4857 2.07637 16.4879C2.22543 16.4901 2.36947 16.4341 2.47791 16.3318L5.83416 12.9718L6.93366 14.0728C7.85316 14.9923 8.31291 15.4528 8.78616 15.4528C8.98491 15.4528 9.18066 15.4018 9.35391 15.3028C9.76491 15.068 9.93741 14.441 10.2832 13.1863C10.4347 12.635 10.5104 12.3598 10.6694 12.137C10.7392 12.0403 10.8202 11.9518 10.9109 11.873C11.1172 11.6945 11.3849 11.594 11.9197 11.393L13.3027 10.8733C15.3007 10.1233 16.2997 9.74751 16.4752 8.93376C16.6514 8.11926 15.8977 7.36401 14.3879 5.85352Z" fill="#099"/>
</svg>
