<svg width="21" height="21" viewBox="0 0 21 21" fill="none" xmlns="http://www.w3.org/2000/svg">
<path d="M8.25194 15.4256L7.40144 16.2708C7.04514 16.6215 6.56525 16.8181 6.06531 16.8181C5.56538 16.8181 5.08548 16.6215 4.72919 16.2708C4.55547 16.0988 4.41757 15.894 4.32346 15.6684C4.22935 15.4427 4.18089 15.2007 4.18089 14.9562C4.18089 14.7117 4.22935 14.4697 4.32346 14.244C4.41757 14.0184 4.55547 13.8136 4.72919 13.6416L7.85819 10.5388C8.50604 9.8952 9.72614 8.9481 10.6155 9.8301C10.7112 9.93215 10.8265 10.0139 10.9545 10.0704C11.0824 10.1269 11.2205 10.1571 11.3604 10.1591C11.5003 10.1611 11.6392 10.1349 11.7687 10.082C11.8982 10.0292 12.0158 9.95075 12.1144 9.85147C12.213 9.75218 12.2905 9.63406 12.3425 9.50414C12.3944 9.37423 12.4196 9.23518 12.4166 9.0953C12.4136 8.95542 12.3825 8.81758 12.325 8.69001C12.2676 8.56243 12.1851 8.44773 12.0823 8.35275C10.5724 6.85335 8.33804 7.13055 6.39239 9.0615L3.26339 12.1653C2.89368 12.5298 2.60036 12.9644 2.4006 13.4436C2.20084 13.9228 2.09864 14.437 2.09999 14.9562C2.0987 15.4754 2.20092 15.9896 2.40068 16.4688C2.60044 16.948 2.89372 17.3826 3.26339 17.7471C4.00857 18.4863 5.01625 18.9 6.06584 18.8979C7.08119 18.8979 8.09654 18.5147 8.86829 17.7471L9.71984 16.9019C9.81695 16.8058 9.89414 16.6915 9.94698 16.5656C9.99982 16.4397 10.0273 16.3045 10.0278 16.1679C10.0283 16.0314 10.0018 15.896 9.94982 15.7697C9.89788 15.6434 9.82151 15.5286 9.72509 15.4318C9.53017 15.2364 9.26583 15.126 8.98981 15.1249C8.71379 15.1237 8.44852 15.2318 8.25194 15.4256V15.4256ZM17.7355 3.36735C16.1112 1.75665 13.8411 1.6695 12.3396 3.1605L11.2801 4.2126C11.0844 4.40698 10.9738 4.67116 10.9728 4.94704C10.9719 5.22291 11.0805 5.48788 11.2749 5.68365C11.4693 5.87942 11.7335 5.98995 12.0093 5.99094C12.2852 5.99192 12.5502 5.88328 12.7459 5.6889L13.8064 4.63785C14.5834 3.86505 15.603 4.1853 16.2697 4.8447C16.6225 5.19645 16.8178 5.66265 16.8178 6.1593C16.8178 6.65595 16.6225 7.12215 16.2697 7.47285L12.9307 10.7846C11.404 12.2976 10.6879 11.5889 10.3824 11.2854C10.2855 11.1892 10.1705 11.1129 10.0441 11.0611C9.91773 11.0093 9.78238 10.9829 9.64578 10.9834C9.50918 10.9838 9.37401 11.0112 9.248 11.064C9.12198 11.1167 9.00758 11.1937 8.91134 11.2907C8.81509 11.3876 8.73888 11.5025 8.68706 11.6289C8.63523 11.7553 8.60881 11.8907 8.6093 12.0273C8.60979 12.1639 8.63717 12.299 8.6899 12.425C8.74262 12.5511 8.81965 12.6655 8.91659 12.7617C9.61799 13.4568 10.4181 13.8012 11.256 13.8012C12.2818 13.8012 13.3665 13.2846 14.3986 12.2609L17.7376 8.9502C18.1065 8.58515 18.3993 8.15046 18.5988 7.67136C18.7983 7.19226 18.9007 6.67829 18.9 6.1593C18.9009 5.63993 18.7984 5.12557 18.5985 4.64623C18.3986 4.16688 18.1052 3.73213 17.7355 3.36735V3.36735Z" fill="white"/>
</svg>
