<svg width="19" height="19" viewBox="0 0 19 19" fill="none" xmlns="http://www.w3.org/2000/svg">
<path d="M16.8678 3.8835L15.8213 4.70176C14.3944 2.87783 12.1753 1.70703 9.68339 1.70703C5.38056 1.70703 1.89785 5.18604 1.89228 9.49072C1.88671 13.7991 5.37685 17.293 9.68339 17.293C13.0474 17.293 15.9141 15.1592 17.0051 12.17C17.0329 12.0921 16.9921 12.0049 16.9142 11.9789L15.8621 11.6171C15.8254 11.6045 15.7853 11.6068 15.7503 11.6234C15.7152 11.6401 15.6881 11.6698 15.6747 11.7062C15.6413 11.7989 15.6042 11.8917 15.5652 11.9826C15.2442 12.7434 14.7841 13.4262 14.1977 14.0125C13.6162 14.5952 12.9275 15.0601 12.1697 15.3818C11.3849 15.714 10.548 15.8828 9.6871 15.8828C8.82431 15.8828 7.98935 15.714 7.20449 15.3818C6.44593 15.0615 5.75707 14.5964 5.17646 14.0125C4.59329 13.431 4.12883 12.7415 3.80898 11.9826C3.47685 11.1959 3.308 10.3609 3.308 9.49814C3.308 8.63535 3.47685 7.80039 3.80898 7.01367C4.12997 6.25293 4.59013 5.57012 5.17646 4.98379C5.76279 4.39746 6.4456 3.9373 7.20449 3.61445C7.98935 3.28232 8.82617 3.11348 9.6871 3.11348C10.5499 3.11348 11.3849 3.28232 12.1697 3.61445C12.9283 3.93479 13.6171 4.39991 14.1977 4.98379C14.3814 5.16748 14.554 5.3623 14.7136 5.56641L13.5966 6.43848C13.5745 6.45557 13.5576 6.47856 13.548 6.5048C13.5384 6.53103 13.5364 6.55945 13.5422 6.58678C13.548 6.61411 13.5614 6.63924 13.5809 6.65929C13.6004 6.67933 13.6251 6.69348 13.6522 6.7001L16.9104 7.49795C17.0032 7.52022 17.0941 7.44971 17.0941 7.35508L17.109 3.99854C17.1071 3.87607 16.9643 3.80742 16.8678 3.8835Z" fill="#B5B5B5"/>
</svg>
