<svg width="31" height="32" viewBox="0 0 31 32" fill="none" xmlns="http://www.w3.org/2000/svg">
<circle cx="15.1955" cy="15.9777" r="15.1955" fill="#616161"/>
<path d="M18.375 14.6364C18.375 14.5614 18.3142 14.5 18.24 14.5H11.76C11.6857 14.5 11.625 14.5614 11.625 14.6364V15.4545C11.625 15.5295 11.6857 15.5909 11.76 15.5909H18.24C18.3142 15.5909 18.375 15.5295 18.375 15.4545V14.6364ZM18.24 16.9545H11.76C11.6857 16.9545 11.625 17.0159 11.625 17.0909V17.9091C11.625 17.9841 11.6857 18.0455 11.76 18.0455H18.24C18.3142 18.0455 18.375 17.9841 18.375 17.9091V17.0909C18.375 17.0159 18.3142 16.9545 18.24 16.9545ZM18.24 19.4091H11.76C11.6857 19.4091 11.625 19.4705 11.625 19.5455V20.3636C11.625 20.4386 11.6857 20.5 11.76 20.5H18.24C18.3142 20.5 18.375 20.4386 18.375 20.3636V19.5455C18.375 19.4705 18.3142 19.4091 18.24 19.4091Z" fill="white"/>
<path fill-rule="evenodd" clip-rule="evenodd" d="M10.7747 8.5119C10.7747 8.09112 11.1207 7.75 11.5474 7.75H18.2848C18.7115 7.75 19.0575 8.09112 19.0575 8.5119V9.11128H20.8657C21.153 9.14538 21.375 9.38595 21.375 9.67857V23.6786C21.375 23.9946 21.116 24.25 20.7955 24.25L14.9469 24.2122L9.20455 24.25C8.88398 24.25 8.625 23.9946 8.625 23.6786V9.67857C8.625 9.38595 8.84697 9.14538 9.13428 9.11128H10.7747V8.5119ZM11.9338 10.6352V8.89286H17.8984V10.6352H11.9338ZM19.0575 10.3929V11.0162C19.0575 11.437 18.7115 11.7781 18.2848 11.7781H11.5474C11.1207 11.7781 10.7747 11.437 10.7747 11.0162V10.3929H9.92898V22.9643H20.071V10.3929H19.0575Z" fill="white"/>
</svg>
