<svg width="31" height="31" viewBox="0 0 31 31" fill="none" xmlns="http://www.w3.org/2000/svg">
<circle cx="15.3264" cy="15.7785" r="15.1955" fill="#EAAE14"/>
<path d="M15.5317 8.08301C11.3962 8.08301 8.03174 11.4475 8.03174 15.583C8.03174 19.7185 11.3962 23.083 15.5317 23.083C19.6672 23.083 23.0317 19.7185 23.0317 15.583C23.0317 11.4475 19.6672 8.08301 15.5317 8.08301ZM15.5317 21.583C12.2235 21.583 9.53174 18.8913 9.53174 15.583C9.53174 12.2748 12.2235 9.58301 15.5317 9.58301C18.84 9.58301 21.5317 12.2748 21.5317 15.583C21.5317 18.8913 18.84 21.583 15.5317 21.583Z" fill="white"/>
<path d="M15.5317 10.4575V15.583H20.6572C20.6589 14.9095 20.5275 14.2422 20.2705 13.6196C20.0135 12.997 19.636 12.4313 19.1598 11.955C18.6835 11.4787 18.1178 11.1013 17.4952 10.8443C16.8726 10.5873 16.2053 10.4559 15.5317 10.4575V10.4575Z" fill="white"/>
</svg>
