<svg width="17" height="16" viewBox="0 0 17 16" fill="none" xmlns="http://www.w3.org/2000/svg">
<path d="M14.4578 4.58281L11.9172 2.04219C11.8 1.925 11.6562 1.83906 11.5 1.79219V1.75H2.75C2.47344 1.75 2.25 1.97344 2.25 2.25V13.75C2.25 14.0266 2.47344 14.25 2.75 14.25H14.25C14.5266 14.25 14.75 14.0266 14.75 13.75V5.28906C14.75 5.02344 14.6453 4.77031 14.4578 4.58281ZM6.5 2.875H10.5V4.5H6.5V2.875ZM13.625 13.125H3.375V2.875H5.5V5C5.5 5.27656 5.72344 5.5 6 5.5H11C11.2766 5.5 11.5 5.27656 11.5 5V3.21563L13.625 5.34062V13.125ZM8.5 6.90625C7.25781 6.90625 6.25 7.91406 6.25 9.15625C6.25 10.3984 7.25781 11.4062 8.5 11.4062C9.74219 11.4062 10.75 10.3984 10.75 9.15625C10.75 7.91406 9.74219 6.90625 8.5 6.90625ZM8.5 10.4062C7.80937 10.4062 7.25 9.84688 7.25 9.15625C7.25 8.46562 7.80937 7.90625 8.5 7.90625C9.19063 7.90625 9.75 8.46562 9.75 9.15625C9.75 9.84688 9.19063 10.4062 8.5 10.4062Z" fill="#262626"/>
</svg>
