<svg width="31" height="32" viewBox="0 0 31 32" fill="none" xmlns="http://www.w3.org/2000/svg">
<circle cx="15.5317" cy="15.9299" r="15.1955" fill="#009999"/>
<path d="M10.6746 10.1172C10.6746 9.91828 10.5955 9.72751 10.4549 9.58686C10.3142 9.44621 10.1235 9.36719 9.92456 9.36719C9.72565 9.36719 9.53488 9.44621 9.39423 9.58686C9.25358 9.72751 9.17456 9.91828 9.17456 10.1172V20.6172C9.17456 21.1145 9.3721 21.5914 9.72374 21.943C10.0754 22.2946 10.5523 22.4922 11.0496 22.4922H21.5496C21.7485 22.4922 21.9392 22.4132 22.0799 22.2725C22.2205 22.1319 22.2996 21.9411 22.2996 21.7422C22.2996 21.5433 22.2205 21.3525 22.0799 21.2119C21.9392 21.0712 21.7485 20.9922 21.5496 20.9922H11.0496C10.9501 20.9922 10.8547 20.9527 10.7844 20.8824C10.7141 20.812 10.6746 20.7166 10.6746 20.6172V10.1172ZM17.2371 12.1797C17.2371 11.9808 17.3161 11.79 17.4567 11.6494C17.5974 11.5087 17.7881 11.4297 17.9871 11.4297H21.3636C21.5625 11.4297 21.7532 11.5087 21.8939 11.6494C22.0345 11.79 22.1136 11.9808 22.1136 12.1797L22.1121 15.5547C22.1121 15.7536 22.033 15.9444 21.8924 16.085C21.7517 16.2257 21.561 16.3047 21.3621 16.3047C21.1631 16.3047 20.9724 16.2257 20.8317 16.085C20.6911 15.9444 20.6121 15.7536 20.6121 15.5547V13.9902L17.2048 17.3974C17.0642 17.538 16.8734 17.617 16.6746 17.617C16.4757 17.617 16.285 17.538 16.1443 17.3974L14.7996 16.0527L12.8923 17.9599C12.7509 18.0966 12.5614 18.1722 12.3648 18.1704C12.1681 18.1687 11.98 18.0899 11.8409 17.9508C11.7019 17.8117 11.623 17.6236 11.6213 17.427C11.6196 17.2303 11.6952 17.0409 11.8318 16.8994L14.2693 14.4619C14.41 14.3213 14.6007 14.2423 14.7996 14.2423C14.9984 14.2423 15.1892 14.3213 15.3298 14.4619L16.6746 15.8067L19.5516 12.9297H17.9871C17.7881 12.9297 17.5974 12.8507 17.4567 12.71C17.3161 12.5694 17.2371 12.3786 17.2371 12.1797Z" fill="white"/>
</svg>
