<svg width="25" height="25" viewBox="0 0 25 25" fill="none" xmlns="http://www.w3.org/2000/svg">
<path d="M6.86914 10.7754C6.86914 11.0738 6.98767 11.3599 7.19865 11.5709C7.40962 11.7819 7.69577 11.9004 7.99414 11.9004C8.29251 11.9004 8.57866 11.7819 8.78964 11.5709C9.00061 11.3599 9.11914 11.0738 9.11914 10.7754C9.11914 10.477 9.00061 10.1909 8.78964 9.9799C8.57866 9.76892 8.29251 9.65039 7.99414 9.65039C7.69577 9.65039 7.40962 9.76892 7.19865 9.9799C6.98767 10.1909 6.86914 10.477 6.86914 10.7754ZM15.1191 10.7754C15.1191 11.0738 15.2377 11.3599 15.4486 11.5709C15.6596 11.7819 15.9458 11.9004 16.2441 11.9004C16.5425 11.9004 16.8287 11.7819 17.0396 11.5709C17.2506 11.3599 17.3691 11.0738 17.3691 10.7754C17.3691 10.477 17.2506 10.1909 17.0396 9.9799C16.8287 9.76892 16.5425 9.65039 16.2441 9.65039C15.9458 9.65039 15.6596 9.76892 15.4486 9.9799C15.2377 10.1909 15.1191 10.477 15.1191 10.7754ZM12.1191 2.4082C6.3207 2.4082 1.61914 7.10977 1.61914 12.9082C1.61914 18.7066 6.3207 23.4082 12.1191 23.4082C17.9176 23.4082 22.6191 18.7066 22.6191 12.9082C22.6191 7.10977 17.9176 2.4082 12.1191 2.4082ZM18.2832 19.0723C17.4816 19.8738 16.5488 20.502 15.5105 20.9426C14.4395 21.3973 13.298 21.627 12.1191 21.627C10.9402 21.627 9.79883 21.3973 8.72539 20.9426C7.68868 20.5047 6.74699 19.8695 5.95273 19.0723C5.15117 18.2707 4.52305 17.3379 4.08242 16.2996C3.63008 15.2285 3.40039 14.0871 3.40039 12.9082C3.40039 11.7293 3.63008 10.5879 4.08477 9.51445C4.5226 8.47774 5.15782 7.53605 5.95508 6.7418C6.75664 5.94023 7.68945 5.31211 8.72773 4.87148C9.79883 4.41914 10.9402 4.18945 12.1191 4.18945C13.298 4.18945 14.4395 4.41914 15.5129 4.87383C16.5496 5.31166 17.4913 5.94688 18.2855 6.74414C19.0871 7.5457 19.7152 8.47852 20.1559 9.5168C20.6082 10.5879 20.8379 11.7293 20.8379 12.9082C20.8379 14.0871 20.6082 15.2285 20.1535 16.302C19.7162 17.3383 19.0809 18.2793 18.2832 19.0723ZM15.6816 13.4004H14.5543C14.4559 13.4004 14.3715 13.4754 14.3645 13.5738C14.2754 14.734 13.3027 15.6504 12.1191 15.6504C10.9355 15.6504 9.96055 14.734 9.87383 13.5738C9.8668 13.4754 9.78242 13.4004 9.68398 13.4004H8.55664C8.53121 13.4004 8.50604 13.4055 8.48265 13.4155C8.45927 13.4255 8.43817 13.4402 8.42063 13.4586C8.40309 13.477 8.38948 13.4988 8.38063 13.5226C8.37178 13.5465 8.36787 13.5719 8.36914 13.5973C8.47227 15.573 10.1152 17.1504 12.1191 17.1504C14.123 17.1504 15.766 15.573 15.8691 13.5973C15.8704 13.5719 15.8665 13.5465 15.8577 13.5226C15.8488 13.4988 15.8352 13.477 15.8177 13.4586C15.8001 13.4402 15.779 13.4255 15.7556 13.4155C15.7322 13.4055 15.7071 13.4004 15.6816 13.4004Z" fill="#009999"/>
</svg>
