<svg width="31" height="32" viewBox="0 0 31 32" fill="none" xmlns="http://www.w3.org/2000/svg">
<circle cx="15.1955" cy="15.9777" r="15.1955" fill="#DDDDDD"/>
<path d="M8.97074 15.8629C9.00376 14.2608 9.65578 12.7338 10.7901 11.602C11.3614 11.0307 12.0258 10.5807 12.7659 10.2678C13.5323 9.94434 14.3461 9.7791 15.1846 9.7791C16.0248 9.7791 16.8387 9.94258 17.6034 10.2678C18.3434 10.5807 19.0079 11.0307 19.5791 11.602C19.7549 11.7777 19.9184 11.9623 20.0696 12.1539L19.1907 12.8412C19.1697 12.8574 19.1538 12.8792 19.1447 12.904C19.1356 12.9289 19.1337 12.9558 19.1392 12.9817C19.1447 13.0076 19.1574 13.0314 19.1758 13.0504C19.1943 13.0694 19.2177 13.0828 19.2434 13.0891L21.9997 13.7623C22.0875 13.7834 22.1737 13.7166 22.1737 13.627L22.1877 10.7881C22.1877 10.6703 22.0524 10.6035 21.961 10.6773L21.1207 11.3348C19.7426 9.57168 17.5963 8.44141 15.1864 8.44141C11.0643 8.44141 7.71215 11.7479 7.63656 15.8559C7.6361 15.8746 7.63939 15.8933 7.64624 15.9108C7.6531 15.9282 7.66338 15.9441 7.67649 15.9576C7.68959 15.971 7.70526 15.9817 7.72255 15.989C7.73984 15.9963 7.75842 16 7.77719 16H8.83188C8.90746 16 8.96899 15.9385 8.97074 15.8629ZM22.6131 16H21.5584C21.4829 16 21.4196 16.0615 21.4178 16.1371C21.3848 17.7392 20.7328 19.2662 19.5985 20.398C19.0324 20.9665 18.3614 21.4196 17.6227 21.7322C16.8563 22.0557 16.0424 22.2209 15.2039 22.2209C14.3655 22.2209 13.5498 22.0574 12.7852 21.7322C12.0465 21.4196 11.3755 20.9665 10.8094 20.398C10.6336 20.2223 10.4702 20.0377 10.319 19.8461L11.1961 19.1588C11.2171 19.1426 11.233 19.1208 11.2421 19.096C11.2512 19.0711 11.2531 19.0442 11.2476 19.0183C11.2421 18.9924 11.2294 18.9686 11.211 18.9496C11.1925 18.9306 11.1691 18.9172 11.1434 18.9109L8.38715 18.2377C8.29926 18.2166 8.21313 18.2834 8.21313 18.373L8.19906 21.2154C8.19906 21.3332 8.33442 21.4 8.42582 21.3262L9.26606 20.6687C10.6477 22.4283 12.794 23.5586 15.2039 23.5586C19.326 23.5586 22.6782 20.2521 22.7538 16.1441C22.7542 16.1254 22.7509 16.1067 22.7441 16.0892C22.7372 16.0718 22.7269 16.0559 22.7138 16.0424C22.7007 16.029 22.6851 16.0183 22.6678 16.011C22.6505 16.0037 22.6319 16 22.6131 16Z" fill="#292929"/>
<path d="M15.1753 21.25C15.0116 21.25 14.8744 21.194 14.7635 21.082C14.653 20.9704 14.5978 20.8319 14.5978 20.6667V19.9958C14.1646 19.8986 13.7845 19.7285 13.4572 19.4854C13.13 19.2424 12.8653 18.9021 12.6631 18.4646C12.5958 18.3285 12.5933 18.1852 12.6556 18.0347C12.7184 17.8838 12.8316 17.7743 12.9952 17.7063C13.13 17.6479 13.2695 17.6504 13.4139 17.7138C13.5583 17.7768 13.669 17.8813 13.746 18.0271C13.9096 18.3188 14.1165 18.54 14.3668 18.6909C14.617 18.8414 14.925 18.9167 15.2908 18.9167C15.6854 18.9167 16.02 18.8268 16.2945 18.6472C16.5686 18.4671 16.7057 18.1875 16.7057 17.8083C16.7057 17.4681 16.5998 17.1982 16.388 16.9987C16.1763 16.7996 15.6854 16.5736 14.9154 16.3208C14.0876 16.0583 13.5198 15.7449 13.2118 15.3805C12.9038 15.0157 12.7498 14.5708 12.7498 14.0458C12.7498 13.4139 12.9519 12.9229 13.3561 12.5729C13.7604 12.2229 14.1743 12.0236 14.5978 11.975V11.3333C14.5978 11.1681 14.653 11.0294 14.7635 10.9174C14.8744 10.8058 15.0116 10.75 15.1753 10.75C15.3389 10.75 15.4762 10.8058 15.587 10.9174C15.6975 11.0294 15.7528 11.1681 15.7528 11.3333V11.975C16.1185 12.0333 16.4362 12.1525 16.7057 12.3326C16.9752 12.5122 17.1965 12.7333 17.3698 12.9958C17.4564 13.1222 17.4733 13.2632 17.4206 13.4188C17.3675 13.5743 17.2591 13.6861 17.0955 13.7542C16.9607 13.8125 16.8212 13.8148 16.6768 13.7612C16.5324 13.7079 16.3977 13.6132 16.2725 13.4771C16.1474 13.341 16.0007 13.2364 15.8325 13.1633C15.6638 13.0905 15.4544 13.0542 15.2041 13.0542C14.7806 13.0542 14.4582 13.1491 14.2368 13.3388C14.0155 13.5282 13.9048 13.7639 13.9048 14.0458C13.9048 14.3667 14.0491 14.6194 14.3379 14.8042C14.6266 14.9889 15.1271 15.1833 15.8394 15.3875C16.5035 15.5819 17.0065 15.8905 17.3484 16.3132C17.6899 16.7364 17.8607 17.225 17.8607 17.7792C17.8607 18.4694 17.6585 18.9944 17.2543 19.3542C16.85 19.7139 16.3495 19.9375 15.7528 20.025V20.6667C15.7528 20.8319 15.6975 20.9704 15.587 21.082C15.4762 21.194 15.3389 21.25 15.1753 21.25Z" fill="black"/>
</svg>
