<svg width="25" height="24" viewBox="0 0 25 24" fill="none" xmlns="http://www.w3.org/2000/svg">
<g clip-path="url(#clip0_3244_9101)">
<path d="M16.678 6.1875C16.678 6.08437 16.5936 6 16.4905 6H7.49051C7.38738 6 7.30301 6.08437 7.30301 6.1875V7.3125C7.30301 7.41563 7.38738 7.5 7.49051 7.5H16.4905C16.5936 7.5 16.678 7.41563 16.678 7.3125V6.1875ZM16.4905 9.375H7.49051C7.38738 9.375 7.30301 9.45937 7.30301 9.5625V10.6875C7.30301 10.7906 7.38738 10.875 7.49051 10.875H16.4905C16.5936 10.875 16.678 10.7906 16.678 10.6875V9.5625C16.678 9.45937 16.5936 9.375 16.4905 9.375ZM11.803 12.75H7.49051C7.38738 12.75 7.30301 12.8344 7.30301 12.9375V14.0625C7.30301 14.1656 7.38738 14.25 7.49051 14.25H11.803C11.9061 14.25 11.9905 14.1656 11.9905 14.0625V12.9375C11.9905 12.8344 11.9061 12.75 11.803 12.75ZM10.678 19.9688H5.42801V3.46875H18.553V11.5312C18.553 11.6344 18.6374 11.7188 18.7405 11.7188H20.053C20.1561 11.7188 20.2405 11.6344 20.2405 11.5312V2.53125C20.2405 2.11641 19.9054 1.78125 19.4905 1.78125H4.49051C4.07567 1.78125 3.74051 2.11641 3.74051 2.53125V20.9062C3.74051 21.3211 4.07567 21.6562 4.49051 21.6562H10.678C10.7811 21.6562 10.8655 21.5719 10.8655 21.4688V20.1562C10.8655 20.0531 10.7811 19.9688 10.678 19.9688Z" fill="black"/>
<circle cx="16.4133" cy="17.0179" r="3.11031" stroke="black" stroke-width="1.5"/>
<line x1="19.0101" y1="19.3517" x2="22.5978" y2="22.9393" stroke="black" stroke-width="1.5" stroke-linecap="round"/>
</g>
<defs>
<clipPath id="clip0_3244_9101">
<rect width="24" height="24" fill="white" transform="translate(0.553009)"/>
</clipPath>
</defs>
</svg>
