<svg width="186" height="132" viewBox="0 0 186 132" fill="none" xmlns="http://www.w3.org/2000/svg">
<g clip-path="url(#clip0_4057_18302)">
<path d="M184.061 121.802C184.04 121.855 184 121.899 183.948 121.923C183.895 121.947 183.836 121.949 183.782 121.929L11.6006 57.8594C11.5469 57.8393 11.5033 57.7987 11.4795 57.7465C11.4557 57.6943 11.4536 57.6348 11.4736 57.581C11.4936 57.5272 11.5341 57.4836 11.5862 57.4597C11.6384 57.4357 11.6979 57.4335 11.7517 57.4533L183.933 121.523C183.987 121.543 184.03 121.584 184.054 121.636C184.078 121.688 184.08 121.748 184.061 121.802Z" fill="#F2F2F2"/>
<path d="M92.3406 0H51.3123C48.0939 0.0036417 45.0083 1.28378 42.7325 3.55956C40.4567 5.83535 39.1766 8.92092 39.173 12.1394V15.8478C39.0888 15.8247 39.0003 15.8214 38.9146 15.8383C38.8289 15.8551 38.7483 15.8917 38.6792 15.945C38.61 15.9984 38.5542 16.0671 38.5162 16.1457C38.4782 16.2243 38.4589 16.3107 38.46 16.3981V19.2499C38.4589 19.3372 38.4782 19.4236 38.5162 19.5022C38.5542 19.5808 38.61 19.6495 38.6792 19.7029C38.7483 19.7563 38.8289 19.7928 38.9146 19.8097C39.0003 19.8266 39.0888 19.8233 39.173 19.8001V24.1182C39.0888 24.095 39.0003 24.0917 38.9146 24.1086C38.8289 24.1254 38.7483 24.162 38.6792 24.2153C38.61 24.2687 38.5542 24.3374 38.5162 24.416C38.4782 24.4946 38.4589 24.581 38.46 24.6684V31.798C38.4589 31.8853 38.4782 31.9717 38.5162 32.0503C38.5542 32.1289 38.61 32.1976 38.6792 32.251C38.7483 32.3044 38.8289 32.3409 38.9146 32.3578C39.0003 32.3746 39.0888 32.3713 39.173 32.3482V34.9552C39.0888 34.932 39.0003 34.9287 38.9146 34.9455C38.8289 34.9624 38.7483 34.9989 38.6792 35.0523C38.61 35.1057 38.5542 35.1744 38.5162 35.253C38.4782 35.3316 38.4589 35.418 38.46 35.5053V42.6349C38.4589 42.7223 38.4782 42.8087 38.5162 42.8873C38.5542 42.9659 38.61 43.0346 38.6792 43.088C38.7483 43.1413 38.8289 43.1779 38.9146 43.1947C39.0003 43.2116 39.0888 43.2083 39.173 43.1851V118.475C39.1766 121.693 40.4567 124.779 42.7325 127.054C45.0083 129.33 48.0939 130.61 51.3123 130.614H92.3406C95.559 130.61 98.6446 129.33 100.92 127.054C103.196 124.779 104.476 121.693 104.48 118.475V12.1394C104.476 8.92092 103.196 5.83535 100.92 3.55956C98.6446 1.28378 95.559 0.0036417 92.3406 0ZM101.913 118.475C101.91 121.013 100.901 123.446 99.1063 125.24C97.3117 127.035 94.8785 128.044 92.3406 128.047H51.3123C48.7744 128.044 46.3412 127.035 44.5466 125.24C42.752 123.446 41.7425 121.013 41.7396 118.475V12.1394C41.7425 9.60141 42.752 7.16822 44.5466 5.37362C46.3412 3.57901 48.7744 2.56953 51.3123 2.56665H92.3406C94.8785 2.56953 97.3117 3.579 99.1063 5.37361C100.901 7.16822 101.91 9.60141 101.913 12.1394V118.475Z" fill="#3F3D56"/>
<path d="M92.3413 129.473H51.3131C48.3971 129.47 45.6015 128.31 43.5395 126.248C41.4776 124.186 40.3178 121.391 40.3145 118.475V12.1394C40.3178 9.22336 41.4776 6.42774 43.5395 4.36581C45.6015 2.30389 48.3971 1.14404 51.3131 1.14073H92.3413C95.2573 1.14404 98.053 2.30388 100.115 4.36581C102.177 6.42774 103.337 9.22336 103.34 12.1394V118.475C103.337 121.391 102.177 124.186 100.115 126.248C98.053 128.31 95.2573 129.47 92.3413 129.473Z" fill="#E6E6E6"/>
<path d="M93.354 127.762H50.298C48.3313 127.76 46.4458 126.978 45.0551 125.587C43.6644 124.196 42.8821 122.311 42.8799 120.344V10.27C42.8821 8.30323 43.6644 6.4177 45.0551 5.02702C46.4457 3.63634 48.3313 2.85407 50.298 2.85184H55.913C56.238 2.85222 56.5497 2.98151 56.7795 3.21137C57.0094 3.44123 57.1387 3.75287 57.139 4.07794C57.1401 5.03823 57.5221 5.95888 58.2011 6.63791C58.8801 7.31694 59.8008 7.69889 60.7611 7.69996H82.3205C83.2808 7.69889 84.2015 7.31694 84.8805 6.63791C85.5595 5.95888 85.9415 5.03823 85.9426 4.07793C85.9429 3.75287 86.0722 3.44122 86.3021 3.21137C86.5319 2.98151 86.8436 2.85221 87.1686 2.85184H93.354C95.3207 2.85407 97.2062 3.63633 98.5969 5.02701C99.9876 6.41769 100.77 8.30322 100.772 10.2699V120.344C100.77 122.311 99.9876 124.196 98.5969 125.587C97.2062 126.978 95.3207 127.76 93.354 127.762Z" fill="white"/>
<path d="M73.6807 5.34717H68.5474C68.3961 5.34717 68.2511 5.28708 68.1441 5.18011C68.0371 5.07315 67.9771 4.92807 67.9771 4.7768C67.9771 4.62553 68.0371 4.48046 68.1441 4.37349C68.2511 4.26653 68.3961 4.20644 68.5474 4.20644H73.6807C73.832 4.20644 73.9771 4.26653 74.084 4.37349C74.191 4.48046 74.2511 4.62553 74.2511 4.7768C74.2511 4.92807 74.191 5.07315 74.084 5.18011C73.9771 5.28708 73.832 5.34717 73.6807 5.34717Z" fill="white"/>
<path d="M77.2447 5.20458C77.4022 5.20458 77.5298 5.0769 77.5298 4.9194C77.5298 4.7619 77.4022 4.63422 77.2447 4.63422C77.0872 4.63422 76.9595 4.7619 76.9595 4.9194C76.9595 5.0769 77.0872 5.20458 77.2447 5.20458Z" fill="white"/>
<path d="M102.16 25.1309H41.4365V25.7808H102.16V25.1309Z" fill="#E6E6E6"/>
<path d="M102.16 38.1296H41.4365V38.7795H102.16V38.1296Z" fill="#E6E6E6"/>
<path d="M102.16 64.9937H41.4365V65.6436H102.16V64.9937Z" fill="#E6E6E6"/>
<path d="M102.16 91.8577H41.4365V92.5077H102.16V91.8577Z" fill="#E6E6E6"/>
<path d="M102.16 112.872H41.4365V113.522H102.16V112.872Z" fill="#E6E6E6"/>
<path d="M85.5347 25.4558H84.8848V65.3186H85.5347V25.4558Z" fill="#E6E6E6"/>
<path d="M55.1368 65.307H54.4868V113.197H55.1368V65.307Z" fill="#E6E6E6"/>
<path d="M100.772 78.4436H54.811V79.0935H100.772V78.4436Z" fill="#E6E6E6"/>
<path d="M85.6045 113.197H84.9546V127.762H85.6045V113.197Z" fill="#E6E6E6"/>
<path d="M85.1022 51.8278H42.7725V52.4778H85.1022V51.8278Z" fill="#E6E6E6"/>
<path d="M51.6128 2.44119L51.0132 2.69211L60.5921 25.5813L61.1917 25.3304L51.6128 2.44119Z" fill="#E6E6E6"/>
<path d="M81.1138 7.69992H80.4639V25.4559H81.1138V7.69992Z" fill="#E6E6E6"/>
<path d="M97.8729 35.3132C97.8729 41.1367 88.8692 54.7065 86.238 58.5477C86.1586 58.6639 86.0521 58.7589 85.9277 58.8245C85.8033 58.8902 85.6648 58.9245 85.5241 58.9245C85.3834 58.9245 85.2449 58.8902 85.1205 58.8245C84.9961 58.7589 84.8896 58.6639 84.8102 58.5477C82.179 54.7065 73.1753 41.1367 73.1753 35.3132C73.1753 32.0381 74.4763 28.8971 76.7922 26.5813C79.108 24.2654 82.249 22.9644 85.5241 22.9644C88.7992 22.9644 91.9402 24.2654 94.256 26.5813C96.5719 28.8971 97.8729 32.0381 97.8729 35.3132Z" fill="#009999"/>
<path d="M85.523 40.7294C88.9928 40.7294 91.8057 37.9165 91.8057 34.4467C91.8057 30.9768 88.9928 28.1639 85.523 28.1639C82.0531 28.1639 79.2402 30.9768 79.2402 34.4467C79.2402 37.9165 82.0531 40.7294 85.523 40.7294Z" fill="white"/>
<path d="M85.1127 65.5055L61.3193 113.045L61.9005 113.335L85.6938 65.7964L85.1127 65.5055Z" fill="#E6E6E6"/>
<path d="M119.379 75.9625C119.66 76.1133 119.97 76.2007 120.288 76.2187C120.606 76.2367 120.924 76.1847 121.22 76.0664C121.515 75.9482 121.781 75.7665 121.999 75.5342C122.217 75.302 122.382 75.0248 122.481 74.7221L130.221 74.5883L127.949 71.2686L120.947 71.9046C120.427 71.7716 119.877 71.8339 119.4 72.0795C118.924 72.3251 118.554 72.7371 118.361 73.2372C118.167 73.7374 118.164 74.2911 118.352 74.7934C118.54 75.2957 118.905 75.7116 119.379 75.9625H119.379Z" fill="#FFB8B8"/>
<path d="M124.026 75.8658C123.906 75.8658 123.787 75.8415 123.677 75.7944C123.566 75.7473 123.467 75.6783 123.384 75.5916C123.301 75.505 123.236 75.4024 123.194 75.2901C123.152 75.1778 123.133 75.0582 123.138 74.9383L123.294 71.3888C123.303 71.1775 123.387 70.9762 123.531 70.8214C123.675 70.6667 123.87 70.5688 124.081 70.5455L133.048 69.5171L132.747 75.4319L124.07 75.8646C124.055 75.8654 124.04 75.8658 124.026 75.8658Z" fill="#009999"/>
<path d="M134.946 124.518L132.422 125.343L128.04 115.997L131.766 114.78L134.946 124.518Z" fill="#FFB8B8"/>
<path d="M136.391 126.755L128.25 129.414L128.216 129.311C128.08 128.895 128.027 128.456 128.061 128.02C128.095 127.583 128.214 127.158 128.412 126.767C128.61 126.377 128.883 126.03 129.216 125.745C129.548 125.46 129.934 125.243 130.35 125.107L130.35 125.107L135.322 123.483L136.391 126.755Z" fill="#2F2E41"/>
<path d="M142.383 128.427L139.727 128.426L138.464 118.182L142.384 118.182L142.383 128.427Z" fill="#FFB8B8"/>
<path d="M143.06 131.001L134.496 131.001V130.893C134.496 130.455 134.582 130.021 134.75 129.617C134.917 129.213 135.163 128.845 135.472 128.536C135.782 128.226 136.149 127.981 136.554 127.813C136.958 127.645 137.392 127.559 137.83 127.559H137.83L143.06 127.56L143.06 131.001Z" fill="#2F2E41"/>
<path d="M138.349 125.933C138.132 125.933 137.922 125.853 137.76 125.709C137.597 125.565 137.493 125.366 137.467 125.151L134.043 96.5219L129.03 104.569L134.912 119.599C134.992 119.807 134.991 120.037 134.911 120.244C134.83 120.452 134.675 120.622 134.475 120.721L129.486 123.162C129.372 123.218 129.247 123.248 129.121 123.252C128.994 123.256 128.868 123.232 128.751 123.183C128.634 123.134 128.529 123.06 128.443 122.967C128.357 122.874 128.292 122.764 128.252 122.643L122.723 105.938C122.306 104.681 122.252 103.332 122.566 102.045L126.141 87.3737L126.183 87.3508L134.242 82.9364L134.288 82.9534L143.779 86.4174L142.786 105.226L143.507 124.748C143.517 124.979 143.435 125.206 143.279 125.378C143.124 125.55 142.906 125.654 142.675 125.667L138.404 125.931C138.386 125.933 138.367 125.933 138.349 125.933Z" fill="#2F2E41"/>
<path d="M133.121 92.9487C131.703 92.9487 130.508 92.5448 129.761 91.5181L129.737 91.485L130.22 86.41L125.919 88.7977C125.83 88.8472 125.727 88.8681 125.626 88.8577C125.524 88.8472 125.429 88.8059 125.351 88.7392C125.274 88.6726 125.219 88.5838 125.194 88.485C125.169 88.3862 125.175 88.282 125.211 88.1865L130.575 73.9401L134.117 62.335C134.293 61.4062 134.747 60.5526 135.418 59.8873C136.09 59.222 136.947 58.7764 137.878 58.6095C141.033 58.0299 142.913 59.0946 145.083 61.4573C145.608 62.0322 145.994 62.7194 146.213 63.4664C146.432 64.2135 146.477 65.0006 146.345 65.7678L144.292 77.5014L144.895 88.0219C144.941 88.2032 144.929 88.3945 144.86 88.5684C144.791 88.7423 144.668 88.8899 144.51 88.99C142.832 90.058 137.687 92.9482 133.121 92.9487Z" fill="#009999"/>
<path d="M140.3 56.8523C143.238 56.8523 145.621 54.47 145.621 51.5313C145.621 48.5926 143.238 46.2103 140.3 46.2103C137.361 46.2103 134.979 48.5926 134.979 51.5313C134.979 54.47 137.361 56.8523 140.3 56.8523Z" fill="#FFB8B8"/>
<path d="M141.686 89.4611C141.975 89.3284 142.232 89.1338 142.438 88.891C142.645 88.6483 142.795 88.3633 142.879 88.0561C142.963 87.7489 142.979 87.427 142.925 87.1131C142.872 86.7992 142.75 86.5009 142.568 86.2392L147.132 79.9853L143.113 79.7947L139.396 85.7627C138.976 86.0968 138.694 86.5731 138.602 87.1014C138.51 87.6297 138.616 88.1733 138.898 88.6292C139.18 89.0851 139.62 89.4216 140.134 89.5749C140.648 89.7282 141.2 89.6877 141.686 89.4611Z" fill="#FFB8B8"/>
<path d="M144.158 85.9321C143.935 85.9638 143.709 85.9099 143.524 85.7813L140.503 83.6746C140.322 83.5489 140.194 83.3598 140.144 83.1445C140.095 82.9292 140.128 82.7032 140.237 82.511L145.615 72.9416L140.206 66.4301C139.922 66.0881 139.712 65.6908 139.59 65.2634C139.468 64.8359 139.436 64.3877 139.497 63.9473C139.557 63.5069 139.709 63.084 139.942 62.7053C140.175 62.3267 140.484 62.0007 140.85 61.7481C141.215 61.4955 141.63 61.3218 142.066 61.2381C142.503 61.1544 142.952 61.1625 143.386 61.2619C143.819 61.3613 144.227 61.5498 144.583 61.8154C144.94 62.081 145.237 62.4179 145.456 62.8047L151.429 73.3469C151.471 73.422 151.493 73.5067 151.493 73.5928C151.493 73.679 151.471 73.7637 151.429 73.8387L144.805 85.4916C144.743 85.599 144.661 85.6924 144.561 85.766C144.462 85.8396 144.349 85.8917 144.228 85.9191C144.205 85.9245 144.181 85.9287 144.158 85.9321Z" fill="#009999"/>
<path d="M138.173 50.852C137.647 50.4589 136.918 50.5203 136.294 50.3142C135.922 50.1915 135.589 49.9733 135.329 49.6815C135.068 49.3896 134.889 49.0344 134.809 48.6514C134.729 48.2684 134.751 47.8711 134.873 47.4994C134.995 47.1276 135.213 46.7945 135.504 46.5334C136.178 45.9295 137.137 45.7924 138.035 45.6819C139.265 45.5305 140.508 45.379 141.742 45.4993C142.976 45.6197 144.218 46.0365 145.119 46.8871C146.114 47.8249 146.604 49.2211 146.607 50.588C146.572 51.9612 146.195 53.3042 145.51 54.4948C145.298 54.9473 144.979 55.3411 144.58 55.6418C144.165 55.9158 143.58 55.9875 143.181 55.6916C142.835 55.4359 142.709 54.9879 142.553 54.5874C142.396 54.1869 142.13 53.7604 141.705 53.6986C141.157 53.619 140.739 54.176 140.216 54.3583C139.485 54.6132 138.673 54.0494 138.375 53.3349C138.077 52.6204 138.155 51.812 138.239 51.0423" fill="#2F2E41"/>
<path d="M185.075 130.854C185.074 130.911 185.051 130.966 185.011 131.007C184.97 131.048 184.915 131.07 184.858 131.071H1.14243C1.08497 131.071 1.02986 131.048 0.989235 131.007C0.948606 130.967 0.925781 130.911 0.925781 130.854C0.925781 130.797 0.948606 130.741 0.989235 130.701C1.02986 130.66 1.08497 130.637 1.14243 130.637H184.858C184.915 130.637 184.97 130.66 185.011 130.701C185.051 130.742 185.074 130.797 185.075 130.854Z" fill="#CCCCCC"/>
<path d="M85.5244 68.0267C87.0799 68.0267 88.3408 66.7658 88.3408 65.2103C88.3408 63.6549 87.0799 62.394 85.5244 62.394C83.9689 62.394 82.708 63.6549 82.708 65.2103C82.708 66.7658 83.9689 68.0267 85.5244 68.0267Z" fill="#009999"/>
<path d="M125.174 34.4166C123.998 35.9842 118.834 37.8184 117.349 38.321C117.305 38.3362 117.257 38.3403 117.21 38.3328C117.163 38.3253 117.119 38.3066 117.081 38.2782C117.043 38.2498 117.013 38.2126 116.993 38.1698C116.973 38.127 116.963 38.0799 116.965 38.0326C117.033 36.4671 117.35 30.9957 118.526 29.4281C119.188 28.5465 120.172 27.9638 121.263 27.8081C122.355 27.6525 123.463 27.9367 124.344 28.5982C125.226 29.2597 125.809 30.2444 125.964 31.3355C126.12 32.4267 125.836 33.535 125.174 34.4166Z" fill="#F2F2F2"/>
<path d="M115.812 40.9181C116.335 40.9181 116.759 40.4938 116.759 39.9703C116.759 39.4468 116.335 39.0225 115.812 39.0225C115.288 39.0225 114.864 39.4468 114.864 39.9703C114.864 40.4938 115.288 40.9181 115.812 40.9181Z" fill="#F2F2F2"/>
<path d="M22.087 77.4162C23.8178 80.0606 23.7625 88.8985 23.7094 91.4248C23.7078 91.5011 23.6877 91.5759 23.6507 91.6427C23.6137 91.7095 23.561 91.7662 23.4972 91.8081C23.4333 91.8499 23.3602 91.8755 23.2842 91.8826C23.2082 91.8898 23.1316 91.8783 23.061 91.8492C20.7245 90.8869 12.6029 87.4011 10.8721 84.7567C10.3895 84.0203 10.0566 83.1961 9.89265 82.331C9.72867 81.466 9.73675 80.5771 9.91643 79.7152C10.0961 78.8532 10.4439 78.0352 10.9398 77.3077C11.4358 76.5802 12.0703 75.9576 12.8069 75.4754C13.5436 74.9932 14.3681 74.661 15.2333 74.4975C16.0984 74.3341 16.9873 74.3428 17.8491 74.523C18.7109 74.7032 19.5288 75.0515 20.2559 75.548C20.9831 76.0444 21.6053 76.6792 22.087 77.4162Z" fill="#009999"/>
<path d="M16.2222 84.1027C18.1053 84.1027 19.6319 82.5761 19.6319 80.693C19.6319 78.8099 18.1053 77.2833 16.2222 77.2833C14.3391 77.2833 12.8125 78.8099 12.8125 80.693C12.8125 82.5761 14.3391 84.1027 16.2222 84.1027Z" fill="white"/>
<path d="M25.3654 96.1909C26.2095 96.1909 26.8939 95.5065 26.8939 94.6624C26.8939 93.8182 26.2095 93.1339 25.3654 93.1339C24.5212 93.1339 23.8369 93.8182 23.8369 94.6624C23.8369 95.5065 24.5212 96.1909 25.3654 96.1909Z" fill="#F2F2F2"/>
</g>
<defs>
<clipPath id="clip0_4057_18302">
<rect width="184.149" height="131.071" fill="white" transform="translate(0.925781)"/>
</clipPath>
</defs>
</svg>
