<svg width="40" height="40" viewBox="0 0 40 40" fill="none" xmlns="http://www.w3.org/2000/svg">
<path d="M15.625 12.4115H18.5117V25.6264C18.5117 25.7982 18.6523 25.9389 18.8242 25.9389H21.168C21.3398 25.9389 21.4805 25.7982 21.4805 25.6264V12.4115H24.375C24.6367 12.4115 24.7812 12.1107 24.6211 11.9076L20.2461 6.36856C20.2169 6.33121 20.1795 6.301 20.1369 6.28023C20.0942 6.25945 20.0474 6.24866 20 6.24866C19.9526 6.24866 19.9058 6.25945 19.8631 6.28023C19.8205 6.301 19.7831 6.33121 19.7539 6.36856L15.3789 11.9037C15.2188 12.1107 15.3633 12.4115 15.625 12.4115V12.4115ZM34.2969 24.4545H31.9531C31.7812 24.4545 31.6406 24.5951 31.6406 24.767V30.7826H8.35938V24.767C8.35938 24.5951 8.21875 24.4545 8.04688 24.4545H5.70312C5.53125 24.4545 5.39062 24.5951 5.39062 24.767V32.5014C5.39062 33.1928 5.94922 33.7514 6.64062 33.7514H33.3594C34.0508 33.7514 34.6094 33.1928 34.6094 32.5014V24.767C34.6094 24.5951 34.4688 24.4545 34.2969 24.4545Z" fill="#292929"/>
</svg>
