<svg width="25" height="24" viewBox="0 0 25 24" fill="none" xmlns="http://www.w3.org/2000/svg">
<path d="M20.5671 17.8969C20.125 16.8496 19.4834 15.8984 18.678 15.0961C17.8751 14.2915 16.924 13.65 15.8772 13.207C15.8679 13.2023 15.8585 13.2 15.8491 13.1953C17.3093 12.1406 18.2585 10.4227 18.2585 8.48438C18.2585 5.27344 15.6569 2.67188 12.446 2.67188C9.23504 2.67188 6.63348 5.27344 6.63348 8.48438C6.63348 10.4227 7.5827 12.1406 9.04286 13.1977C9.03348 13.2023 9.02411 13.2047 9.01473 13.2094C7.96473 13.6523 7.02254 14.2875 6.21395 15.0984C5.40936 15.9013 4.76787 16.8524 4.32489 17.8992C3.88971 18.924 3.655 20.0228 3.63348 21.1359C3.63286 21.161 3.63724 21.1858 3.64639 21.2091C3.65553 21.2324 3.66924 21.2537 3.68671 21.2716C3.70419 21.2895 3.72507 21.3037 3.74813 21.3134C3.77119 21.3231 3.79596 21.3281 3.82098 21.3281H5.22723C5.33036 21.3281 5.41239 21.2461 5.41473 21.1453C5.46161 19.3359 6.18817 17.6414 7.47254 16.357C8.80145 15.0281 10.5663 14.2969 12.446 14.2969C14.3257 14.2969 16.0905 15.0281 17.4194 16.357C18.7038 17.6414 19.4304 19.3359 19.4772 21.1453C19.4796 21.2484 19.5616 21.3281 19.6647 21.3281H21.071C21.096 21.3281 21.1208 21.3231 21.1438 21.3134C21.1669 21.3037 21.1878 21.2895 21.2052 21.2716C21.2227 21.2537 21.2364 21.2324 21.2456 21.2091C21.2547 21.1858 21.2591 21.161 21.2585 21.1359C21.235 20.0156 21.003 18.9258 20.5671 17.8969ZM12.446 12.5156C11.3702 12.5156 10.3577 12.0961 9.59598 11.3344C8.83426 10.5727 8.41473 9.56016 8.41473 8.48438C8.41473 7.40859 8.83426 6.39609 9.59598 5.63437C10.3577 4.87266 11.3702 4.45312 12.446 4.45312C13.5218 4.45312 14.5343 4.87266 15.296 5.63437C16.0577 6.39609 16.4772 7.40859 16.4772 8.48438C16.4772 9.56016 16.0577 10.5727 15.296 11.3344C14.5343 12.0961 13.5218 12.5156 12.446 12.5156Z" fill="#292929"/>
</svg>
