<svg width="14" height="13" viewBox="0 0 14 13" fill="none" xmlns="http://www.w3.org/2000/svg">
<path d="M12.791 0.25H1.29102C1.01445 0.25 0.791016 0.473437 0.791016 0.75V12.25C0.791016 12.5266 1.01445 12.75 1.29102 12.75H12.791C13.0676 12.75 13.291 12.5266 13.291 12.25V0.75C13.291 0.473437 13.0676 0.25 12.791 0.25ZM12.166 11.625H1.91602V1.375H12.166V11.625ZM6.72852 4.75H9.60352C9.67227 4.75 9.72852 4.69375 9.72852 4.625V3.875C9.72852 3.80625 9.67227 3.75 9.60352 3.75H6.72852C6.65977 3.75 6.60352 3.80625 6.60352 3.875V4.625C6.60352 4.69375 6.65977 4.75 6.72852 4.75ZM6.72852 7H9.60352C9.67227 7 9.72852 6.94375 9.72852 6.875V6.125C9.72852 6.05625 9.67227 6 9.60352 6H6.72852C6.65977 6 6.60352 6.05625 6.60352 6.125V6.875C6.60352 6.94375 6.65977 7 6.72852 7ZM6.72852 9.25H9.60352C9.67227 9.25 9.72852 9.19375 9.72852 9.125V8.375C9.72852 8.30625 9.67227 8.25 9.60352 8.25H6.72852C6.65977 8.25 6.60352 8.30625 6.60352 8.375V9.125C6.60352 9.19375 6.65977 9.25 6.72852 9.25ZM4.35352 4.25C4.35352 4.41576 4.41936 4.57473 4.53657 4.69194C4.65378 4.80915 4.81276 4.875 4.97852 4.875C5.14428 4.875 5.30325 4.80915 5.42046 4.69194C5.53767 4.57473 5.60352 4.41576 5.60352 4.25C5.60352 4.08424 5.53767 3.92527 5.42046 3.80806C5.30325 3.69085 5.14428 3.625 4.97852 3.625C4.81276 3.625 4.65378 3.69085 4.53657 3.80806C4.41936 3.92527 4.35352 4.08424 4.35352 4.25ZM4.35352 6.5C4.35352 6.66576 4.41936 6.82473 4.53657 6.94194C4.65378 7.05915 4.81276 7.125 4.97852 7.125C5.14428 7.125 5.30325 7.05915 5.42046 6.94194C5.53767 6.82473 5.60352 6.66576 5.60352 6.5C5.60352 6.33424 5.53767 6.17527 5.42046 6.05806C5.30325 5.94085 5.14428 5.875 4.97852 5.875C4.81276 5.875 4.65378 5.94085 4.53657 6.05806C4.41936 6.17527 4.35352 6.33424 4.35352 6.5ZM4.35352 8.75C4.35352 8.91576 4.41936 9.07473 4.53657 9.19194C4.65378 9.30915 4.81276 9.375 4.97852 9.375C5.14428 9.375 5.30325 9.30915 5.42046 9.19194C5.53767 9.07473 5.60352 8.91576 5.60352 8.75C5.60352 8.58424 5.53767 8.42527 5.42046 8.30806C5.30325 8.19085 5.14428 8.125 4.97852 8.125C4.81276 8.125 4.65378 8.19085 4.53657 8.30806C4.41936 8.42527 4.35352 8.58424 4.35352 8.75Z" fill="white"/>
</svg>
