<svg width="43" height="43" viewBox="0 0 43 43" fill="none" xmlns="http://www.w3.org/2000/svg">
<g clip-path="url(#clip0_4144_16640)">
<path d="M21.2918 0.92749C9.87154 0.92749 0.307617 9.12745 0.307617 19.4904C0.307617 24.3813 2.50127 28.7686 5.95719 32.0502C5.53614 33.1479 4.93976 34.1701 4.1913 35.0768C3.19838 36.2813 2.10136 37.3962 0.912929 38.4084C0.652267 38.6175 0.462938 38.9024 0.371068 39.2237C0.279199 39.545 0.289319 39.8869 0.400031 40.2022C0.510743 40.5175 0.71659 40.7907 0.989164 40.984C1.26174 41.1774 1.5876 41.2813 1.92178 41.2816C5.49716 41.2816 8.06852 41.2412 10.3961 40.6263C12.4784 40.0742 14.2685 38.9185 16.0958 37.2962C17.7584 37.6949 19.4742 38.0533 21.2918 38.0533C32.712 38.0533 42.2759 29.8533 42.2759 19.4904C42.2759 9.12745 32.712 0.92749 21.2918 0.92749ZM21.2918 4.15582C31.1785 4.15582 39.0476 11.129 39.0476 19.4904C39.0476 27.8518 31.1785 34.8249 21.2918 34.8249C19.5339 34.8249 17.7083 34.5215 16.0457 34.0679C15.7798 34.0011 15.5013 34.003 15.2364 34.0736C14.9715 34.1442 14.729 34.2811 14.5316 34.4714C12.7157 36.2131 11.3776 37.0251 9.58906 37.498C8.76584 37.7159 7.1775 37.6643 6.05727 37.7514C6.28325 37.4964 6.49471 37.3608 6.71424 37.0945C7.98297 35.5449 9.14033 33.9065 9.48899 32.0502C9.53701 31.7715 9.511 31.4852 9.41355 31.2197C9.3161 30.9543 9.15063 30.7191 8.93371 30.5377C5.55204 27.7452 3.53595 23.8309 3.53595 19.4904C3.53595 11.129 11.405 4.15582 21.2918 4.15582ZM18.2152 10.4607C17.931 10.5245 17.6694 10.664 17.4581 10.8643L15.0369 13.1354L17.2063 15.505L19.1223 13.6891H23.006L24.5201 15.4065V17.7778L20.383 20.5509C20.1618 20.7015 19.9816 20.9047 19.8585 21.1422C19.7353 21.3797 19.6732 21.6441 19.6776 21.9116V25.14H22.9059V22.8188L27.043 20.0457C27.2644 19.8949 27.4448 19.6915 27.5679 19.4536C27.6911 19.2158 27.7531 18.9511 27.7484 18.6833V14.7996C27.7463 14.4095 27.6029 14.0333 27.3449 13.7407L24.9236 11.016C24.773 10.8427 24.587 10.7035 24.3783 10.6077C24.1695 10.5119 23.9427 10.4618 23.713 10.4607H18.567C18.4501 10.4479 18.3321 10.4479 18.2152 10.4607ZM19.6776 26.7541V29.9825H22.9059V26.7541H19.6776Z" fill="black"/>
</g>
<defs>
<clipPath id="clip0_4144_16640">
<rect width="41.9683" height="41.9683" fill="white" transform="translate(0.307617 0.92749)"/>
</clipPath>
</defs>
</svg>
