<svg width="17" height="17" viewBox="0 0 17 17" fill="none" xmlns="http://www.w3.org/2000/svg">
<path fill-rule="evenodd" clip-rule="evenodd" d="M5.83659 2.33325C5.41087 2.33325 5.06576 2.67837 5.06576 3.10409V5.41659H2.75325C2.32754 5.41659 1.98242 5.7617 1.98242 6.18742C1.98242 6.61314 2.32754 6.95825 2.75326 6.95825H5.06576V10.0416H2.75325C2.32754 10.0416 1.98242 10.3867 1.98242 10.8124C1.98242 11.2381 2.32754 11.5833 2.75326 11.5833H5.06576V13.8958C5.06576 14.3215 5.41087 14.6666 5.83659 14.6666C6.26231 14.6666 6.60742 14.3215 6.60742 13.8958V11.5833H9.69076V13.8958C9.69076 14.3215 10.0359 14.6666 10.4616 14.6666C10.8873 14.6666 11.2324 14.3215 11.2324 13.8958V11.5833H13.5449C13.9706 11.5833 14.3158 11.2381 14.3158 10.8124C14.3158 10.3867 13.9706 10.0416 13.5449 10.0416H11.2324V6.95825H13.5449C13.9706 6.95825 14.3158 6.61314 14.3158 6.18742C14.3158 5.7617 13.9706 5.41659 13.5449 5.41659H11.2324V3.10408C11.2324 2.67837 10.8873 2.33325 10.4616 2.33325C10.0359 2.33325 9.69076 2.67837 9.69076 3.10409V5.41659H6.60742V3.10408C6.60742 2.67837 6.26231 2.33325 5.83659 2.33325ZM9.69076 10.0416V6.95825H6.60742V10.0416H9.69076Z" fill="#616161"/>
</svg>
