<svg width="24" height="24" viewBox="0 0 24 24" fill="none" xmlns="http://www.w3.org/2000/svg">
<path d="M12 1.5C6.20156 1.5 1.5 6.20156 1.5 12C1.5 17.7984 6.20156 22.5 12 22.5C17.7984 22.5 22.5 17.7984 22.5 12C22.5 6.20156 17.7984 1.5 12 1.5ZM18.1641 18.1641C17.3625 18.9656 16.4297 19.5937 15.3914 20.0344C14.3203 20.4891 13.1789 20.7188 12 20.7188C10.8211 20.7188 9.67969 20.4891 8.60625 20.0344C7.56954 19.5965 6.62785 18.9613 5.83359 18.1641C5.03203 17.3625 4.40391 16.4297 3.96328 15.3914C3.51094 14.3203 3.28125 13.1789 3.28125 12C3.28125 10.8211 3.51094 9.67969 3.96562 8.60625C4.40346 7.56954 5.03868 6.62785 5.83594 5.83359C6.6375 5.03203 7.57031 4.40391 8.60859 3.96328C9.67969 3.51094 10.8211 3.28125 12 3.28125C13.1789 3.28125 14.3203 3.51094 15.3937 3.96562C16.4305 4.40346 17.3721 5.03868 18.1664 5.83594C18.968 6.6375 19.5961 7.57031 20.0367 8.60859C20.4891 9.67969 20.7188 10.8211 20.7188 12C20.7188 13.1789 20.4891 14.3203 20.0344 15.3937C19.5971 16.4301 18.9618 17.3711 18.1641 18.1641Z" fill="#292929"/>
<path d="M11.2138 9.00015L12.7864 9.00015L12.7864 6.99989L11.2138 6.99989L11.2138 9.00015Z" fill="#292929"/>
<path d="M11.2138 17.0002L12.7864 17.0002L12.7864 11.0004L11.2138 11.0004L11.2138 17.0002Z" fill="#292929"/>
</svg>
