<svg width="17" height="17" viewBox="0 0 17 17" fill="none" xmlns="http://www.w3.org/2000/svg">
<path d="M14.7719 3.22321L14.0291 2.48041C14.0028 2.45433 13.9672 2.4397 13.9301 2.4397C13.8931 2.4397 13.8575 2.45433 13.8311 2.48041L2.72939 13.5787C2.70331 13.605 2.68868 13.6406 2.68868 13.6776C2.68868 13.7147 2.70331 13.7503 2.72939 13.7766L3.47219 14.5194C3.5265 14.5737 3.61585 14.5737 3.67016 14.5194L14.7702 3.41943C14.8262 3.36687 14.8262 3.27752 14.7719 3.22321ZM5.10671 7.37871C6.49772 7.37871 7.62944 6.24698 7.62944 4.85598C7.62944 3.46498 6.49772 2.33325 5.10671 2.33325C3.71571 2.33325 2.58398 3.46498 2.58398 4.85598C2.58398 6.24698 3.71571 7.37871 5.10671 7.37871ZM5.10671 3.59462C5.80221 3.59462 6.36808 4.16048 6.36808 4.85598C6.36808 5.55148 5.80221 6.11734 5.10671 6.11734C4.41121 6.11734 3.84535 5.55148 3.84535 4.85598C3.84535 4.16048 4.41121 3.59462 5.10671 3.59462ZM12.3946 9.62113C11.0036 9.62113 9.87186 10.7529 9.87186 12.1439C9.87186 13.5349 11.0036 14.6666 12.3946 14.6666C13.7856 14.6666 14.9173 13.5349 14.9173 12.1439C14.9173 10.7529 13.7856 9.62113 12.3946 9.62113ZM12.3946 13.4052C11.6991 13.4052 11.1332 12.8394 11.1332 12.1439C11.1332 11.4484 11.6991 10.8825 12.3946 10.8825C13.0901 10.8825 13.656 11.4484 13.656 12.1439C13.656 12.8394 13.0901 13.4052 12.3946 13.4052Z" fill="#616161"/>
</svg>
