<svg xmlns="http://www.w3.org/2000/svg" width="24" height="24" viewBox="0 0 24 24" fill="none">
<path d="M4 13.9999C5.37 13.9999 6.74 13.6499 8 12.9999C9.48779 13.7736 10.3436 13.9417 11.9748 13.7945L13.2987 11.6447C11.4045 12.1056 9.69373 11.8569 8 10.6699C6.78 11.5299 5.39 11.9999 4 11.9999H3C2.44772 11.9999 2 12.4476 2 12.9999C2 13.5522 2.44772 13.9999 3 13.9999H4Z" fill="#616161" fill-opacity="0.5"/>
<path d="M4 7.99992C5.37 7.99992 6.74 7.64992 8 6.99992C10.1744 8.13062 12.9339 8.28911 15.2068 7.45293L16.2704 4.66992C13.8304 6.37992 10.44 6.37992 8 4.66992C6.78 5.52992 5.39 5.99992 4 5.99992H3C2.44772 5.99992 2 6.44764 2 6.99992C2 7.55221 2.44772 7.99992 3 7.99992H4Z" fill="#616161" fill-opacity="0.5"/>
<path d="M4 19.9999C4.43896 19.9999 5.02067 19.9589 5.60861 19.9033C7.21981 19.7506 8.64888 18.8384 9.55873 17.4999C9.01871 17.2937 8.22554 16.9447 7.7302 16.5975C6.5102 17.4575 5.39 17.9999 4 17.9999H3C2.44772 17.9999 2 18.4476 2 18.9999C2 19.5522 2.44772 19.9999 3 19.9999H4Z" fill="#616161" fill-opacity="0.5"/>
<path d="M17 4.5C16.8255 4.99416 16.6135 5.60425 16.3821 6.27482C14.6322 11.3477 11.9171 16.0443 8.29099 20H21C21.5522 20 22 19.5523 22 19V5.5C22 4.94772 21.5522 4.5 21 4.5H17Z" fill="#616161" fill-opacity="0.5"/>
</svg>