<svg xmlns="http://www.w3.org/2000/svg" width="24" height="24" viewBox="0 0 24 24" fill="none">
<path d="M11.9006 15.975C11.9006 16.6083 12.0632 17.2377 12.3886 17.863C12.6174 18.3028 12.9551 18.8021 13.4019 19.3609C13.7369 19.7799 13.7075 20.3902 13.3112 20.7517C12.9164 21.1119 12.303 21.0924 11.9544 20.6873C11.3171 19.9468 10.8368 19.2593 10.5136 18.625C10.0889 17.7917 9.87623 16.925 9.87556 16.025C9.87556 15.3917 9.97156 14.725 10.1636 14.025C10.3556 13.325 10.6679 12.45 11.1006 11.4C11.5006 10.4167 11.7716 9.67933 11.9136 9.188C12.0556 8.69667 12.1262 8.24233 12.1256 7.825C12.1256 7.20833 11.9546 6.61667 11.6126 6.05C11.3826 5.66902 11.0418 5.24661 10.5901 4.78277C10.1987 4.38082 10.1689 3.73933 10.5549 3.33222C10.9278 2.93898 11.5497 2.91246 11.9308 3.2978C12.617 3.99178 13.1279 4.64251 13.4636 5.25C13.9056 6.05 14.1262 6.9 14.1256 7.8C14.1256 8.38333 14.0422 8.996 13.8756 9.638C13.7089 10.28 13.4089 11.1173 12.9756 12.15C12.5589 13.15 12.2756 13.9167 12.1256 14.45C11.9756 14.9833 11.9006 15.4917 11.9006 15.975ZM16.8006 15.975C16.8006 16.6083 16.9589 17.2377 17.2756 17.863C17.4981 18.3025 17.8318 18.8014 18.2766 19.3598C18.6103 19.7786 18.5782 20.3884 18.1791 20.7455C17.7872 21.0962 17.1845 21.0742 16.841 20.6758C16.1997 19.9319 15.7195 19.2443 15.4006 18.613C14.9839 17.7883 14.7756 16.9257 14.7756 16.025C14.7756 15.3917 14.8716 14.725 15.0636 14.025C15.2556 13.325 15.5679 12.45 16.0006 11.4C16.4006 10.4167 16.6716 9.67933 16.8136 9.188C16.9556 8.69667 17.0262 8.24233 17.0256 7.825C17.0256 7.20833 16.8506 6.61667 16.5006 6.05C16.2651 5.6688 15.9203 5.24612 15.4661 4.78196C15.0737 4.38092 15.044 3.73921 15.4301 3.33207C15.8029 2.93892 16.4246 2.91246 16.806 3.29731C17.4939 3.99147 18.0088 4.64237 18.3506 5.25C18.8006 6.05 19.0256 6.9 19.0256 7.8C19.0256 8.38333 18.9422 8.99567 18.7756 9.637C18.6089 10.2783 18.3089 11.116 17.8756 12.15C17.4589 13.15 17.1756 13.9167 17.0256 14.45C16.8756 14.9833 16.8006 15.4917 16.8006 15.975ZM7.02556 15.975C7.02556 16.6083 7.1879 17.2377 7.51256 17.863C7.74091 18.3028 8.07876 18.8022 8.52609 19.3611C8.86137 19.7799 8.83225 20.3904 8.43587 20.752C8.04123 21.112 7.42814 21.0926 7.07968 20.6877C6.44224 19.947 5.96187 19.2594 5.63856 18.625C5.2139 17.7917 5.00123 16.925 5.00056 16.025C5.00056 15.3917 5.09656 14.725 5.28856 14.025C5.48056 13.325 5.7929 12.45 6.22556 11.4C6.62556 10.4167 6.89656 9.67933 7.03856 9.188C7.18056 8.69667 7.25123 8.24233 7.25056 7.825C7.25056 7.20833 7.07956 6.61667 6.73756 6.05C6.50552 5.66553 6.1607 5.23886 5.7031 4.77C5.31709 4.37449 5.2851 3.7436 5.6617 3.33911C6.03038 2.94312 6.65196 2.91398 7.03267 3.29843C7.71966 3.99217 8.23395 4.6427 8.57556 5.25C9.02556 6.05 9.25056 6.9 9.25056 7.8C9.25056 8.38333 9.16723 8.996 9.00056 9.638C8.8339 10.28 8.5339 11.1173 8.10056 12.15C7.6839 13.15 7.40056 13.9167 7.25056 14.45C7.10056 14.9833 7.02556 15.4917 7.02556 15.975Z" fill="#616161" fill-opacity="0.5"/>
</svg>