<svg xmlns="http://www.w3.org/2000/svg" width="24" height="24" viewBox="0 0 24 24" fill="none">
<path d="M20 11.9999H21C21.5523 11.9999 22 12.4476 22 12.9999C22 13.5522 21.5523 13.9999 21 13.9999H20C18.62 13.9999 17.26 13.6499 16 12.9999C13.5 14.2999 10.5 14.2999 8 12.9999C6.74 13.6499 5.37 13.9999 4 13.9999H3C2.44772 13.9999 2 13.5522 2 12.9999C2 12.4476 2.44772 11.9999 3 11.9999H4C5.39 11.9999 6.78 11.5299 8 10.6699C10.44 12.3799 13.56 12.3799 16 10.6699C17.22 11.5299 18.61 11.9999 20 11.9999ZM20 5.99992H21C21.5523 5.99992 22 6.44764 22 6.99992C22 7.55221 21.5523 7.99992 21 7.99992H20C18.62 7.99992 17.26 7.64992 16 6.99992C13.5 8.29992 10.5 8.29992 8 6.99992C6.74 7.64992 5.37 7.99992 4 7.99992H3C2.44772 7.99992 2 7.55221 2 6.99992C2 6.44764 2.44772 5.99992 3 5.99992H4C5.39 5.99992 6.78 5.52992 8 4.66992C10.44 6.37992 13.56 6.37992 16 4.66992C17.22 5.52992 18.61 5.99992 20 5.99992ZM20 17.9999H21C21.5523 17.9999 22 18.4476 22 18.9999C22 19.5522 21.5523 19.9999 21 19.9999H20C18.62 19.9999 17.26 19.6499 16 18.9999C13.5 20.2999 10.5 20.2999 8 18.9999C6.74 19.6499 5.37 19.9999 4 19.9999H3C2.44772 19.9999 2 19.5522 2 18.9999C2 18.4476 2.44772 17.9999 3 17.9999H4C5.39 17.9999 6.78 17.5299 8 16.6699C10.44 18.3799 13.56 18.3799 16 16.6699C17.22 17.5299 18.61 17.9999 20 17.9999Z" fill="#616161" fill-opacity="0.5"/>
</svg>