<svg width="24" height="24" viewBox="0 0 24 24" fill="none" xmlns="http://www.w3.org/2000/svg">
<path d="M12 9.51724C16.4183 9.51724 20 8.28216 20 6.75862C20 5.23508 16.4183 4 12 4C7.58172 4 4 5.23508 4 6.75862C4 8.28216 7.58172 9.51724 12 9.51724Z" stroke="#616161" stroke-width="2.4" stroke-linecap="round" stroke-linejoin="round"/>
<path d="M6.708 9.51709C5.048 10.0951 4 10.94 4 11.8816C4 13.623 7.5816 15.0343 12 15.0343C16.4184 15.0343 20 13.623 20 11.8816C20 10.94 18.9524 10.0951 17.292 9.51709C15.8816 10.0073 14.0288 10.3053 12 10.3053C9.9712 10.3053 8.1188 10.0073 6.708 9.51709Z" stroke="#616161" stroke-width="2.4" stroke-linecap="round" stroke-linejoin="round"/>
<path d="M6.708 14.4829C5.048 15.0609 4 15.9058 4 16.8474C4 18.5888 7.5816 20.0002 12 20.0002C16.4184 20.0002 20 18.5888 20 16.8474C20 15.9058 18.9524 15.0609 17.292 14.4829C15.8816 14.9732 14.0288 15.2711 12 15.2711C9.9712 15.2711 8.1188 14.9732 6.708 14.4829Z" stroke="#616161" stroke-width="2.4" stroke-linecap="round" stroke-linejoin="round"/>
</svg>
