<svg xmlns="http://www.w3.org/2000/svg" width="24" height="24" viewBox="0 0 24 24" fill="none">
<g clip-path="url(#clip0_17200_14295)">
<path d="M13.9797 23.4795C13.8404 23.2992 13.7544 23.0834 13.7316 22.8567C13.7088 22.63 13.7501 22.4014 13.8507 22.197C14.1147 21.684 14.2182 21.0975 14.1507 20.52C14.0954 20.1079 13.9593 19.7108 13.7502 19.3515C13.5438 18.9968 13.2677 18.6876 12.9387 18.4425C11.8172 17.5996 11.0302 16.387 10.7172 15.0195C8.15517 18.378 9.13766 20.2845 10.3647 21.9645C10.5085 22.1614 10.5843 22.3999 10.5805 22.6437C10.5767 22.8876 10.4936 23.1236 10.3437 23.316C10.1909 23.5106 9.98593 23.6579 9.75267 23.7405C9.5221 23.8214 9.27294 23.8334 9.03567 23.775C7.37817 23.37 5.81817 22.599 4.76067 21.3705C4.16122 20.6881 3.69971 19.896 3.40166 19.038C3.10023 18.1727 2.96634 17.2579 3.00717 16.3425C3.00717 16.3425 2.80766 12.648 7.26266 9.02847C7.26266 9.02847 12.5277 4.56147 10.7007 1.25847C10.6333 1.09599 10.6134 0.917778 10.6431 0.74444C10.6729 0.571102 10.7511 0.409722 10.8687 0.278966C10.983 0.150765 11.134 0.06084 11.3012 0.0213937C11.4683 -0.0180525 11.6436 -0.00510957 11.8032 0.0584661L12.0222 0.145466C14.0053 1.39903 15.5552 3.23176 16.4622 5.39547C17.3322 7.51497 17.3262 9.98547 16.7382 12.186C17.2257 11.748 17.6322 11.2245 17.9397 10.6365L17.9832 10.5405C18.2802 9.82497 19.2147 10.053 19.5657 10.521C19.6947 10.7265 23.0037 15.5355 21.2262 19.593C20.5763 20.8223 19.627 21.868 18.4662 22.6335C17.4921 23.2799 16.4036 23.7345 15.2592 23.973C15.0226 24.0228 14.7767 24.003 14.5512 23.916C14.3236 23.8275 14.1256 23.6767 13.9797 23.481V23.4795ZM11.3307 11.838C11.4707 11.765 11.633 11.747 11.7856 11.7875C11.9383 11.828 12.0703 11.9241 12.1557 12.057C12.2157 12.1455 12.2547 12.246 12.2682 12.354L12.3357 12.8775C12.3657 13.644 12.3567 14.445 12.6552 15.1815C12.9642 15.9375 13.4442 16.6065 14.0532 17.1285C14.8377 17.6447 15.445 18.3892 15.7932 19.2615C16.1232 20.1075 16.1682 21.0465 15.9192 21.921C16.681 21.6807 17.389 21.2951 18.0042 20.7855L18.1587 20.6595C18.6627 20.244 19.0782 19.725 19.3782 19.134C19.6797 18.5445 19.8612 17.8965 19.9092 17.2305C20.0067 15.693 19.4832 14.1495 18.6687 12.7725C18.2967 13.3125 17.7837 13.731 17.1912 13.9785C16.8207 14.136 16.4277 14.2335 16.0272 14.2635C15.7978 14.2782 15.569 14.2261 15.3687 14.1135C15.1652 13.9979 14.9984 13.8274 14.8872 13.6215C14.7951 13.4554 14.7425 13.2705 14.7334 13.0808C14.7243 12.8912 14.759 12.7021 14.8347 12.528C15.4527 11.07 15.6447 9.45297 15.3822 7.88247C15.0714 6.08567 14.2109 4.42954 12.9192 3.14247C12.6852 6.44997 9.29366 9.52947 8.59766 10.1925C8.48978 10.2941 8.37768 10.3912 8.26166 10.4835C4.62266 13.431 4.87167 16.116 4.87167 16.2345C4.7994 17.3011 5.0386 18.3658 5.56017 19.299C6.10767 20.2665 6.89517 21.0645 7.84017 21.609C6.74967 19.212 6.74967 16.335 10.7742 12.21L11.3322 11.835L11.3307 11.838Z" fill="#616161" fill-opacity="0.5"/>
</g>
<defs>
<clipPath id="clip0_17200_14295">
<rect width="24" height="24" fill="white"/>
</clipPath>
</defs>
</svg>