<svg width="15" height="16" viewBox="0 0 15 16" fill="none" xmlns="http://www.w3.org/2000/svg">
<path d="M10.0781 4.36719C10.0781 4.30273 10.0254 4.25 9.96094 4.25H4.33594C4.27148 4.25 4.21875 4.30273 4.21875 4.36719V5.07031C4.21875 5.13477 4.27148 5.1875 4.33594 5.1875H9.96094C10.0254 5.1875 10.0781 5.13477 10.0781 5.07031V4.36719ZM9.96094 6.35938H4.33594C4.27148 6.35938 4.21875 6.41211 4.21875 6.47656V7.17969C4.21875 7.24414 4.27148 7.29688 4.33594 7.29688H9.96094C10.0254 7.29688 10.0781 7.24414 10.0781 7.17969V6.47656C10.0781 6.41211 10.0254 6.35938 9.96094 6.35938ZM10.0137 8.46875H4.33594C4.27148 8.46875 4.21875 8.52148 4.21875 8.58594V9.28906C4.21875 9.35352 4.27148 9.40625 4.33594 9.40625H10.0137C10.0781 9.40625 10.1309 9.35352 10.1309 9.28906V8.58594C10.1309 8.52148 10.0781 8.46875 10.0137 8.46875ZM12.1875 12.9805H3.04688V2.66797H11.25V13.918C11.25 13.9824 11.3027 14.0352 11.3672 14.0352H12.1875C12.252 14.0352 12.3047 13.9824 12.3047 13.918V2.08203C12.3047 1.82275 12.0952 1.61328 11.8359 1.61328H2.46094C2.20166 1.61328 1.99219 1.82275 1.99219 2.08203V13.5664C1.99219 13.8257 2.20166 14.0352 2.46094 14.0352H12.1875C12.252 14.0352 12.3047 13.9824 12.3047 13.918V13.0977C12.3047 13.0332 12.252 12.9805 12.1875 12.9805Z" fill="#292929"/>
<path d="M4.33594 10.5851H10.0137C10.0781 10.5851 10.1309 10.6378 10.1309 10.7023V11.4054C10.1309 11.4699 10.0781 11.5226 10.0137 11.5226H4.33594C4.27148 11.5226 4.21875 11.4699 4.21875 11.4054V10.7023C4.21875 10.6378 4.27148 10.5851 4.33594 10.5851Z" fill="#292929"/>
</svg>
