<svg width="25" height="24" viewBox="0 0 25 24" fill="none" xmlns="http://www.w3.org/2000/svg">
<path fill-rule="evenodd" clip-rule="evenodd" d="M12.5 2.4502C13.0523 2.4502 13.5 2.89791 13.5 3.4502V12.436L15.5929 10.3431C15.9834 9.95256 16.6166 9.95256 17.0071 10.3431C17.3976 10.7336 17.3976 11.3668 17.0071 11.7573L13.2071 15.5573C13.0196 15.7448 12.7652 15.8502 12.5 15.8502C12.2348 15.8502 11.9804 15.7448 11.7929 15.5573L7.99289 11.7573C7.60237 11.3668 7.60237 10.7336 7.99289 10.3431C8.38342 9.95256 9.01658 9.95256 9.40711 10.3431L11.5 12.436V3.4502C11.5 2.89791 11.9477 2.4502 12.5 2.4502Z" fill="#292929"/>
<path d="M19.5701 21.5502H5.43012C4.79012 21.5502 4.15012 21.3302 3.65012 20.9402C3.14012 20.5402 2.78012 19.9802 2.62012 19.3602L2.03012 16.9902C1.90012 16.4602 2.22012 15.9202 2.76012 15.7802C3.29012 15.6502 3.84012 15.9702 3.97012 16.5102L4.56012 18.8702C4.61012 19.0602 4.72012 19.2402 4.88012 19.3602C5.04012 19.4802 5.23012 19.5502 5.43012 19.5502H19.5601C19.7601 19.5502 19.9601 19.4802 20.1101 19.3602C20.2601 19.2402 20.3801 19.0602 20.4301 18.8702L21.0201 16.5102C21.1501 15.9702 21.7001 15.6402 22.2301 15.7802C22.7701 15.9102 23.0901 16.4602 22.9601 16.9902L22.3701 19.3502C22.2101 19.9702 21.8501 20.5402 21.3401 20.9302C20.8301 21.3302 20.2001 21.5402 19.5601 21.5402L19.5701 21.5502Z" fill="#292929"/>
</svg>
