<svg width="15" height="16" viewBox="0 0 15 16" fill="none" xmlns="http://www.w3.org/2000/svg">
<path d="M2.46061 7.88574C2.47526 7.24561 2.60709 6.62451 2.85465 6.04004C3.10807 5.43945 3.47135 4.90186 3.93424 4.4375C4.39713 3.97314 4.93619 3.60986 5.53678 3.35645C6.15787 3.09424 6.81705 2.96094 7.49821 2.96094C8.17936 2.96094 8.83854 3.09424 9.45817 3.35645C10.057 3.60934 10.6009 3.97654 11.0592 4.4375C11.2043 4.58252 11.3405 4.73633 11.4665 4.89746L10.5846 5.58594C10.5672 5.59944 10.5539 5.61758 10.5463 5.63829C10.5387 5.65901 10.5371 5.68144 10.5417 5.70302C10.5463 5.72459 10.5569 5.74443 10.5723 5.76026C10.5876 5.77609 10.6071 5.78726 10.6286 5.79248L13.2023 6.42236C13.2755 6.43994 13.3473 6.38428 13.3473 6.30957L13.359 3.65967C13.359 3.56152 13.2463 3.50586 13.1701 3.56738L12.3439 4.21338C11.2174 2.77197 9.46549 1.84766 7.49674 1.84766C4.14078 1.84766 1.41031 4.53711 1.34733 7.87988C1.34694 7.89552 1.34968 7.91107 1.35539 7.92563C1.36111 7.94019 1.36968 7.95345 1.3806 7.96465C1.39152 7.97584 1.40457 7.98474 1.41898 7.99081C1.43339 7.99688 1.44888 8 1.46451 8H2.34342C2.40787 8 2.45914 7.94873 2.46061 7.88574ZM13.5348 8H12.6559C12.5915 8 12.5402 8.05127 12.5387 8.11426C12.5241 8.75439 12.3922 9.37549 12.1447 9.95996C11.8913 10.5605 11.528 11.0996 11.0651 11.5625C10.5979 12.0316 10.0424 12.4037 9.43073 12.6571C8.81905 12.9105 8.16324 13.0403 7.50114 13.0391C6.83925 13.0403 6.18367 12.9105 5.57223 12.657C4.96078 12.4036 4.40557 12.0316 3.93864 11.5625C3.79362 11.4175 3.65739 11.2637 3.53141 11.1025L4.41324 10.4141C4.43069 10.4006 4.44398 10.3824 4.45157 10.3617C4.45916 10.341 4.46075 10.3186 4.45616 10.297C4.45157 10.2754 4.44099 10.2556 4.42562 10.2397C4.41025 10.2239 4.39073 10.2127 4.3693 10.2075L1.79557 9.57764C1.72233 9.56006 1.65055 9.61572 1.65055 9.69043L1.6403 12.3418C1.6403 12.4399 1.75309 12.4956 1.82926 12.4341L2.65543 11.7881C3.7819 13.228 5.53385 14.1523 7.5026 14.1523C10.86 14.1523 13.589 11.4614 13.652 8.12012C13.6524 8.10448 13.6497 8.08893 13.6439 8.07437C13.6382 8.05981 13.6297 8.04655 13.6187 8.03535C13.6078 8.02416 13.5948 8.01526 13.5804 8.00919C13.5659 8.00312 13.5505 8 13.5348 8V8Z" fill="#292929"/>
</svg>
