<svg width="15" height="16" viewBox="0 0 15 16" fill="none" xmlns="http://www.w3.org/2000/svg">
<path d="M7.08984 11.5449V10.7686C6.96893 10.6817 6.87867 10.5588 6.83207 10.4174C6.78548 10.276 6.78494 10.1235 6.83054 9.98184C6.87614 9.84014 6.96552 9.71656 7.08582 9.6289C7.20613 9.54123 7.35114 9.494 7.5 9.494C7.64886 9.494 7.79387 9.54123 7.91417 9.6289C8.03448 9.71656 8.12386 9.84014 8.16946 9.98184C8.21506 10.1235 8.21452 10.276 8.16793 10.4174C8.12133 10.5588 8.03107 10.6817 7.91016 10.7686V11.5449C7.91016 11.6094 7.85742 11.6621 7.79297 11.6621H7.20703C7.14258 11.6621 7.08984 11.6094 7.08984 11.5449Z" fill="#292929"/>
<path fill-rule="evenodd" clip-rule="evenodd" d="M11.1554 3.64782C10.9844 2.78833 10.2262 2.14062 9.31641 2.14062H5.68359C4.64795 2.14062 3.80859 2.97998 3.80859 4.01562V7.29688H2.8125C2.55322 7.29688 2.34375 7.50635 2.34375 7.76562V13.3906C2.34375 13.6499 2.55322 13.8594 2.8125 13.8594H12.1875C12.4468 13.8594 12.6562 13.6499 12.6562 13.3906V7.76562C12.6562 7.52044 12.4689 7.3198 12.2293 7.29871H9.89578V7.29688H4.86328V4.01562C4.86328 3.56299 5.23096 3.19531 5.68359 3.19531H9.31641C9.63685 3.19531 9.9147 3.37958 10.0497 3.64782H11.1554ZM3.39844 8.35156V12.8047H11.6016V8.35156H3.39844Z" fill="#292929"/>
</svg>
