<svg width="15" height="16" viewBox="0 0 15 16" fill="none" xmlns="http://www.w3.org/2000/svg">
<path d="M8.90562 2.14062C6.44615 2.14062 4.4525 4.13428 4.4525 6.59375C4.4525 7.62354 4.8026 8.57129 5.38853 9.32568L4.78648 9.92773L3.87389 9.01514C3.85158 8.99331 3.8216 8.98108 3.79039 8.98108C3.75918 8.98108 3.7292 8.99331 3.70689 9.01514L3.12389 9.59814C3.10206 9.62045 3.08983 9.65043 3.08983 9.68164C3.08983 9.71285 3.10206 9.74283 3.12389 9.76514L4.03648 10.6777L3.37877 11.3354L2.46617 10.4229C2.44386 10.401 2.41389 10.3888 2.38268 10.3888C2.35146 10.3888 2.32149 10.401 2.29918 10.4229L1.71617 11.0059C1.69434 11.0282 1.68212 11.0581 1.68212 11.0894C1.68212 11.1206 1.69434 11.1505 1.71617 11.1729L2.62877 12.0854L1.67223 13.042C1.65042 13.064 1.63818 13.0938 1.63818 13.1248C1.63818 13.1558 1.65042 13.1855 1.67223 13.2075L2.29186 13.8271C2.33727 13.8726 2.41197 13.8726 2.45738 13.8271L6.17223 10.1123C6.95423 10.7189 7.91597 11.0477 8.90562 11.0469C11.3651 11.0469 13.3588 9.05322 13.3588 6.59375C13.3588 4.13428 11.3651 2.14062 8.90562 2.14062ZM11.267 8.95508C10.6371 9.58643 9.79771 9.93359 8.90562 9.93359C8.01354 9.93359 7.17418 9.58643 6.5443 8.95508C5.91295 8.3252 5.56578 7.48584 5.56578 6.59375C5.56578 5.70166 5.91295 4.8623 6.5443 4.23242C7.17418 3.60107 8.01354 3.25391 8.90562 3.25391C9.79771 3.25391 10.6371 3.60107 11.267 4.23242C11.8983 4.8623 12.2455 5.70166 12.2455 6.59375C12.2455 7.48584 11.8983 8.3252 11.267 8.95508Z" fill="#292929"/>
</svg>
