<svg width="25" height="24" viewBox="0 0 25 24" fill="none" xmlns="http://www.w3.org/2000/svg">
<path d="M7.59095 21C7.14095 21 6.75559 20.8396 6.43486 20.5189C6.11414 20.1982 5.95405 19.8131 5.95459 19.3636V10.3636C5.95459 9.91364 6.11495 9.52827 6.43568 9.20754C6.75641 8.88682 7.1415 8.72673 7.59095 8.72727H10.0455V10.3636H7.59095V19.3636H17.4091V10.3636H14.9546V8.72727H17.4091C17.8591 8.72727 18.2445 8.88764 18.5652 9.20836C18.886 9.52909 19.046 9.91418 19.0455 10.3636V19.3636C19.0455 19.8136 18.8851 20.199 18.5644 20.5197C18.2437 20.8405 17.8586 21.0005 17.4091 21H7.59095ZM11.6819 15.2727V6.12954L10.3728 7.43864L9.22732 6.27273L12.5 3L15.7728 6.27273L14.6273 7.43864L13.3182 6.12954V15.2727H11.6819Z" fill="#292929"/>
</svg>
