<svg width="16" height="17" viewBox="0 0 16 17" fill="none" xmlns="http://www.w3.org/2000/svg">
<path d="M8 11.8333C8.18889 11.8333 8.34733 11.7693 8.47533 11.6413C8.60289 11.5138 8.66667 11.3556 8.66667 11.1667V9.16667H10.6667C10.8556 9.16667 11.0138 9.10267 11.1413 8.97467C11.2693 8.84711 11.3333 8.68889 11.3333 8.5C11.3333 8.31111 11.2693 8.15267 11.1413 8.02467C11.0138 7.89711 10.8556 7.83333 10.6667 7.83333H8.66667V5.83333C8.66667 5.64444 8.60289 5.486 8.47533 5.358C8.34733 5.23044 8.18889 5.16667 8 5.16667C7.81111 5.16667 7.65289 5.23044 7.52533 5.358C7.39733 5.486 7.33333 5.64444 7.33333 5.83333V7.83333H5.33333C5.14444 7.83333 4.986 7.89711 4.858 8.02467C4.73044 8.15267 4.66667 8.31111 4.66667 8.5C4.66667 8.68889 4.73044 8.84711 4.858 8.97467C4.986 9.10267 5.14444 9.16667 5.33333 9.16667H7.33333V11.1667C7.33333 11.3556 7.39733 11.5138 7.52533 11.6413C7.65289 11.7693 7.81111 11.8333 8 11.8333ZM3.33333 14.5C2.96667 14.5 2.65267 14.3696 2.39133 14.1087C2.13044 13.8473 2 13.5333 2 13.1667V3.83333C2 3.46667 2.13044 3.15267 2.39133 2.89133C2.65267 2.63044 2.96667 2.5 3.33333 2.5H12.6667C13.0333 2.5 13.3473 2.63044 13.6087 2.89133C13.8696 3.15267 14 3.46667 14 3.83333V13.1667C14 13.5333 13.8696 13.8473 13.6087 14.1087C13.3473 14.3696 13.0333 14.5 12.6667 14.5H3.33333Z" fill="#616161"/>
</svg>
