<svg width="16" height="15" viewBox="0 0 16 15" fill="none" xmlns="http://www.w3.org/2000/svg">
<path d="M11.068 6.92297H8.38181V4.23676C8.38181 4.08372 8.32101 3.93695 8.2128 3.82874C8.10459 3.72052 7.95782 3.65973 7.80478 3.65973C7.65174 3.65973 7.50497 3.72052 7.39675 3.82874C7.28854 3.93695 7.22774 4.08372 7.22774 4.23676V6.92297H4.54224C4.46553 6.91944 4.38893 6.93195 4.31732 6.9597C4.24571 6.98745 4.18068 7.02983 4.12638 7.08414C4.07208 7.13844 4.0297 7.20347 4.00195 7.27507C3.9742 7.34668 3.96169 7.42329 3.96521 7.5C3.96265 7.57647 3.97582 7.65265 4.00391 7.72382C4.032 7.79499 4.07441 7.85963 4.12852 7.91373C4.18262 7.96783 4.24726 8.01024 4.31843 8.03833C4.38959 8.06643 4.46578 8.0796 4.54224 8.07703H7.22845V10.7632C7.22589 10.8397 7.23906 10.9159 7.26715 10.9871C7.29524 11.0582 7.33765 11.1229 7.39176 11.177C7.44586 11.2311 7.5105 11.2735 7.58167 11.3016C7.65283 11.3297 7.72902 11.3428 7.80548 11.3403C7.88137 11.3406 7.95657 11.326 8.02675 11.2971C8.09693 11.2682 8.16069 11.2258 8.21434 11.1721C8.268 11.1184 8.31049 11.0547 8.33936 10.9845C8.36822 10.9143 8.38289 10.8391 8.38252 10.7632V8.07632H11.0687C11.1445 8.07632 11.2195 8.0614 11.2895 8.0324C11.3596 8.0034 11.4232 7.9609 11.4767 7.90732C11.5303 7.85373 11.5728 7.79012 11.6018 7.72011C11.6308 7.6501 11.6458 7.57507 11.6458 7.49929C11.6458 7.42352 11.6308 7.34848 11.6018 7.27847C11.5728 7.20846 11.5303 7.14485 11.4767 7.09127C11.4232 7.03769 11.3596 6.99518 11.2895 6.96618C11.2195 6.93719 11.1445 6.92226 11.0687 6.92226L11.068 6.92297Z" fill="#009999" stroke="#009999" stroke-width="0.666667"/>
</svg>
