<svg width="18" height="15" viewBox="0 0 18 15" fill="none" xmlns="http://www.w3.org/2000/svg">
<path d="M1 9.0957H3C3.55 9.0957 4 8.6457 4 8.0957V6.0957C4 5.5457 3.55 5.0957 3 5.0957H1C0.45 5.0957 0 5.5457 0 6.0957V8.0957C0 8.6457 0.45 9.0957 1 9.0957ZM1 14.0957H3C3.55 14.0957 4 13.6457 4 13.0957V11.0957C4 10.5457 3.55 10.0957 3 10.0957H1C0.45 10.0957 0 10.5457 0 11.0957V13.0957C0 13.6457 0.45 14.0957 1 14.0957ZM1 4.0957H3C3.55 4.0957 4 3.6457 4 3.0957V1.0957C4 0.545703 3.55 0.0957031 3 0.0957031H1C0.45 0.0957031 0 0.545703 0 1.0957V3.0957C0 3.6457 0.45 4.0957 1 4.0957ZM6 9.0957H17C17.55 9.0957 18 8.6457 18 8.0957V6.0957C18 5.5457 17.55 5.0957 17 5.0957H6C5.45 5.0957 5 5.5457 5 6.0957V8.0957C5 8.6457 5.45 9.0957 6 9.0957ZM6 14.0957H17C17.55 14.0957 18 13.6457 18 13.0957V11.0957C18 10.5457 17.55 10.0957 17 10.0957H6C5.45 10.0957 5 10.5457 5 11.0957V13.0957C5 13.6457 5.45 14.0957 6 14.0957ZM5 1.0957V3.0957C5 3.6457 5.45 4.0957 6 4.0957H17C17.55 4.0957 18 3.6457 18 3.0957V1.0957C18 0.545703 17.55 0.0957031 17 0.0957031H6C5.45 0.0957031 5 0.545703 5 1.0957Z" fill="#009999"/>
</svg>
