<svg width="12" height="12" viewBox="0 0 12 12" fill="none" xmlns="http://www.w3.org/2000/svg">
<path d="M4.5 4.5H5.25V9H4.5V4.5Z" fill="#810000"/>
<path d="M6.75 4.5H7.5V9H6.75V4.5Z" fill="#810000"/>
<path d="M1.5 2.25V3H2.25V10.5C2.25 10.6989 2.32902 10.8897 2.46967 11.0303C2.61032 11.171 2.80109 11.25 3 11.25H9C9.19891 11.25 9.38968 11.171 9.53033 11.0303C9.67098 10.8897 9.75 10.6989 9.75 10.5V3H10.5V2.25H1.5ZM3 10.5V3H9V10.5H3Z" fill="#810000"/>
<path d="M4.5 0.75H7.5V1.5H4.5V0.75Z" fill="#810000"/>
</svg>
