<svg width="11" height="11" viewBox="0 0 11 11" fill="none" xmlns="http://www.w3.org/2000/svg">
<path d="M6.23811 4.98334L8.75441 1.98391C8.79658 1.93407 8.76112 1.85834 8.69593 1.85834H7.93098C7.88592 1.85834 7.84279 1.87847 7.81307 1.91298L5.73773 4.38709L3.66238 1.91298C3.63363 1.87847 3.59049 1.85834 3.54448 1.85834H2.77952C2.71434 1.85834 2.67887 1.93407 2.72105 1.98391L5.23734 4.98334L2.72105 7.98276C2.7116 7.99387 2.70554 8.00746 2.70358 8.02191C2.70163 8.03637 2.70386 8.05108 2.71002 8.0643C2.71618 8.07752 2.726 8.0887 2.73832 8.0965C2.75064 8.10431 2.76494 8.10842 2.77952 8.10834H3.54448C3.58953 8.10834 3.63267 8.08821 3.66238 8.0537L5.73773 5.57958L7.81307 8.0537C7.84183 8.08821 7.88497 8.10834 7.93098 8.10834H8.69593C8.76112 8.10834 8.79658 8.03261 8.75441 7.98276L6.23811 4.98334Z" fill="#616161"/>
</svg>
