<svg width="12" height="12" viewBox="0 0 12 12" fill="none" xmlns="http://www.w3.org/2000/svg">
<path d="M8.8125 2.8125H1.6875C1.48008 2.8125 1.3125 2.98008 1.3125 3.1875V10.3125C1.3125 10.5199 1.48008 10.6875 1.6875 10.6875H8.8125C9.01992 10.6875 9.1875 10.5199 9.1875 10.3125V3.1875C9.1875 2.98008 9.01992 2.8125 8.8125 2.8125ZM8.34375 9.84375H2.15625V3.65625H8.34375V9.84375ZM10.3125 1.3125H3.09375C3.04219 1.3125 3 1.35469 3 1.40625V2.0625C3 2.11406 3.04219 2.15625 3.09375 2.15625H9.84375V8.90625C9.84375 8.95781 9.88594 9 9.9375 9H10.5938C10.6453 9 10.6875 8.95781 10.6875 8.90625V1.6875C10.6875 1.48008 10.5199 1.3125 10.3125 1.3125Z" fill="#292929"/>
</svg>
