<svg width="15" height="15" viewBox="0 0 15 15" fill="none" xmlns="http://www.w3.org/2000/svg">
<rect x="0.3125" y="0.3125" width="14.375" height="14.375" rx="2.8125" fill="white"/>
<path d="M7.93281 7.29169L10.4491 4.29226C10.4913 4.24242 10.4558 4.16669 10.3906 4.16669H9.62568C9.58063 4.16669 9.53749 4.18682 9.50777 4.22133L7.43243 6.69544L5.35709 4.22133C5.32833 4.18682 5.28519 4.16669 5.23918 4.16669H4.47422C4.40904 4.16669 4.37357 4.24242 4.41575 4.29226L6.93205 7.29169L4.41575 10.2911C4.4063 10.3022 4.40024 10.3158 4.39829 10.3303C4.39633 10.3447 4.39856 10.3594 4.40472 10.3726C4.41088 10.3859 4.4207 10.397 4.43302 10.4049C4.44534 10.4127 4.45964 10.4168 4.47422 10.4167H5.23918C5.28423 10.4167 5.32737 10.3966 5.35709 10.362L7.43243 7.88793L9.50777 10.362C9.53653 10.3966 9.57967 10.4167 9.62568 10.4167H10.3906C10.4558 10.4167 10.4913 10.341 10.4491 10.2911L7.93281 7.29169Z" fill="#810000"/>
<rect x="0.3125" y="0.3125" width="14.375" height="14.375" rx="2.8125" stroke="#DDDDDD" stroke-width="0.625"/>
</svg>
