<svg width="13" height="12" viewBox="0 0 13 12" fill="none" xmlns="http://www.w3.org/2000/svg">
<path fill-rule="evenodd" clip-rule="evenodd" d="M5.18588 11.3125C5.18588 10.9673 5.4657 10.6875 5.81088 10.6875H11.813C12.1582 10.6875 12.438 10.9673 12.438 11.3125C12.438 11.6577 12.1582 11.9375 11.813 11.9375H5.81088C5.4657 11.9375 5.18588 11.6577 5.18588 11.3125Z" fill="#B5B5B5"/>
<path fill-rule="evenodd" clip-rule="evenodd" d="M9.97923 1.3125C9.82705 1.3125 9.67338 1.37617 9.55429 1.50224L2.34366 9.13523L2.03544 10.4421L3.20276 10.1336L10.404 2.50557C10.5243 2.37829 10.5977 2.1983 10.5977 2.00383C10.5977 1.80936 10.5244 1.62951 10.4042 1.50224C10.2851 1.37617 10.1314 1.3125 9.97923 1.3125ZM8.64562 0.643851C8.99293 0.276201 9.47183 0.0625 9.97923 0.0625C10.4866 0.0625 10.9655 0.276201 11.3128 0.643851C11.659 1.01029 11.8477 1.50007 11.8477 2.00383C11.8477 2.50752 11.6591 2.99723 11.313 3.36366L3.9893 11.1213C3.9093 11.206 3.8072 11.2667 3.69453 11.2965L1.3477 11.9168C1.13544 11.9729 0.909318 11.9135 0.752014 11.7603C0.594709 11.6072 0.529295 11.3827 0.579692 11.169L1.16562 8.68473C1.19089 8.57759 1.244 8.47903 1.31959 8.39901L8.64562 0.643851Z" fill="#B5B5B5"/>
</svg>
