<svg width="17" height="16" viewBox="0 0 17 16" fill="none" xmlns="http://www.w3.org/2000/svg">
<path d="M7.83335 13.3334C7.64446 13.3334 7.48624 13.2694 7.35869 13.1414C7.23069 13.0138 7.16669 12.8556 7.16669 12.6667V8.66669L3.30002 3.73335C3.13335 3.51113 3.10846 3.2778 3.22535 3.03335C3.3418 2.78891 3.54446 2.66669 3.83335 2.66669H13.1667C13.4556 2.66669 13.6585 2.78891 13.7754 3.03335C13.8918 3.2778 13.8667 3.51113 13.7 3.73335L9.83335 8.66669V12.6667C9.83335 12.8556 9.76958 13.0138 9.64202 13.1414C9.51402 13.2694 9.35558 13.3334 9.16669 13.3334H7.83335ZM8.50002 8.66669L12.5 3.66669H4.50002L8.50002 8.66669Z" fill="#4A7182"/>
</svg>
