<svg width="11" height="11" viewBox="0 0 11 11" fill="none" xmlns="http://www.w3.org/2000/svg">
<path d="M5.67551 5.08529L8.43918 1.8859C8.48551 1.83273 8.44655 1.75195 8.37496 1.75195H7.5348C7.48532 1.75195 7.43794 1.77343 7.40531 1.81024L5.12594 4.44929L2.84657 1.81024C2.81498 1.77343 2.7676 1.75195 2.71707 1.75195H1.87691C1.80532 1.75195 1.76637 1.83273 1.81269 1.8859L4.57636 5.08529L1.81269 8.28467C1.80231 8.29652 1.79566 8.31102 1.79351 8.32643C1.79136 8.34185 1.79381 8.35754 1.80058 8.37164C1.80734 8.38575 1.81813 8.39767 1.83166 8.406C1.84519 8.41432 1.86089 8.4187 1.87691 8.41862H2.71707C2.76655 8.41862 2.81393 8.39715 2.84657 8.36034L5.12594 5.72128L7.40531 8.36034C7.43689 8.39715 7.48427 8.41862 7.5348 8.41862H8.37496C8.44655 8.41862 8.48551 8.33784 8.43918 8.28467L5.67551 5.08529Z" fill="#616161"/>
</svg>
