<svg width="18" height="22" viewBox="0 0 18 22" fill="none" xmlns="http://www.w3.org/2000/svg">
<path d="M9.12595 0.584961C6.93871 0.587541 4.84179 1.45756 3.29517 3.00418C1.74856 4.5508 0.878535 6.64772 0.875955 8.83496C0.873335 10.6224 1.45719 12.3613 2.53795 13.785C2.53795 13.785 2.76295 14.0812 2.7997 14.124L9.12595 21.585L15.4552 14.1202C15.4882 14.0805 15.714 13.785 15.714 13.785L15.7147 13.7827C16.7949 12.3597 17.3785 10.6216 17.376 8.83496C17.3734 6.64772 16.5034 4.5508 14.9567 3.00418C13.4101 1.45756 11.3132 0.587541 9.12595 0.584961ZM9.12595 11.835C8.53261 11.835 7.95259 11.659 7.45924 11.3294C6.9659 10.9997 6.58138 10.5312 6.35432 9.98301C6.12725 9.43483 6.06784 8.83163 6.1836 8.24969C6.29935 7.66775 6.58508 7.1332 7.00463 6.71364C7.42419 6.29408 7.95874 6.00836 8.54068 5.8926C9.12263 5.77685 9.72583 5.83626 10.274 6.06332C10.8222 6.29038 11.2907 6.6749 11.6204 7.16825C11.95 7.6616 12.126 8.24162 12.126 8.83496C12.125 9.63031 11.8086 10.3928 11.2462 10.9552C10.6838 11.5176 9.9213 11.834 9.12595 11.835Z" fill="#009999"/>
</svg>
