<svg width="60" height="16" viewBox="0 0 60 16" fill="none" xmlns="http://www.w3.org/2000/svg">
<path d="M0.0592891 12.1035L3.86329 3.70352H5.05129L8.86729 12.1035H7.60729L4.21129 4.37551H4.69129L1.29529 12.1035H0.0592891ZM1.67929 10.0035L2.00329 9.04352H6.73129L7.07929 10.0035H1.67929ZM12.5218 12.1755C11.9058 12.1755 11.3538 12.0395 10.8658 11.7675C10.3858 11.4955 10.0058 11.1155 9.72576 10.6275C9.44576 10.1395 9.30576 9.57152 9.30576 8.92352C9.30576 8.27552 9.44576 7.71152 9.72576 7.23152C10.0058 6.74352 10.3858 6.36352 10.8658 6.09152C11.3538 5.81952 11.9058 5.68352 12.5218 5.68352C13.0578 5.68352 13.5418 5.80352 13.9738 6.04352C14.4058 6.28352 14.7498 6.64352 15.0058 7.12352C15.2698 7.60352 15.4018 8.20352 15.4018 8.92352C15.4018 9.64352 15.2738 10.2435 15.0178 10.7235C14.7698 11.2035 14.4298 11.5675 13.9978 11.8155C13.5658 12.0555 13.0738 12.1755 12.5218 12.1755ZM12.6178 11.1675C13.0178 11.1675 13.3778 11.0755 13.6978 10.8915C14.0258 10.7075 14.2818 10.4475 14.4658 10.1115C14.6578 9.76752 14.7538 9.37152 14.7538 8.92352C14.7538 8.46752 14.6578 8.07552 14.4658 7.74752C14.2818 7.41152 14.0258 7.15152 13.6978 6.96752C13.3778 6.78352 13.0178 6.69152 12.6178 6.69152C12.2098 6.69152 11.8458 6.78352 11.5258 6.96752C11.2058 7.15152 10.9498 7.41152 10.7578 7.74752C10.5658 8.07552 10.4698 8.46752 10.4698 8.92352C10.4698 9.37152 10.5658 9.76752 10.7578 10.1115C10.9498 10.4475 11.2058 10.7075 11.5258 10.8915C11.8458 11.0755 12.2098 11.1675 12.6178 11.1675ZM14.7898 12.1035V10.3875L14.8618 8.91152L14.7418 7.43552V3.19952H15.8938V12.1035H14.7898ZM20.7014 12.1755C20.0854 12.1755 19.5334 12.0395 19.0454 11.7675C18.5654 11.4955 18.1854 11.1155 17.9054 10.6275C17.6254 10.1395 17.4854 9.57152 17.4854 8.92352C17.4854 8.27552 17.6254 7.71152 17.9054 7.23152C18.1854 6.74352 18.5654 6.36352 19.0454 6.09152C19.5334 5.81952 20.0854 5.68352 20.7014 5.68352C21.2374 5.68352 21.7214 5.80352 22.1534 6.04352C22.5854 6.28352 22.9294 6.64352 23.1854 7.12352C23.4494 7.60352 23.5814 8.20352 23.5814 8.92352C23.5814 9.64352 23.4534 10.2435 23.1974 10.7235C22.9494 11.2035 22.6094 11.5675 22.1774 11.8155C21.7454 12.0555 21.2534 12.1755 20.7014 12.1755ZM20.7974 11.1675C21.1974 11.1675 21.5574 11.0755 21.8774 10.8915C22.2054 10.7075 22.4614 10.4475 22.6454 10.1115C22.8374 9.76752 22.9334 9.37152 22.9334 8.92352C22.9334 8.46752 22.8374 8.07552 22.6454 7.74752C22.4614 7.41152 22.2054 7.15152 21.8774 6.96752C21.5574 6.78352 21.1974 6.69152 20.7974 6.69152C20.3894 6.69152 20.0254 6.78352 19.7054 6.96752C19.3854 7.15152 19.1294 7.41152 18.9374 7.74752C18.7454 8.07552 18.6494 8.46752 18.6494 8.92352C18.6494 9.37152 18.7454 9.76752 18.9374 10.1115C19.1294 10.4475 19.3854 10.7075 19.7054 10.8915C20.0254 11.0755 20.3894 11.1675 20.7974 11.1675ZM22.9694 12.1035V10.3875L23.0414 8.91152L22.9214 7.43552V3.19952H24.0734V12.1035H22.9694ZM29.0851 12.1755C28.4051 12.1755 27.8051 12.0355 27.2851 11.7555C26.7731 11.4755 26.3731 11.0915 26.0851 10.6035C25.8051 10.1155 25.6651 9.55552 25.6651 8.92352C25.6651 8.29152 25.8011 7.73152 26.0731 7.24352C26.3531 6.75552 26.7331 6.37552 27.2131 6.10352C27.7011 5.82352 28.2491 5.68352 28.8571 5.68352C29.4731 5.68352 30.0171 5.81952 30.4891 6.09152C30.9611 6.36352 31.3291 6.74752 31.5931 7.24352C31.8651 7.73152 32.0011 8.30352 32.0011 8.95952C32.0011 9.00752 31.9971 9.06352 31.9891 9.12752C31.9891 9.19152 31.9851 9.25152 31.9771 9.30752H26.5651V8.47952H31.3771L30.9091 8.76752C30.9171 8.35952 30.8331 7.99552 30.6571 7.67552C30.4811 7.35552 30.2371 7.10752 29.9251 6.93152C29.6211 6.74752 29.2651 6.65552 28.8571 6.65552C28.4571 6.65552 28.1011 6.74752 27.7891 6.93152C27.4771 7.10752 27.2331 7.35952 27.0571 7.68752C26.8811 8.00752 26.7931 8.37552 26.7931 8.79152V8.98352C26.7931 9.40752 26.8891 9.78752 27.0811 10.1235C27.2811 10.4515 27.5571 10.7075 27.9091 10.8915C28.2611 11.0755 28.6651 11.1675 29.1211 11.1675C29.4971 11.1675 29.8371 11.1035 30.1411 10.9755C30.4531 10.8475 30.7251 10.6555 30.9571 10.3995L31.5931 11.1435C31.3051 11.4795 30.9451 11.7355 30.5131 11.9115C30.0891 12.0875 29.6131 12.1755 29.0851 12.1755ZM36.2288 12.1755C35.6128 12.1755 35.0608 12.0395 34.5728 11.7675C34.0928 11.4955 33.7128 11.1155 33.4328 10.6275C33.1528 10.1395 33.0128 9.57152 33.0128 8.92352C33.0128 8.27552 33.1528 7.71152 33.4328 7.23152C33.7128 6.74352 34.0928 6.36352 34.5728 6.09152C35.0608 5.81952 35.6128 5.68352 36.2288 5.68352C36.7648 5.68352 37.2488 5.80352 37.6808 6.04352C38.1128 6.28352 38.4568 6.64352 38.7128 7.12352C38.9768 7.60352 39.1088 8.20352 39.1088 8.92352C39.1088 9.64352 38.9808 10.2435 38.7248 10.7235C38.4768 11.2035 38.1368 11.5675 37.7048 11.8155C37.2728 12.0555 36.7808 12.1755 36.2288 12.1755ZM36.3248 11.1675C36.7248 11.1675 37.0848 11.0755 37.4048 10.8915C37.7328 10.7075 37.9888 10.4475 38.1728 10.1115C38.3648 9.76752 38.4608 9.37152 38.4608 8.92352C38.4608 8.46752 38.3648 8.07552 38.1728 7.74752C37.9888 7.41152 37.7328 7.15152 37.4048 6.96752C37.0848 6.78352 36.7248 6.69152 36.3248 6.69152C35.9168 6.69152 35.5528 6.78352 35.2328 6.96752C34.9128 7.15152 34.6568 7.41152 34.4648 7.74752C34.2728 8.07552 34.1768 8.46752 34.1768 8.92352C34.1768 9.37152 34.2728 9.76752 34.4648 10.1115C34.6568 10.4475 34.9128 10.7075 35.2328 10.8915C35.5528 11.0755 35.9168 11.1675 36.3248 11.1675ZM38.4968 12.1035V10.3875L38.5688 8.91152L38.4488 7.43552V3.19952H39.6008V12.1035H38.4968Z" fill="white"/>
<path fill-rule="evenodd" clip-rule="evenodd" d="M58.0296 4.98505L53.5883 10.7285L50.1129 7.73015L50.6043 7.12589L53.4833 9.55213L57.4438 4.47852L58.0296 4.98505Z" fill="white"/>
</svg>
