 <svg width="10" height="10" viewBox="0 0 10 10" fill="none" xmlns="http://www.w3.org/2000/svg">
 <path d="M5 8.95866C4.70413 8.95866 4.46429 8.71881 4.46429 8.42294V5.5658H1.81548C1.50317 5.5658 1.25 5.31263 1.25 5.00033C1.25 4.68802 1.50317 4.43485 1.81548 4.43485H4.46429V1.57771C4.46429 1.28184 4.70413 1.04199 5 1.04199C5.29587 1.04199 5.53571 1.28184 5.53571 1.57771V4.43485H8.18452C8.49683 4.43485 8.75 4.68802 8.75 5.00033C8.75 5.31263 8.49683 5.5658 8.18452 5.5658H5.53571V8.42295C5.53571 8.71881 5.29587 8.95866 5 8.95866Z"  fill="#292929" />
 </svg>