<svg width="10" height="11" viewBox="0 0 10 11" fill="none" xmlns="http://www.w3.org/2000/svg">
<path d="M5.54892 5.50032L8.31259 2.30094C8.35892 2.24777 8.31996 2.16699 8.24837 2.16699H7.40822C7.35873 2.16699 7.31136 2.18846 7.27872 2.22527L4.99935 4.86433L2.71998 2.22527C2.68839 2.18846 2.64102 2.16699 2.59048 2.16699H1.75033C1.67873 2.16699 1.63978 2.24777 1.6861 2.30094L4.44977 5.50032L1.6861 8.69971C1.67573 8.71156 1.66907 8.72606 1.66692 8.74147C1.66477 8.75689 1.66723 8.77258 1.67399 8.78668C1.68075 8.80079 1.69154 8.81271 1.70507 8.82104C1.7186 8.82936 1.73431 8.83374 1.75033 8.83366H2.59048C2.63996 8.83366 2.68734 8.81218 2.71998 8.77538L4.99935 6.13632L7.27872 8.77538C7.3103 8.81218 7.35768 8.83366 7.40822 8.83366H8.24837C8.31996 8.83366 8.35892 8.75288 8.31259 8.69971L5.54892 5.50032Z" fill="#616161"/>
</svg>
