<svg width="15" height="16" viewBox="0 0 15 16" fill="none" xmlns="http://www.w3.org/2000/svg">
<rect x="0.3125" y="0.8125" width="14.375" height="14.375" rx="2.8125" fill="white"/>
<path d="M7.93257 7.7915L10.4489 4.79208C10.491 4.74223 10.4556 4.6665 10.3904 4.6665H9.62544C9.58038 4.6665 9.53725 4.68663 9.50753 4.72114L7.43219 7.19526L5.35684 4.72114C5.32808 4.68663 5.28495 4.6665 5.23893 4.6665H4.47398C4.4088 4.6665 4.37333 4.74223 4.41551 4.79208L6.9318 7.7915L4.41551 10.7909C4.40606 10.802 4.4 10.8156 4.39804 10.8301C4.39609 10.8445 4.39832 10.8592 4.40448 10.8725C4.41063 10.8857 4.42045 10.8969 4.43277 10.9047C4.44509 10.9125 4.4594 10.9166 4.47398 10.9165H5.23893C5.28399 10.9165 5.32712 10.8964 5.35684 10.8619L7.43219 8.38775L9.50753 10.8619C9.53629 10.8964 9.57942 10.9165 9.62544 10.9165H10.3904C10.4556 10.9165 10.491 10.8408 10.4489 10.7909L7.93257 7.7915Z" fill="#810000"/>
<rect x="0.3125" y="0.8125" width="14.375" height="14.375" rx="2.8125" stroke="#DDDDDD" stroke-width="0.625"/>
</svg>
