<svg width="16" height="15" viewBox="0 0 16 15" fill="none" xmlns="http://www.w3.org/2000/svg">
<path d="M3.66071 2.51786C3.66071 2.34736 3.59298 2.18385 3.47243 2.06329C3.35187 1.94273 3.18835 1.875 3.01786 1.875C2.84736 1.875 2.68385 1.94273 2.56329 2.06329C2.44273 2.18385 2.375 2.34736 2.375 2.51786V11.5179C2.375 11.9441 2.54432 12.3529 2.84572 12.6543C3.14712 12.9557 3.5559 13.125 3.98214 13.125H12.9821C13.1526 13.125 13.3162 13.0573 13.4367 12.9367C13.5573 12.8162 13.625 12.6526 13.625 12.4821C13.625 12.3116 13.5573 12.1481 13.4367 12.0276C13.3162 11.907 13.1526 11.8393 12.9821 11.8393H3.98214C3.89689 11.8393 3.81514 11.8054 3.75486 11.7451C3.69458 11.6849 3.66071 11.6031 3.66071 11.5179V2.51786ZM9.28571 4.28571C9.28571 4.11522 9.35344 3.9517 9.474 3.83115C9.59456 3.71059 9.75808 3.64286 9.92857 3.64286H12.8227C12.9932 3.64286 13.1567 3.71059 13.2773 3.83115C13.3978 3.9517 13.4656 4.11522 13.4656 4.28571L13.4643 7.17857C13.4643 7.34907 13.3966 7.51258 13.276 7.63314C13.1554 7.7537 12.9919 7.82143 12.8214 7.82143C12.6509 7.82143 12.4874 7.7537 12.3669 7.63314C12.2463 7.51258 12.1786 7.34907 12.1786 7.17857V5.83757L9.25807 8.75807C9.13752 8.87859 8.97403 8.94629 8.80357 8.94629C8.63311 8.94629 8.46962 8.87859 8.34907 8.75807L7.19643 7.60543L5.56164 9.24021C5.4404 9.35732 5.27801 9.42211 5.10946 9.42065C4.9409 9.41918 4.77966 9.35157 4.66047 9.23238C4.54128 9.11319 4.47367 8.95195 4.47221 8.7834C4.47074 8.61484 4.53554 8.45246 4.65264 8.33121L6.74193 6.24193C6.86248 6.12141 7.02597 6.05371 7.19643 6.05371C7.36689 6.05371 7.53038 6.12141 7.65093 6.24193L8.80357 7.39457L11.2696 4.92857H9.92857C9.75808 4.92857 9.59456 4.86084 9.474 4.74028C9.35344 4.61972 9.28571 4.45621 9.28571 4.28571Z" fill="#616161"/>
</svg>
