<svg width="16" height="15" viewBox="0 0 16 15" fill="none" xmlns="http://www.w3.org/2000/svg">
<path d="M9.40593 1.64062C6.94646 1.64062 4.95281 3.63428 4.95281 6.09375C4.95281 7.12354 5.30291 8.07129 5.88884 8.82568L2.174 12.5405C2.15219 12.5626 1.92393 12.8756 2.21489 13.2371C2.55654 13.5787 2.91375 13.3711 2.95916 13.3257L6.674 9.61084C7.42839 10.1968 8.37615 10.5469 9.40593 10.5469C11.8654 10.5469 13.8591 8.55322 13.8591 6.09375C13.8591 3.63428 11.8654 1.64062 9.40593 1.64062ZM11.7673 8.45508C11.1374 9.08643 10.298 9.43359 9.40593 9.43359C8.51384 9.43359 7.67449 9.08643 7.0446 8.45508C6.41326 7.8252 6.06609 6.98584 6.06609 6.09375C6.06609 5.20166 6.41326 4.3623 7.0446 3.73242C7.67449 3.10107 8.51384 2.75391 9.40593 2.75391C10.298 2.75391 11.1374 3.10107 11.7673 3.73242C12.3986 4.3623 12.7458 5.20166 12.7458 6.09375C12.7458 6.98584 12.3986 7.8252 11.7673 8.45508Z" fill="#616161"/>
<path d="M11.5091 5.36374L10.1876 6.86745L8.68386 5.54595L7.36235 7.04965" stroke="#616161" stroke-width="1.2" stroke-linecap="round"/>
</svg>
