<svg width="16" height="15" viewBox="0 0 16 15" fill="none" xmlns="http://www.w3.org/2000/svg">
<path d="M10.558 3.33513C10.4072 3.33513 10.2627 3.27823 10.1561 3.17696C10.0495 3.07569 9.98957 2.93834 9.98957 2.79513C9.98957 2.65191 10.0495 2.51456 10.1561 2.41329C10.2627 2.31202 10.4072 2.25513 10.558 2.25513H12.8317C12.9824 2.25513 13.127 2.31202 13.2336 2.41329C13.3402 2.51456 13.4001 2.65191 13.4001 2.79513V4.95513C13.4001 5.09834 13.3402 5.23569 13.2336 5.33696C13.127 5.43823 12.9824 5.49513 12.8317 5.49513C12.6809 5.49513 12.5363 5.43823 12.4297 5.33696C12.3231 5.23569 12.2633 5.09834 12.2633 4.95513V4.09869L8.97039 7.22691C8.8638 7.32814 8.71924 7.38501 8.56852 7.38501C8.41779 7.38501 8.27324 7.32814 8.16665 7.22691L6.57904 5.71869L3.57039 8.57691C3.46319 8.67527 3.3196 8.7297 3.17056 8.72847C3.02153 8.72724 2.87896 8.67045 2.77357 8.57033C2.66818 8.47021 2.6084 8.33477 2.6071 8.19318C2.60581 8.0516 2.6631 7.91519 2.76665 7.81335L6.17717 4.57335C6.28377 4.47211 6.42832 4.41524 6.57904 4.41524C6.72977 4.41524 6.87432 4.47211 6.98092 4.57335L8.56852 6.08157L11.4595 3.33513H10.558ZM3.73694 10.8951V12.5151C3.73694 12.6583 3.67705 12.7957 3.57045 12.897C3.46385 12.9982 3.31927 13.0551 3.16852 13.0551C3.01776 13.0551 2.87318 12.9982 2.76658 12.897C2.65998 12.7957 2.6001 12.6583 2.6001 12.5151V10.8951C2.6001 10.7519 2.65998 10.6146 2.76658 10.5133C2.87318 10.412 3.01776 10.3551 3.16852 10.3551C3.31927 10.3551 3.46385 10.412 3.57045 10.5133C3.67705 10.6146 3.73694 10.7519 3.73694 10.8951ZM6.57904 8.73513C6.57904 8.59191 6.51916 8.45456 6.41256 8.35329C6.30596 8.25202 6.16138 8.19513 6.01062 8.19513C5.85987 8.19513 5.71529 8.25202 5.60869 8.35329C5.50209 8.45456 5.4422 8.59191 5.4422 8.73513V12.5151C5.4422 12.6583 5.50209 12.7957 5.60869 12.897C5.71529 12.9982 5.85987 13.0551 6.01062 13.0551C6.16138 13.0551 6.30596 12.9982 6.41256 12.897C6.51916 12.7957 6.57904 12.6583 6.57904 12.5151V8.73513ZM8.85273 9.27513C9.00348 9.27513 9.14806 9.33202 9.25466 9.43329C9.36126 9.53456 9.42115 9.67191 9.42115 9.81513V12.5151C9.42115 12.6583 9.36126 12.7957 9.25466 12.897C9.14806 12.9982 9.00348 13.0551 8.85273 13.0551C8.70197 13.0551 8.55739 12.9982 8.45079 12.897C8.3442 12.7957 8.28431 12.6583 8.28431 12.5151V9.81513C8.28431 9.67191 8.3442 9.53456 8.45079 9.43329C8.55739 9.33202 8.70197 9.27513 8.85273 9.27513ZM12.2633 7.11513C12.2633 6.97191 12.2034 6.83456 12.0968 6.73329C11.9902 6.63202 11.8456 6.57513 11.6948 6.57513C11.5441 6.57513 11.3995 6.63202 11.2929 6.73329C11.1863 6.83456 11.1264 6.97191 11.1264 7.11513V12.5151C11.1264 12.6583 11.1863 12.7957 11.2929 12.897C11.3995 12.9982 11.5441 13.0551 11.6948 13.0551C11.8456 13.0551 11.9902 12.9982 12.0968 12.897C12.2034 12.7957 12.2633 12.6583 12.2633 12.5151V7.11513Z" fill="#616161"/>
</svg>
