<svg width="14" height="13" viewBox="0 0 14 13" fill="none" xmlns="http://www.w3.org/2000/svg">
<path d="M13.2125 11.835L9.15469 7.77715C9.78438 6.96309 10.125 5.96777 10.125 4.9209C10.125 3.66777 9.63594 2.49277 8.75156 1.60684C7.86719 0.720898 6.68906 0.233398 5.4375 0.233398C4.18594 0.233398 3.00781 0.722461 2.12344 1.60684C1.2375 2.49121 0.75 3.66777 0.75 4.9209C0.75 6.17246 1.23906 7.35059 2.12344 8.23496C3.00781 9.1209 4.18438 9.6084 5.4375 9.6084C6.48438 9.6084 7.47813 9.26777 8.29219 8.63965L12.35 12.6959C12.3619 12.7078 12.376 12.7172 12.3916 12.7237C12.4071 12.7301 12.4238 12.7335 12.4406 12.7335C12.4575 12.7335 12.4741 12.7301 12.4897 12.7237C12.5052 12.7172 12.5194 12.7078 12.5312 12.6959L13.2125 12.0162C13.2244 12.0043 13.2338 11.9902 13.2403 11.9746C13.2467 11.9591 13.2501 11.9424 13.2501 11.9256C13.2501 11.9088 13.2467 11.8921 13.2403 11.8765C13.2338 11.861 13.2244 11.8469 13.2125 11.835V11.835ZM7.9125 7.3959C7.25 8.05684 6.37187 8.4209 5.4375 8.4209C4.50313 8.4209 3.625 8.05684 2.9625 7.3959C2.30156 6.7334 1.9375 5.85527 1.9375 4.9209C1.9375 3.98652 2.30156 3.10684 2.9625 2.4459C3.625 1.78496 4.50313 1.4209 5.4375 1.4209C6.37187 1.4209 7.25156 1.7834 7.9125 2.4459C8.57344 3.1084 8.9375 3.98652 8.9375 4.9209C8.9375 5.85527 8.57344 6.73496 7.9125 7.3959Z" fill="#B5B5B5"/>
</svg>
