<svg width="20" height="20" viewBox="0 0 20 20" fill="none" xmlns="http://www.w3.org/2000/svg">
<path d="M9.99948 15.3739C10.7343 15.3739 11.4054 15.2948 12.0174 15.1582L10.6527 13.8094C10.4407 13.8256 10.2255 13.8386 9.99948 13.8386C5.84322 13.8386 4.23306 10.8862 3.84315 10.0004C4.13593 9.35464 4.53136 8.75936 5.01445 8.23709L3.92859 7.16392C2.73398 8.44359 2.28115 9.73247 2.27261 9.7578C2.21903 9.91545 2.21903 10.0861 2.27261 10.2437C2.28892 10.2944 4.07073 15.3739 9.99948 15.3739ZM9.99948 4.62685C8.57263 4.62685 7.40055 4.93084 6.42343 5.37991L3.55809 2.54883L2.4598 3.63428L16.4409 17.4519L17.5392 16.3665L14.9612 13.8187C16.9916 12.321 17.7163 10.276 17.7271 10.2437C17.7807 10.0861 17.7807 9.91545 17.7271 9.7578C17.71 9.70637 15.9282 4.62685 9.99948 4.62685ZM13.8614 12.7317L12.0904 10.9814C12.238 10.6821 12.3297 10.3527 12.3297 10.0004C12.3297 8.74067 11.2741 7.69744 9.99948 7.69744C9.64296 7.69744 9.30975 7.78802 9.0076 7.93464L7.60328 6.54674C8.37419 6.28528 9.18447 6.15523 9.99948 6.16214C14.1557 6.16214 15.7659 9.11452 16.1558 10.0004C15.9212 10.5316 15.2501 11.7982 13.8614 12.7317Z" fill="#DDDDDD"/>
</svg>
