<svg width="20" height="20" viewBox="0 0 20 20" fill="none" xmlns="http://www.w3.org/2000/svg">
<path d="M10.0001 7.83301C10.5618 7.83301 11.1006 8.06128 11.4978 8.46761C11.8951 8.87394 12.1182 9.42504 12.1182 9.99967C12.1182 10.5743 11.8951 11.1254 11.4978 11.5317C11.1006 11.9381 10.5618 12.1663 10.0001 12.1663C9.43829 12.1663 8.89952 11.9381 8.50228 11.5317C8.10505 11.1254 7.88188 10.5743 7.88188 9.99967C7.88188 9.42504 8.10505 8.87394 8.50228 8.46761C8.89952 8.06128 9.43829 7.83301 10.0001 7.83301ZM10.0001 4.58301C13.5304 4.58301 16.5452 6.82912 17.7667 9.99967C16.5452 13.1702 13.5304 15.4163 10.0001 15.4163C6.46976 15.4163 3.45488 13.1702 2.2334 9.99967C3.45488 6.82912 6.46976 4.58301 10.0001 4.58301ZM3.77261 9.99967C4.34329 11.1916 5.22943 12.1958 6.3303 12.8981C7.43117 13.6005 8.7026 13.9729 10.0001 13.9729C11.2975 13.9729 12.569 13.6005 13.6698 12.8981C14.7707 12.1958 15.6568 11.1916 16.2275 9.99967C15.6568 8.80779 14.7707 7.80358 13.6698 7.10121C12.569 6.39885 11.2975 6.0265 10.0001 6.0265C8.7026 6.0265 7.43117 6.39885 6.3303 7.10121C5.22943 7.80358 4.34329 8.80779 3.77261 9.99967Z" fill="#616161"/>
</svg>
