<svg width="162" height="36" viewBox="0 0 162 36" fill="none" xmlns="http://www.w3.org/2000/svg">
<g clip-path="url(#clip0_5678_19816)">
<path d="M30.0774 35.376L0.105667 17.9983L30.0774 0.623047V35.376Z" stroke="black" stroke-width="0.739514" stroke-linejoin="bevel"/>
<path d="M10.098 35.2666L40.0894 18.0198L10.1177 0.644531L10.098 35.2666Z" stroke="black" stroke-width="0.739514" stroke-linejoin="bevel"/>
<path d="M10.1742 35.2434C9.7044 34.9692 9.54697 34.3665 9.82002 33.8947L19.2538 17.6063L28.6089 1.09065C28.8771 0.616373 29.4773 0.450871 29.9471 0.722591C30.4194 0.991841 30.5842 1.59456 30.3161 2.06637L20.9561 18.5894L11.5174 34.8877C11.2443 35.3595 10.6441 35.5176 10.1742 35.2434Z" fill="black"/>
<path d="M36.5078 23.9241L35.9494 24.0378C35.8288 24.0625 35.7132 24.1069 35.6074 24.1712C27.1576 29.1832 27.2806 28.9065 24.0802 23.4696L17.4975 12.0401C13.874 5.87946 7.69713 7.76915 2.51161 10.5259C1.38496 11.1237 2.01225 12.8503 3.26189 12.5885C3.37996 12.5638 3.49558 12.5193 3.5989 12.4576C11.9282 7.51966 12.1496 7.80867 15.3746 13.29L21.9573 24.7195C25.6078 30.9222 31.9618 28.8497 37.2531 25.9917C38.3724 25.3865 37.7525 23.6746 36.5078 23.9291V23.9241Z" fill="black"/>
<path d="M30.0774 0.623047H10.0979L0.105667 17.9983L10.0979 35.376H30.0774L40.0696 17.9983L30.0774 0.623047Z" stroke="black" stroke-width="0.739514" stroke-linejoin="bevel"/>
</g>
<path d="M51.9759 24.0976C51.119 24.0976 50.3272 23.9566 49.6005 23.6746C48.8739 23.3818 48.2448 22.975 47.7133 22.4544C47.1818 21.9338 46.7643 21.321 46.4606 20.616C46.1677 19.911 46.0213 19.1409 46.0213 18.3057C46.0213 17.4706 46.1677 16.7005 46.4606 15.9955C46.7643 15.2905 47.1818 14.6777 47.7133 14.1571C48.2556 13.6364 48.8901 13.2351 49.6168 12.9531C50.3435 12.6603 51.1353 12.5139 51.9921 12.5139C52.8164 12.5139 53.592 12.6549 54.3186 12.9369C55.0453 13.208 55.6582 13.6202 56.1571 14.1733L55.3924 14.938C54.926 14.4608 54.4108 14.1191 53.8468 13.913C53.2828 13.6961 52.6754 13.5876 52.0247 13.5876C51.3414 13.5876 50.7069 13.7069 50.1212 13.9456C49.5355 14.1733 49.0257 14.5041 48.5918 14.938C48.158 15.361 47.8163 15.8599 47.5669 16.4348C47.3283 16.9988 47.209 17.6224 47.209 18.3057C47.209 18.9891 47.3283 19.6181 47.5669 20.193C47.8163 20.757 48.158 21.2559 48.5918 21.6898C49.0257 22.1128 49.5355 22.4436 50.1212 22.6822C50.7069 22.91 51.3414 23.0238 52.0247 23.0238C52.6754 23.0238 53.2828 22.9154 53.8468 22.6985C54.4108 22.4815 54.926 22.1345 55.3924 21.6572L56.1571 22.4219C55.6582 22.975 55.0453 23.3926 54.3186 23.6746C53.592 23.9566 52.811 24.0976 51.9759 24.0976ZM58.4795 24V11.9282H59.6346V24H58.4795ZM62.8487 24V15.4586H64.0038V24H62.8487ZM63.4344 13.5714C63.1958 13.5714 62.9952 13.49 62.8325 13.3273C62.6698 13.1646 62.5884 12.9694 62.5884 12.7416C62.5884 12.5139 62.6698 12.3241 62.8325 12.1722C62.9952 12.0095 63.1958 11.9282 63.4344 11.9282C63.673 11.9282 63.8737 12.0041 64.0364 12.1559C64.1991 12.3078 64.2804 12.4976 64.2804 12.7254C64.2804 12.964 64.1991 13.1646 64.0364 13.3273C63.8845 13.49 63.6839 13.5714 63.4344 13.5714ZM77.8906 15.3773C78.5848 15.3773 79.1867 15.5128 79.6965 15.784C80.2171 16.0443 80.6184 16.4456 80.9004 16.9879C81.1933 17.5302 81.3397 18.2135 81.3397 19.0379V24H80.1846V19.1517C80.1846 18.2515 79.9676 17.5736 79.5338 17.1181C79.1108 16.6517 78.5088 16.4185 77.7279 16.4185C77.1422 16.4185 76.6324 16.5432 76.1986 16.7927C75.7756 17.0313 75.4448 17.3838 75.2062 17.8502C74.9784 18.3057 74.8645 18.8589 74.8645 19.5097V24H73.7094V19.1517C73.7094 18.2515 73.4925 17.5736 73.0586 17.1181C72.6248 16.6517 72.0174 16.4185 71.2364 16.4185C70.6616 16.4185 70.1573 16.5432 69.7234 16.7927C69.2896 17.0313 68.9533 17.3838 68.7147 17.8502C68.4869 18.3057 68.373 18.8589 68.373 19.5097V24H67.2179V15.4586H68.3242V17.7689L68.1453 17.3621C68.4056 16.7439 68.8232 16.2612 69.398 15.9141C69.9837 15.5562 70.6724 15.3773 71.4642 15.3773C72.2994 15.3773 73.0098 15.5888 73.5955 16.0118C74.1812 16.4239 74.5608 17.0476 74.7344 17.8827L74.2788 17.7038C74.5283 17.0096 74.9675 16.451 75.5966 16.028C76.2366 15.5942 77.0012 15.3773 77.8906 15.3773ZM89.8249 24V22.1128L89.7761 21.8036V18.6474C89.7761 17.9207 89.57 17.3621 89.1579 16.9717C88.7566 16.5812 88.1546 16.386 87.352 16.386C86.7988 16.386 86.2728 16.4782 85.7738 16.6625C85.2749 16.8469 84.8519 17.091 84.5048 17.3947L83.9842 16.5324C84.4181 16.1636 84.9387 15.8816 85.5461 15.6864C86.1535 15.4803 86.7934 15.3773 87.4659 15.3773C88.5722 15.3773 89.4236 15.6538 90.0201 16.207C90.6275 16.7493 90.9312 17.579 90.9312 18.6962V24H89.8249ZM86.8802 24.0813C86.2402 24.0813 85.6817 23.9783 85.2044 23.7722C84.738 23.5553 84.3801 23.2625 84.1306 22.8937C83.8812 22.5141 83.7564 22.0802 83.7564 21.5921C83.7564 21.1474 83.8595 20.7461 84.0656 20.3882C84.2825 20.0194 84.6296 19.7266 85.1068 19.5097C85.5949 19.2819 86.2457 19.168 87.0591 19.168H90.0039V20.0303H87.0917C86.2673 20.0303 85.6925 20.1767 85.3671 20.4696C85.0526 20.7624 84.8953 21.1258 84.8953 21.5596C84.8953 22.0477 85.0851 22.4381 85.4647 22.731C85.8443 23.0238 86.3758 23.1703 87.0591 23.1703C87.7099 23.1703 88.2685 23.0238 88.7349 22.731C89.2121 22.4273 89.5592 21.9935 89.7761 21.4294L90.0364 22.2266C89.8195 22.7906 89.4399 23.2408 88.8976 23.577C88.3661 23.9132 87.6936 24.0813 86.8802 24.0813ZM96.7694 24.0813C95.9667 24.0813 95.3485 23.8644 94.9147 23.4306C94.4808 22.9967 94.2639 22.3839 94.2639 21.5921V13.5714H95.419V21.5271C95.419 22.026 95.5437 22.411 95.7932 22.6822C96.0535 22.9533 96.4223 23.0889 96.8995 23.0889C97.4093 23.0889 97.8323 22.9425 98.1685 22.6496L98.5753 23.4794C98.3475 23.6855 98.0709 23.8373 97.7455 23.9349C97.431 24.0325 97.1056 24.0813 96.7694 24.0813ZM92.7346 16.4185V15.4586H98.0221V16.4185H92.7346ZM104.004 24.0813C103.115 24.0813 102.334 23.897 101.661 23.5282C100.989 23.1486 100.463 22.6334 100.083 21.9826C99.7037 21.321 99.5139 20.5672 99.5139 19.7212C99.5139 18.8752 99.6929 18.1268 100.051 17.476C100.42 16.8252 100.919 16.3155 101.548 15.9467C102.188 15.5671 102.903 15.3773 103.695 15.3773C104.498 15.3773 105.208 15.5616 105.826 15.9304C106.455 16.2883 106.949 16.7981 107.307 17.4597C107.665 18.1105 107.844 18.8643 107.844 19.7212C107.844 19.7754 107.838 19.8351 107.828 19.9001C107.828 19.9544 107.828 20.014 107.828 20.0791H100.392V19.2168H107.209L106.754 19.5585C106.754 18.9402 106.618 18.3925 106.347 17.9153C106.087 17.4272 105.729 17.0476 105.273 16.7764C104.818 16.5053 104.292 16.3697 103.695 16.3697C103.109 16.3697 102.583 16.5053 102.117 16.7764C101.651 17.0476 101.287 17.4272 101.027 17.9153C100.767 18.4034 100.637 18.9619 100.637 19.591V19.77C100.637 20.4208 100.778 20.9956 101.06 21.4945C101.352 21.9826 101.754 22.3676 102.263 22.6496C102.784 22.9208 103.375 23.0564 104.037 23.0564C104.557 23.0564 105.04 22.9642 105.485 22.7798C105.94 22.5954 106.331 22.3134 106.656 21.9338L107.307 22.6822C106.927 23.1377 106.45 23.4848 105.875 23.7234C105.311 23.962 104.688 24.0813 104.004 24.0813ZM112.875 24L118.081 12.6115H119.269L124.475 24H123.206L118.423 13.3111H118.911L114.128 24H112.875ZM114.925 20.9576L115.283 19.9815H121.904L122.262 20.9576H114.925ZM126.115 24V11.9282H127.27V24H126.115ZM134.893 24.0813C134.155 24.0813 133.488 23.9132 132.892 23.577C132.295 23.2299 131.818 22.7364 131.46 22.0965C131.113 21.4457 130.94 20.6539 130.94 19.7212C130.94 18.7884 131.113 18.002 131.46 17.3621C131.807 16.7113 132.279 16.2178 132.876 15.8816C133.472 15.5454 134.145 15.3773 134.893 15.3773C135.706 15.3773 136.433 15.5616 137.073 15.9304C137.724 16.2883 138.234 16.7981 138.602 17.4597C138.971 18.1105 139.156 18.8643 139.156 19.7212C139.156 20.5889 138.971 21.3481 138.602 21.9989C138.234 22.6496 137.724 23.1594 137.073 23.5282C136.433 23.897 135.706 24.0813 134.893 24.0813ZM130.484 27.1562V15.4586H131.59V18.0292L131.476 19.7374L131.639 21.462V27.1562H130.484ZM134.812 23.0564C135.419 23.0564 135.961 22.9208 136.439 22.6496C136.916 22.3676 137.295 21.9772 137.577 21.4783C137.859 20.9685 138 20.3828 138 19.7212C138 19.0596 137.859 18.4793 137.577 17.9804C137.295 17.4814 136.916 17.091 136.439 16.809C135.961 16.527 135.419 16.386 134.812 16.386C134.204 16.386 133.656 16.527 133.168 16.809C132.691 17.091 132.312 17.4814 132.03 17.9804C131.758 18.4793 131.623 19.0596 131.623 19.7212C131.623 20.3828 131.758 20.9685 132.03 21.4783C132.312 21.9772 132.691 22.3676 133.168 22.6496C133.656 22.9208 134.204 23.0564 134.812 23.0564ZM145.87 15.3773C146.565 15.3773 147.172 15.5128 147.693 15.784C148.224 16.0443 148.636 16.4456 148.929 16.9879C149.233 17.5302 149.385 18.2135 149.385 19.0379V24H148.229V19.1517C148.229 18.2515 148.002 17.5736 147.546 17.1181C147.101 16.6517 146.472 16.4185 145.659 16.4185C145.052 16.4185 144.52 16.5432 144.065 16.7927C143.62 17.0313 143.273 17.3838 143.023 17.8502C142.785 18.3057 142.665 18.8589 142.665 19.5097V24H141.51V11.9282H142.665V17.8014L142.438 17.3621C142.709 16.7439 143.143 16.2612 143.739 15.9141C144.336 15.5562 145.046 15.3773 145.87 15.3773ZM157.857 24V22.1128L157.809 21.8036V18.6474C157.809 17.9207 157.602 17.3621 157.19 16.9717C156.789 16.5812 156.187 16.386 155.384 16.386C154.831 16.386 154.305 16.4782 153.806 16.6625C153.307 16.8469 152.884 17.091 152.537 17.3947L152.017 16.5324C152.451 16.1636 152.971 15.8816 153.579 15.6864C154.186 15.4803 154.826 15.3773 155.498 15.3773C156.605 15.3773 157.456 15.6538 158.053 16.207C158.66 16.7493 158.964 17.579 158.964 18.6962V24H157.857ZM154.913 24.0813C154.273 24.0813 153.714 23.9783 153.237 23.7722C152.77 23.5553 152.413 23.2625 152.163 22.8937C151.914 22.5141 151.789 22.0802 151.789 21.5921C151.789 21.1474 151.892 20.7461 152.098 20.3882C152.315 20.0194 152.662 19.7266 153.139 19.5097C153.627 19.2819 154.278 19.168 155.092 19.168H158.036V20.0303H155.124C154.3 20.0303 153.725 20.1767 153.4 20.4696C153.085 20.7624 152.928 21.1258 152.928 21.5596C152.928 22.0477 153.118 22.4381 153.497 22.731C153.877 23.0238 154.408 23.1703 155.092 23.1703C155.742 23.1703 156.301 23.0238 156.767 22.731C157.245 22.4273 157.592 21.9935 157.809 21.4294L158.069 22.2266C157.852 22.7906 157.472 23.2408 156.93 23.577C156.399 23.9132 155.726 24.0813 154.913 24.0813Z" fill="black"/>
<defs>
<clipPath id="clip0_5678_19816">
<rect width="40.1755" height="35" fill="white" transform="translate(0 0.5)"/>
</clipPath>
</defs>
</svg>
