<svg width="23" height="24" viewBox="0 0 23 24" fill="none" xmlns="http://www.w3.org/2000/svg">
<g clip-path="url(#clip0_5129_21881)">
<path d="M10.493 14.8609H12.401V16.7689H10.493V14.8609ZM10.493 7.22994H12.401V12.9529H10.493V7.22994ZM11.447 2.46094C9.56036 2.46094 7.71609 3.02039 6.14741 4.06855C4.57873 5.11671 3.35609 6.6065 2.63411 8.34952C1.91212 10.0925 1.72322 12.0105 2.09128 13.8609C2.45935 15.7113 3.36785 17.411 4.7019 18.745C6.03596 20.0791 7.73564 20.9876 9.58603 21.3556C11.4364 21.7237 13.3544 21.5348 15.0974 20.8128C16.8404 20.0908 18.3302 18.8682 19.3784 17.2995C20.4265 15.7308 20.986 13.8866 20.986 11.9999C20.9836 9.47077 19.9778 7.04587 18.1895 5.25748C16.4011 3.46908 13.9762 2.46332 11.447 2.46094ZM11.447 19.6309C9.93772 19.6309 8.46235 19.1834 7.20744 18.3449C5.95253 17.5064 4.97444 16.3146 4.39687 14.9202C3.8193 13.5258 3.66818 11.9915 3.96262 10.5112C4.25707 9.03093 4.98385 7.67122 6.05106 6.60401C7.11828 5.53679 8.47799 4.81001 9.95826 4.51556C11.4385 4.22112 12.9729 4.37224 14.3673 4.94981C15.7616 5.52739 16.9534 6.50547 17.7919 7.76038C18.6304 9.01529 19.078 10.4907 19.078 11.9999C19.078 14.0238 18.274 15.9648 16.8429 17.3959C15.4118 18.827 13.4709 19.6309 11.447 19.6309Z" fill="#616161"/>
</g>
<defs>
<clipPath id="clip0_5129_21881">
<rect width="22.893" height="22.893" fill="white" transform="translate(0 0.552734)"/>
</clipPath>
</defs>
</svg>
