<svg width="24" height="24" viewBox="0 0 24 24" fill="none" xmlns="http://www.w3.org/2000/svg">
<path d="M18.5859 10.6875C18.2378 10.6875 17.904 10.8258 17.6579 11.0719C17.4117 11.3181 17.2734 11.6519 17.2734 12C17.2734 12.3481 17.4117 12.6819 17.6579 12.9281C17.904 13.1742 18.2378 13.3125 18.5859 13.3125C18.934 13.3125 19.2679 13.1742 19.514 12.9281C19.7602 12.6819 19.8984 12.3481 19.8984 12C19.8984 11.6519 19.7602 11.3181 19.514 11.0719C19.2679 10.8258 18.934 10.6875 18.5859 10.6875ZM12.0234 10.6875C11.6753 10.6875 11.3415 10.8258 11.0954 11.0719C10.8492 11.3181 10.7109 11.6519 10.7109 12C10.7109 12.3481 10.8492 12.6819 11.0954 12.9281C11.3415 13.1742 11.6753 13.3125 12.0234 13.3125C12.3715 13.3125 12.7054 13.1742 12.9515 12.9281C13.1977 12.6819 13.3359 12.3481 13.3359 12C13.3359 11.6519 13.1977 11.3181 12.9515 11.0719C12.7054 10.8258 12.3715 10.6875 12.0234 10.6875ZM5.46094 10.6875C5.11284 10.6875 4.779 10.8258 4.53286 11.0719C4.28672 11.3181 4.14844 11.6519 4.14844 12C4.14844 12.3481 4.28672 12.6819 4.53286 12.9281C4.779 13.1742 5.11284 13.3125 5.46094 13.3125C5.80903 13.3125 6.14287 13.1742 6.38902 12.9281C6.63516 12.6819 6.77344 12.3481 6.77344 12C6.77344 11.6519 6.63516 11.3181 6.38902 11.0719C6.14287 10.8258 5.80903 10.6875 5.46094 10.6875Z" fill="black"/>
</svg>
