<svg width="320" height="200" viewBox="0 0 320 200" fill="none" xmlns="http://www.w3.org/2000/svg">
<g clip-path="url(#clip0_5625_17487)">
<path d="M126.465 159.804H2.18045C1.84114 159.803 1.51583 159.668 1.2759 159.428C1.03597 159.189 0.901011 158.863 0.900635 158.524V37.3677C0.901011 37.0284 1.03597 36.7031 1.2759 36.4631C1.51583 36.2232 1.84114 36.0883 2.18045 36.0879H126.465C126.804 36.0883 127.13 36.2232 127.37 36.4631C127.61 36.7031 127.745 37.0284 127.745 37.3677V158.524C127.745 158.863 127.61 159.189 127.37 159.428C127.13 159.668 126.804 159.803 126.465 159.804Z" fill="#F0F0F0"/>
<path d="M112.956 47.1797H15.6897C15.3505 47.1802 15.0252 47.3152 14.7853 47.5551C14.5454 47.795 14.4104 48.1202 14.4099 48.4595V123.827C14.4104 124.166 14.5454 124.491 14.7853 124.731C15.0252 124.971 15.3505 125.106 15.6897 125.106H112.956C113.295 125.106 113.621 124.971 113.86 124.731C114.1 124.491 114.235 124.166 114.236 123.827V48.4595C114.235 48.1202 114.1 47.795 113.86 47.5551C113.621 47.3152 113.295 47.1802 112.956 47.1797Z" fill="white"/>
<path d="M107.41 139.894H21.2354C21.0469 139.894 20.8662 139.819 20.7329 139.685C20.5996 139.552 20.5246 139.371 20.5244 139.183V135.201C20.5246 135.013 20.5996 134.832 20.7329 134.699C20.8662 134.565 21.0469 134.49 21.2354 134.49H107.41C107.598 134.49 107.779 134.565 107.912 134.699C108.046 134.832 108.121 135.013 108.121 135.201V139.183C108.121 139.371 108.046 139.552 107.912 139.685C107.779 139.819 107.598 139.894 107.41 139.894Z" fill="white"/>
<path d="M77.5475 149.564H21.2354C21.0469 149.564 20.8662 149.489 20.7329 149.355C20.5996 149.222 20.5246 149.041 20.5244 148.853V144.871C20.5246 144.683 20.5996 144.502 20.7329 144.369C20.8662 144.235 21.0469 144.16 21.2354 144.16H77.5475C77.736 144.16 77.9167 144.235 78.05 144.369C78.1833 144.502 78.2583 144.683 78.2585 144.871V148.853C78.2583 149.041 78.1833 149.222 78.05 149.355C77.9167 149.489 77.736 149.564 77.5475 149.564Z" fill="white"/>
<path d="M61.92 98.2496C68.75 98.2496 74.2869 92.7127 74.2869 85.8826C74.2869 79.0525 68.75 73.5156 61.92 73.5156C55.0899 73.5156 49.553 79.0525 49.553 85.8826C49.553 92.7127 55.0899 98.2496 61.92 98.2496Z" fill="#FFB8B8"/>
<path d="M80.0133 125.106H52.594L53.4898 104.948L53.7033 104.723L56.7804 101.473H66.5724L70.2013 104.988L70.4944 105.272L78.2217 112.678L80.0133 125.106Z" fill="#009999"/>
<path d="M57.3094 125.105H36.5649C36.5138 120.555 36.4854 117.83 36.4854 117.83L37.6855 117.099C37.6869 117.097 37.689 117.096 37.6912 117.096H37.6941L50.9132 109.07L53.6889 104.562L53.7032 104.722L54.5195 114.224C54.5195 114.224 55.8675 118.581 57.3094 125.105Z" fill="#2F2E41"/>
<path d="M92.1744 125.105H70.2013C70.534 111.835 68.7423 104.562 69.6639 104.562L70.2013 104.986L76.6772 110.1L85.2122 113.231H85.2179L91.1023 115.39L92.1346 115.768V116.254C92.1374 117.42 92.1431 120.609 92.1744 125.105Z" fill="#2F2E41"/>
<path d="M50.2199 89.7514C50.2199 89.7514 51.2706 87.9062 51.0263 81.7417C50.782 75.5773 60.169 79.0638 68.0127 78.4758C75.8565 77.8877 74.1961 88.7674 74.1961 88.7674C74.1961 88.7674 74.762 88.1207 75.9735 82.8698C77.1851 77.619 74.4342 72.3863 74.4342 72.3863C73.6241 66.8686 69.2578 68.637 69.2578 68.637C71.3606 69.4556 70.9567 71.2059 70.9567 71.2059C69.1768 68.0853 64.8106 69.8537 64.8106 69.8537C58.9873 66.1994 53.0855 71.0116 53.0855 71.0116C46.0506 72.6082 50.1763 78.2027 50.1763 78.2027C43.1015 81.778 50.2199 89.7514 50.2199 89.7514Z" fill="#2F2E41"/>
<path d="M39.3351 125.106H30.8115C30.8779 124.056 30.8798 123.003 30.8172 121.952C30.3081 119.925 37.4694 117.183 37.6855 117.101C37.687 117.099 37.689 117.098 37.6912 117.098H37.6941L39.0592 117.831L39.3351 125.106Z" fill="#2F2E41"/>
<path d="M93.7131 125.105H84.76L83.6423 114.07L84.8965 113.154C84.8965 113.154 85.0103 113.18 85.2123 113.231H85.2179C86.2218 113.479 89.3275 114.298 91.1023 115.39C91.4971 115.611 91.8472 115.904 92.1346 116.254C92.3106 116.465 92.3983 116.737 92.3792 117.011C92.3337 117.423 92.857 120.461 93.7131 125.105Z" fill="#2F2E41"/>
<path d="M317.82 123.716H193.535C193.196 123.715 192.87 123.581 192.63 123.341C192.39 123.101 192.256 122.775 192.255 122.436V1.27982C192.256 0.940505 192.39 0.615201 192.63 0.37527C192.87 0.135338 193.196 0.000377343 193.535 0H317.82C318.159 0.000370996 318.484 0.135325 318.724 0.375258C318.964 0.61519 319.099 0.940503 319.099 1.27982V122.436C319.099 122.775 318.964 123.101 318.724 123.341C318.484 123.581 318.159 123.716 317.82 123.716Z" fill="#F0F0F0"/>
<path d="M304.311 11.0918H207.044C206.705 11.0923 206.38 11.2273 206.14 11.4672C205.9 11.7071 205.765 12.0323 205.764 12.3716V87.7388C205.765 88.078 205.9 88.4033 206.14 88.6432C206.38 88.8831 206.705 89.0181 207.044 89.0186H304.311C304.65 89.0181 304.975 88.8831 305.215 88.6432C305.455 88.4033 305.59 88.078 305.59 87.7388V12.3716C305.59 12.0323 305.455 11.7071 305.215 11.4672C304.975 11.2273 304.65 11.0923 304.311 11.0918Z" fill="white"/>
<path d="M298.764 103.808H212.59C212.401 103.808 212.221 103.733 212.087 103.599C211.954 103.466 211.879 103.285 211.879 103.097V99.1153C211.879 98.9268 211.954 98.7461 212.087 98.6128C212.221 98.4795 212.401 98.4045 212.59 98.4043H298.764C298.953 98.4045 299.134 98.4795 299.267 98.6128C299.4 98.7461 299.475 98.9268 299.475 99.1153V103.097C299.475 103.285 299.4 103.466 299.267 103.599C299.134 103.733 298.953 103.808 298.764 103.808Z" fill="white"/>
<path d="M268.902 113.478H212.59C212.401 113.478 212.221 113.403 212.087 113.269C211.954 113.136 211.879 112.955 211.879 112.767V108.785C211.879 108.597 211.954 108.416 212.087 108.283C212.221 108.149 212.401 108.074 212.59 108.074H268.902C269.09 108.074 269.271 108.149 269.404 108.283C269.538 108.416 269.613 108.597 269.613 108.785V112.767C269.613 112.955 269.538 113.136 269.404 113.269C269.271 113.403 269.09 113.478 268.902 113.478Z" fill="white"/>
<path d="M279.618 89.0195C280.167 87.0429 280.594 85.3393 280.813 84.1334C280.881 83.7616 280.887 83.3812 280.833 83.0072C280.014 77.1797 265.219 72.2539 263.322 71.6453L262.864 66.5715L244.241 64.5664L241.884 71.0565L235.2 73.5621C234.958 73.6515 234.728 73.7699 234.515 73.9148C233.954 74.2933 233.523 74.8346 233.279 75.4656C233.036 76.0967 232.991 76.7872 233.152 77.4442L235.999 89.0195H279.618V89.0195Z" fill="#009999"/>
<path d="M241.013 89.0186H226.563C227.08 85.7934 227.544 82.9409 227.845 81.1264C228.949 74.5225 233.761 73.9594 234.515 73.9139C234.574 73.9082 234.611 73.9082 234.614 73.9082H237.655L241.013 89.0186Z" fill="#009999"/>
<path d="M279.618 89.0193H283.122C282.812 86.1725 281.828 84.2556 280.833 83.007C280.168 82.1293 279.311 81.4161 278.327 80.9224L278.063 80.8086L274.983 89.0193H279.618Z" fill="#009999"/>
<path d="M252.825 61.3545C260.231 61.3545 266.234 55.3513 266.234 47.9458C266.234 40.5404 260.231 34.5371 252.825 34.5371C245.42 34.5371 239.417 40.5404 239.417 47.9458C239.417 55.3513 245.42 61.3545 252.825 61.3545Z" fill="#A0616A"/>
<path d="M243.825 41.4135C245.213 43.0562 247.562 43.5195 249.729 43.7079C254.13 44.094 260.528 43.4679 264.829 42.4751C265.138 45.4499 264.3 48.6577 266.051 51.1052C266.873 48.1424 267.35 45.0949 267.475 42.0228C267.528 40.7053 267.507 39.3423 266.972 38.1329C266.437 36.9235 265.269 35.8967 263.924 35.8861C264.923 35.1285 266.093 34.6284 267.331 34.4301L263.074 32.2905L264.167 31.168L256.459 30.6963L258.692 29.2782C255.331 28.8166 251.93 28.7097 248.546 28.9592C246.975 29.0748 245.333 29.2959 244.061 30.2061C242.788 31.1164 242.053 32.925 242.843 34.2611C241.854 34.4235 240.922 34.8358 240.137 35.4588C239.352 36.0819 238.739 36.8951 238.356 37.8214C237.788 39.2599 237.841 40.8576 238.015 42.3904C238.306 44.8419 238.875 47.2521 239.713 49.5742" fill="#2F2E41"/>
<path d="M224.507 199.999H100.222C99.8831 199.999 99.5578 199.864 99.3179 199.624C99.078 199.384 98.943 199.059 98.9426 198.719V77.563C98.943 77.2237 99.078 76.8984 99.3179 76.6585C99.5578 76.4185 99.8831 76.2836 100.222 76.2832H224.507C224.846 76.2836 225.172 76.4185 225.412 76.6585C225.652 76.8984 225.787 77.2237 225.787 77.563V198.719C225.787 199.059 225.652 199.384 225.412 199.624C225.172 199.864 224.846 199.999 224.507 199.999Z" fill="#E4E4E4"/>
<path d="M210.998 87.377H113.732C113.392 87.3775 113.067 87.5125 112.827 87.7524C112.587 87.9923 112.452 88.3175 112.452 88.6568V164.024C112.452 164.363 112.587 164.688 112.827 164.928C113.067 165.168 113.392 165.303 113.732 165.304H210.998C211.337 165.303 211.663 165.168 211.902 164.928C212.142 164.688 212.277 164.363 212.278 164.024V88.6568C212.277 88.3175 212.142 87.9923 211.902 87.7524C211.663 87.5125 211.337 87.3775 210.998 87.377Z" fill="white"/>
<path d="M205.452 180.091H119.277C119.089 180.091 118.908 180.016 118.775 179.883C118.642 179.749 118.567 179.569 118.566 179.38V175.399C118.567 175.21 118.642 175.029 118.775 174.896C118.908 174.763 119.089 174.688 119.277 174.688H205.452C205.64 174.688 205.821 174.763 205.954 174.896C206.088 175.029 206.163 175.21 206.163 175.399V179.38C206.163 179.569 206.088 179.749 205.954 179.883C205.821 180.016 205.64 180.091 205.452 180.091Z" fill="white"/>
<path d="M175.589 189.761H119.277C119.089 189.761 118.908 189.686 118.775 189.553C118.642 189.419 118.567 189.239 118.566 189.05V185.068C118.567 184.88 118.642 184.699 118.775 184.566C118.908 184.433 119.089 184.358 119.277 184.357H175.589C175.778 184.358 175.959 184.433 176.092 184.566C176.225 184.699 176.3 184.88 176.3 185.068V189.05C176.3 189.239 176.225 189.419 176.092 189.553C175.959 189.686 175.778 189.761 175.589 189.761Z" fill="white"/>
<path d="M171.935 165.303H152.359L153.579 146.993L160.641 148.622L167.51 145.98L167.692 145.912L167.703 145.906C167.705 145.912 167.707 145.917 167.709 145.923C167.817 146.358 169.973 154.99 171.935 165.303Z" fill="#009999"/>
<path d="M183.732 149.982L181.903 165.303H165.405L167.51 145.981L167.53 145.793L167.692 145.912L167.709 145.924L171.779 148.893L183.732 149.982Z" fill="#2F2E41"/>
<path d="M155.255 165.302H140.48L140.267 153.241L151.139 149.634L153.58 146.992C153.58 146.992 154.35 154.941 155.255 165.302Z" fill="#2F2E41"/>
<path d="M190.845 165.303H178.601L179.386 154.328L183.732 149.982C183.732 149.982 187.17 157.195 190.845 165.303Z" fill="#2F2E41"/>
<path d="M143.964 165.304H137.505C137.533 161.789 137.55 159.36 137.55 158.674C137.518 157.615 137.749 156.564 138.223 155.616C138.697 154.668 139.399 153.852 140.267 153.242L143.529 154.329L143.964 165.304Z" fill="#2F2E41"/>
<path d="M142.956 128.146C142.966 125.168 143.749 122.243 145.228 119.658C146.708 117.073 148.832 114.916 151.395 113.399C156.84 110.185 163.409 110.243 169.417 113.558C173.698 115.92 177.181 121.864 177.181 126.807V141.232H142.956V128.146Z" fill="#2F2E41"/>
<path d="M165.32 139.362C171.311 136.087 173.512 128.576 170.238 122.586C166.963 116.595 159.452 114.394 153.462 117.668C147.471 120.943 145.269 128.454 148.544 134.444C151.819 140.435 159.33 142.637 165.32 139.362Z" fill="#FFB8B8"/>
<path d="M146.5 128.631C146.406 128.523 146.187 128.269 147.712 116.537L147.76 116.345H147.898C155.627 112.543 163.468 112.447 171.206 116.059C171.445 116.172 171.649 116.345 171.801 116.561C171.952 116.777 172.045 117.029 172.07 117.291C172.973 128.315 172.754 128.555 172.661 128.658C172.519 128.813 172.347 128.938 172.154 129.023C171.962 129.108 171.754 129.152 171.544 129.152H168.115L168.043 129.022C167.455 127.929 166.809 126.866 166.108 125.84C165.786 126.862 165.523 127.9 165.318 128.952L165.277 129.152H147.641C147.425 129.152 147.211 129.106 147.014 129.016C146.817 128.926 146.642 128.795 146.5 128.631Z" fill="#2F2E41"/>
</g>
<defs>
<clipPath id="clip0_5625_17487">
<rect width="318.199" height="200" fill="white" transform="translate(0.900635)"/>
</clipPath>
</defs>
</svg>
