<svg width="24" height="24" viewBox="0 0 24 24" fill="none" xmlns="http://www.w3.org/2000/svg">
<path d="M19.7689 17.2814C19.4782 15.5189 17.9126 14.2556 16.129 14.3423C14.3454 14.429 12.911 15.8423 12.7962 17.6235C9.19854 17.511 7.9212 16.6696 8.12979 14.9587C8.20713 14.3189 8.59385 13.9767 9.30401 13.8103C9.73526 13.7095 10.2134 13.6954 10.647 13.7353C10.6868 13.74 10.729 13.7423 10.7689 13.747C11.0337 13.8103 11.3032 13.8642 11.5728 13.9064C12.372 14.0376 13.1853 14.1032 13.9587 14.061C16.1337 13.9439 17.6149 12.9853 17.6899 10.9509C17.7626 8.9798 16.4079 7.58292 14.2235 6.64777C13.5228 6.34777 12.7798 6.11574 12.0368 5.93995C11.7017 5.86027 11.4204 5.80636 11.2118 5.7712C11.0267 3.9923 9.53604 2.63527 7.74776 2.6212C5.95948 2.60714 4.44542 3.93605 4.22979 5.71261C4.01417 7.48917 5.16729 9.14152 6.90635 9.55402C8.64542 9.96652 10.4196 9.00792 11.0243 7.32511C11.2446 7.36495 11.4626 7.40949 11.6806 7.46105C12.3415 7.61574 13.0024 7.82199 13.6118 8.08449C15.2689 8.7923 16.1735 9.72745 16.1314 10.8946C16.0939 11.94 15.3439 12.4228 13.8767 12.5025C13.2321 12.5376 12.5267 12.4814 11.8306 12.3665C11.636 12.3337 11.4579 12.3009 11.3009 12.2657C11.2095 12.247 11.1462 12.2306 11.1181 12.2235L11.0454 12.2095C10.9939 12.2025 10.9071 12.1907 10.7946 12.179C10.2087 12.1251 9.57354 12.1439 8.95479 12.2868C7.66104 12.5892 6.75401 13.3931 6.58526 14.7665C6.21729 17.7243 8.42745 19.0954 13.054 19.1939C13.736 20.8439 15.5478 21.7228 17.2634 21.2329C18.9814 20.7431 20.0595 19.0439 19.7689 17.2814ZM7.7126 8.08917C6.63448 8.08917 5.76026 7.21495 5.76026 6.13683C5.76026 5.0587 6.63448 4.18449 7.7126 4.18449C8.79073 4.18449 9.66495 5.0587 9.66495 6.13683C9.66495 7.21495 8.79073 8.08917 7.7126 8.08917ZM16.3024 19.8032C15.2243 19.8032 14.3501 18.929 14.3501 17.8509C14.3501 16.7728 15.2243 15.8986 16.3024 15.8986C17.3806 15.8986 18.2548 16.7728 18.2548 17.8509C18.2548 18.929 17.3806 19.8032 16.3024 19.8032Z" fill="#009999"/>
</svg>
