<svg width="41" height="35" viewBox="0 0 41 35" fill="none" xmlns="http://www.w3.org/2000/svg">
<g clip-path="url(#clip0_5678_18467)">
<mask id="mask0_5678_18467" style="mask-type:alpha" maskUnits="userSpaceOnUse" x="-1" y="-1" width="42" height="37">
<path d="M30.0774 0.123047H10.0979L0.105713 17.4983L10.0979 34.876H30.0774L40.0697 17.4983L30.0774 0.123047Z" fill="#009999" stroke="#009999" stroke-width="0.739514" stroke-linejoin="bevel"/>
</mask>
<g mask="url(#mask0_5678_18467)">
<path opacity="0.4" d="M24.7423 14.1445C24.8088 14.1445 24.8742 14.1445 24.9406 14.1445C26.699 16.057 28.4544 17.9717 30.2177 19.8798C31.3278 21.0812 32.4479 22.2693 33.564 23.4629V23.9067H32.0435V35H18.1014H8.28855V25.016H7C7 24.9794 7 24.9417 7 24.9051C9.03591 22.4701 11.0718 20.034 13.1325 17.5702C14.6015 19.1476 16.0248 20.6763 17.5532 22.3181C17.9477 21.82 18.3392 21.3674 18.6832 20.8749C18.8299 20.6641 18.9577 20.3701 18.9627 20.1116C18.9895 18.4687 18.9796 16.8247 18.9815 15.1806C18.9815 14.9865 18.9815 14.7924 18.9815 14.5916H22.6252V16.5329C23.4062 15.651 24.0743 14.8978 24.7423 14.1445Z" fill="#006666"/>
</g>
<path d="M30.0774 34.876L0.105713 17.4983L30.0774 0.123047V34.876Z" stroke="#009999" stroke-width="0.739514" stroke-linejoin="bevel"/>
<path d="M10.0979 34.7666L40.0893 17.5198L10.1176 0.144531L10.0979 34.7666Z" stroke="#009999" stroke-width="0.739514" stroke-linejoin="bevel"/>
<path d="M30.0774 0.123047H10.0979L0.105713 17.4983L10.0979 34.876H30.0774L40.0697 17.4983L30.0774 0.123047Z" fill="#009999" fill-opacity="0.2" stroke="#009999" stroke-width="0.739514" stroke-linejoin="bevel"/>
</g>
<defs>
<clipPath id="clip0_5678_18467">
<rect width="40.1755" height="35" fill="white"/>
</clipPath>
</defs>
</svg>
