<svg width="402" height="200" viewBox="0 0 402 200" fill="none" xmlns="http://www.w3.org/2000/svg">
<g clip-path="url(#clip0_5624_17422)">
<path d="M109.913 163.576C120.808 163.576 129.64 154.743 129.64 143.848C129.64 132.953 120.808 124.121 109.913 124.121C99.0177 124.121 90.1855 132.953 90.1855 143.848C90.1855 154.743 99.0177 163.576 109.913 163.576Z" fill="#E4E4E4"/>
<path opacity="0.2" d="M95.3468 130.674C93.5067 134.978 93.2571 139.797 94.6426 144.268C96.028 148.739 98.9583 152.573 102.91 155.082C106.861 157.592 111.576 158.615 116.213 157.969C120.849 157.322 125.104 155.048 128.218 151.553C127.094 154.182 125.412 156.536 123.288 158.451C121.164 160.366 118.648 161.797 115.917 162.643C113.185 163.49 110.302 163.732 107.467 163.354C104.632 162.975 101.913 161.985 99.4993 160.452C97.0852 158.919 95.0333 156.879 93.4858 154.473C91.9383 152.068 90.9322 149.356 90.5372 146.523C90.1422 143.691 90.3678 140.806 91.1983 138.069C92.0287 135.333 93.4443 132.809 95.3468 130.674Z" fill="black"/>
<path d="M109.967 143.85H110.021L110.997 199.779H108.937L109.967 143.85Z" fill="#3F3D56"/>
<path d="M69.9988 126.788C91.9652 126.788 109.773 108.98 109.773 87.0139C109.773 65.0475 91.9652 47.2402 69.9988 47.2402C48.0324 47.2402 30.2251 65.0475 30.2251 87.0139C30.2251 108.98 48.0324 126.788 69.9988 126.788Z" fill="#E4E4E4"/>
<path opacity="0.2" d="M40.6311 60.4492C36.9211 69.1276 36.4178 78.8423 39.2112 87.8576C42.0045 96.8728 47.9125 104.601 55.8794 109.661C63.8462 114.722 73.3529 116.784 82.7005 115.48C92.0481 114.177 100.628 109.592 106.906 102.545C104.639 107.847 101.247 112.593 96.9648 116.454C92.6822 120.315 87.6113 123.199 82.1035 124.905C76.5958 126.612 70.7827 127.101 65.0673 126.338C59.3518 125.575 53.8705 123.579 49.0032 120.487C44.1358 117.396 39.9988 113.283 36.8788 108.434C33.7588 103.585 31.7303 98.1151 30.9339 92.4042C30.1376 86.6933 30.5923 80.8775 32.2667 75.3598C33.9412 69.8421 36.7952 64.7544 40.6311 60.4492Z" fill="black"/>
<path d="M70.1082 87.0137H70.2177L72.1845 199.779H68.0322L70.1082 87.0137Z" fill="#3F3D56"/>
<path d="M332.228 141.412H149.922V195.455H332.228V141.412Z" fill="#F0F0F0"/>
<path d="M251.704 152.582H230.447V195.456H251.704V152.582Z" fill="#CACACA"/>
<path d="M321.599 77.6426H160.551V127.362H321.599V77.6426Z" fill="#F0F0F0"/>
<path d="M337.927 80.7043H144.223C143.9 80.7043 143.584 80.6076 143.316 80.4266C143.048 80.2456 142.84 79.9886 142.719 79.6887C142.599 79.3887 142.57 79.0594 142.638 78.7432C142.706 78.427 142.867 78.1383 143.1 77.9142L196.039 27.0286V4.86388C196.04 4.43404 196.211 4.02194 196.514 3.71799C196.818 3.41404 197.23 3.24307 197.66 3.24259H208.109C208.539 3.24306 208.951 3.41403 209.255 3.71798C209.559 4.02193 209.729 4.43403 209.73 4.86388V13.869L213.729 10.0254C220.272 3.73584 228.953 0.155874 238.028 0.00497141C247.103 -0.145932 255.898 3.14341 262.647 9.21196L339.011 77.8773C339.255 78.0966 339.426 78.3847 339.503 78.7036C339.58 79.0225 339.558 79.3572 339.44 79.6634C339.323 79.9697 339.115 80.2331 338.845 80.4189C338.575 80.6048 338.255 80.7043 337.927 80.7043V80.7043Z" fill="#CACACA"/>
<path d="M203.065 90.252C204.413 90.252 205.748 90.5175 206.994 91.0336C208.24 91.5496 209.372 92.3059 210.325 93.2594C211.279 94.2129 212.035 95.3449 212.551 96.5907C213.067 97.8365 213.333 99.1717 213.333 100.52V114.391H192.796V100.52C192.796 99.1717 193.062 97.8365 193.578 96.5907C194.094 95.3449 194.85 94.2129 195.804 93.2594C196.757 92.3059 197.889 91.5496 199.135 91.0336C200.381 90.5175 201.716 90.252 203.065 90.252Z" fill="white"/>
<path d="M241.075 90.4316C243.798 90.4316 246.41 91.5135 248.336 93.4391C250.261 95.3648 251.343 97.9765 251.343 100.7V114.571H230.807V100.7C230.807 97.9765 231.888 95.3648 233.814 93.4391C235.74 91.5135 238.352 90.4316 241.075 90.4316Z" fill="white"/>
<path d="M279.085 90.6113C281.808 90.6113 284.42 91.6932 286.346 93.6188C288.271 95.5445 289.353 98.1562 289.353 100.88V114.751H268.817V100.88C268.817 98.1562 269.899 95.5445 271.824 93.6188C273.75 91.6932 276.362 90.6113 279.085 90.6113Z" fill="white"/>
<path d="M294.217 152.041C296.941 152.041 299.552 153.123 301.478 155.048C303.404 156.974 304.486 159.586 304.486 162.309V176.18H283.949V162.309C283.949 159.586 285.031 156.974 286.957 155.048C288.882 153.123 291.494 152.041 294.217 152.041Z" fill="white"/>
<path d="M192.616 152.041C195.34 152.041 197.951 153.123 199.877 155.048C201.803 156.974 202.885 159.586 202.885 162.309V176.18H182.348V162.309C182.348 160.961 182.614 159.626 183.13 158.38C183.646 157.134 184.402 156.002 185.356 155.048C186.309 154.095 187.441 153.339 188.687 152.823C189.933 152.307 191.268 152.041 192.616 152.041Z" fill="white"/>
<path d="M358.862 142.257L324.663 127.125C324.48 127.044 324.281 127.002 324.08 127.002H161.096C160.91 127.002 160.726 127.038 160.554 127.108L123.329 142.24C123.019 142.366 122.763 142.596 122.604 142.89C122.445 143.184 122.393 143.524 122.457 143.852C122.521 144.18 122.697 144.475 122.955 144.688C123.213 144.9 123.537 145.016 123.871 145.016H133.529V194.736H132.449V199.78H349.702V194.736H347.9V145.016H358.279C358.609 145.016 358.93 144.903 359.186 144.695C359.443 144.486 359.62 144.196 359.689 143.873C359.757 143.55 359.712 143.213 359.562 142.919C359.411 142.624 359.164 142.391 358.862 142.257ZM345.018 194.736H136.412V145.016H345.018V194.736Z" fill="#CACACA"/>
<path d="M215.855 112.41H189.554V116.734H215.855V112.41Z" fill="#CACACA"/>
<path d="M254.406 112.41H228.105V116.734H254.406V112.41Z" fill="#CACACA"/>
<path d="M292.957 112.41H266.656V116.734H292.957V112.41Z" fill="#CACACA"/>
<path d="M307.368 174.74H281.067V179.064H307.368V174.74Z" fill="#CACACA"/>
<path d="M205.407 174.74H179.106V179.064H205.407V174.74Z" fill="#CACACA"/>
<path d="M401.221 200H0.779392C0.662298 200 0.55 199.954 0.467203 199.871C0.384405 199.788 0.337891 199.676 0.337891 199.559C0.337891 199.442 0.384405 199.329 0.467203 199.247C0.55 199.164 0.662298 199.117 0.779392 199.117H401.221C401.338 199.117 401.45 199.164 401.533 199.247C401.616 199.329 401.662 199.442 401.662 199.559C401.662 199.676 401.616 199.788 401.533 199.871C401.45 199.954 401.338 200 401.221 200Z" fill="#3F3D56"/>
<path d="M300.5 76.9005C300.5 77.1831 300.495 77.47 300.491 77.7526C300.486 78.0926 300.478 78.4281 300.464 78.768C300.451 79.0639 300.438 79.3552 300.42 79.6466C300.367 80.6224 300.283 81.5937 300.169 82.5694C300.142 82.8166 300.111 83.0595 300.076 83.3067C300.049 83.4965 300.023 83.6908 299.992 83.8851C299.961 84.1014 299.93 84.3177 299.895 84.5341C299.824 84.9932 299.745 85.4524 299.656 85.9115C299.612 86.1411 299.568 86.3707 299.52 86.6003C299.427 87.055 299.325 87.5142 299.219 87.969C299.21 88.0043 299.202 88.044 299.193 88.0793C299.14 88.3045 299.087 88.5253 299.029 88.7504C299.012 88.8166 298.999 88.8785 298.976 88.9447C298.937 89.1124 298.892 89.2802 298.848 89.448C298.787 89.682 298.725 89.9115 298.659 90.1455C298.553 90.5076 298.447 90.8652 298.336 91.2272C298.323 91.2648 298.311 91.3032 298.301 91.342C298.089 92.0263 297.864 92.7018 297.617 93.3729C297.489 93.7261 297.352 94.0837 297.215 94.4369C297.078 94.7901 296.937 95.1433 296.791 95.4921C296.65 95.8321 296.504 96.172 296.358 96.5076C296.323 96.587 296.288 96.6665 296.248 96.746C296.093 97.0947 295.934 97.4347 295.771 97.7747C295.767 97.7791 295.767 97.7879 295.762 97.7923C295.634 98.0661 295.497 98.3398 295.36 98.6091C295.36 98.6173 295.357 98.6252 295.352 98.6312C295.219 98.8961 295.082 99.161 294.941 99.4214L294.716 99.8497L294.689 99.8983C294.407 100.424 294.116 100.945 293.806 101.461C293.74 101.576 293.674 101.691 293.608 101.801C293.542 101.916 293.471 102.031 293.4 102.141C293.356 102.221 293.308 102.3 293.255 102.38C293.162 102.53 293.069 102.684 292.972 102.834C292.954 102.865 292.932 102.896 292.915 102.927C292.747 103.187 292.579 103.444 292.411 103.704C292.204 104.017 291.992 104.327 291.776 104.636L286.981 112.309L286.773 112.137L286.716 112.084H286.712L286.522 111.925L286.001 111.483C285.842 111.638 285.687 111.792 285.528 111.942C285.466 112.004 285.4 112.062 285.338 112.123C285.29 112.168 285.246 112.212 285.197 112.256C276.908 120.351 265.882 125.038 254.301 125.39H254.288C245.521 125.631 236.843 123.583 229.109 119.448C228.937 119.36 228.769 119.271 228.601 119.17C227.595 118.622 226.61 118.044 225.643 117.426C225.639 117.421 225.634 117.421 225.63 117.417C224.508 116.622 223.413 115.775 222.345 114.874C216.613 110.042 212.078 103.949 209.096 97.0709C206.114 90.193 204.766 82.7178 205.157 75.2315C205.171 74.9357 205.188 74.6443 205.21 74.3485C205.281 73.2801 205.39 72.216 205.537 71.1564C205.577 70.8606 205.621 70.5648 205.665 70.2734H300.049C300.235 71.6244 300.363 72.9828 300.433 74.3485C300.478 75.2007 300.5 76.0484 300.5 76.9005Z" fill="#F0F0F0"/>
<path d="M300.049 70.2744C298.35 58.9744 292.652 48.6592 283.992 41.204C275.332 33.7487 264.284 29.6484 252.857 29.6484C241.43 29.6484 230.382 33.7487 221.722 41.204C213.062 48.6592 207.364 58.9744 205.665 70.2744C205.621 70.5658 205.577 70.8616 205.537 71.1574C205.392 72.217 205.283 73.281 205.21 74.3495H300.433C300.363 72.9852 300.235 71.6269 300.049 70.2744Z" fill="#009999"/>
<path d="M255.949 119.447H228.604V97.5721C229.108 87.5752 237.652 86.768 245.681 87.3045C247.029 87.3044 248.365 87.5699 249.61 88.0859C250.856 88.6018 251.988 89.3581 252.942 90.3116C253.895 91.265 254.651 92.397 255.167 93.6427C255.684 94.8885 255.949 96.2237 255.949 97.5721V119.447Z" fill="#009999"/>
<path d="M228.601 103.895V103.899C228.601 103.904 228.606 103.904 228.61 103.904L228.601 103.895ZM217.603 70.2746C217.586 70.385 217.564 70.4954 217.546 70.6058C217.564 70.4954 217.586 70.385 217.608 70.2746H217.603ZM217.056 74.3497C217.043 74.5174 217.029 74.6852 217.021 74.853C217.029 74.6852 217.043 74.5174 217.06 74.3497C217.06 74.3187 217.061 74.2877 217.065 74.257C217.06 74.2879 217.06 74.3188 217.056 74.3497ZM228.601 103.899C228.601 103.904 228.606 103.904 228.61 103.904L228.601 103.895V103.899ZM217.603 70.2746C217.586 70.385 217.564 70.4954 217.546 70.6058C217.564 70.4954 217.586 70.385 217.608 70.2746H217.603ZM217.021 74.853C217.029 74.6852 217.043 74.5174 217.06 74.3497C217.06 74.3187 217.061 74.2877 217.065 74.257C217.06 74.2879 217.06 74.3188 217.056 74.3497C217.043 74.5174 217.029 74.6852 217.021 74.853ZM353.418 156.072C353.332 155.981 353.241 155.895 353.144 155.815L353.14 155.811L331.277 137.361L330.712 136.884L328.562 135.069L328.023 134.615L324.959 132.027L324.12 131.321L322.385 129.855L321.497 129.105L313.127 122.045L308.327 117.996L307.683 117.453L293.542 105.52C293.758 105.211 293.97 104.902 294.177 104.588C294.345 104.328 294.513 104.072 294.681 103.811C294.698 103.78 294.72 103.749 294.738 103.718C294.835 103.568 294.928 103.414 295.021 103.264C295.074 103.184 295.122 103.105 295.166 103.025C295.237 102.915 295.308 102.8 295.374 102.685C295.44 102.575 295.506 102.46 295.572 102.345C295.882 101.829 296.173 101.308 296.455 100.782L296.482 100.734L296.707 100.306C296.848 100.045 296.985 99.7802 297.118 99.5152C297.123 99.5092 297.126 99.5014 297.127 99.4932C297.263 99.2239 297.4 98.9501 297.528 98.6764C297.533 98.672 297.533 98.6632 297.537 98.6588C297.7 98.3188 297.859 97.9788 298.014 97.6301C298.054 97.5506 298.089 97.4711 298.124 97.3917C298.27 97.0561 298.416 96.7162 298.557 96.3762C298.703 96.0274 298.844 95.6742 298.981 95.321C299.118 94.9678 299.255 94.6102 299.383 94.257C299.625 93.5815 299.854 92.9045 300.067 92.2261C300.077 92.1872 300.089 92.1489 300.102 92.1113C300.213 91.7493 300.319 91.3917 300.425 91.0296C300.491 90.7956 300.553 90.566 300.614 90.332C300.659 90.1643 300.703 89.9965 300.742 89.8287C300.765 89.7626 300.778 89.7007 300.795 89.6345C300.853 89.4093 300.906 89.1886 300.959 88.9634C300.968 88.9281 300.976 88.8884 300.985 88.8531C301.091 88.3983 301.193 87.9391 301.285 87.4844C301.334 87.2548 301.378 87.0252 301.422 86.7956C301.506 86.3365 301.59 85.8773 301.661 85.4182C301.696 85.2018 301.727 84.9855 301.758 84.7692C301.789 84.5749 301.815 84.3806 301.842 84.1908C301.877 83.9435 301.908 83.7007 301.934 83.4535C302.049 82.4778 302.133 81.5065 302.186 80.5307C302.204 80.2393 302.217 79.9479 302.23 79.6521C302.243 79.3122 302.252 78.9766 302.257 78.6367C302.261 78.3541 302.266 78.0672 302.266 77.7846C302.266 76.9325 302.244 76.0848 302.199 75.2327C302.129 73.8685 302.001 72.5101 301.815 71.1576C300.233 59.5968 294.544 48.9913 285.787 41.2797C277.03 33.5681 265.79 29.2655 254.122 29.1583C242.454 29.0511 231.137 33.1466 222.24 40.6961C213.342 48.2455 207.459 58.7448 205.665 70.2746C205.621 70.566 205.577 70.8618 205.537 71.1576C205.391 72.2172 205.283 73.2813 205.21 74.3497C205.188 74.6455 205.171 74.9369 205.157 75.2327C204.766 82.719 206.114 90.1942 209.096 97.0721C212.078 103.95 216.613 110.044 222.345 114.875C223.413 115.776 224.508 116.623 225.63 117.418C225.634 117.423 225.639 117.423 225.643 117.427C226.018 117.692 226.394 117.952 226.773 118.208C227.378 118.606 227.987 118.994 228.601 119.365C228.65 119.392 228.698 119.423 228.747 119.449C229.277 119.767 229.811 120.072 230.345 120.367H230.349C232.338 121.461 234.402 122.411 236.526 123.211C242.758 125.555 249.404 126.598 256.054 126.275H256.067C263.829 125.899 271.386 123.663 278.102 119.754C279.078 119.189 280.04 118.584 280.981 117.939C281.215 117.78 281.453 117.617 281.683 117.453C281.965 117.255 282.248 117.047 282.531 116.84C282.535 116.84 282.535 116.835 282.539 116.835C282.56 116.818 282.582 116.802 282.606 116.787C282.795 116.641 282.99 116.495 283.175 116.354C283.224 116.319 283.272 116.283 283.321 116.244C283.334 116.235 283.345 116.224 283.356 116.213C283.466 116.133 283.572 116.045 283.683 115.961C283.793 115.877 283.899 115.789 284.009 115.701C284.028 115.689 284.046 115.676 284.063 115.661C284.186 115.559 284.31 115.462 284.433 115.361C284.561 115.259 284.685 115.153 284.804 115.052C284.928 114.95 285.047 114.849 285.171 114.743C285.277 114.654 285.387 114.562 285.493 114.464C285.528 114.438 285.559 114.407 285.595 114.376C285.608 114.363 285.623 114.351 285.639 114.341C285.784 114.217 285.926 114.089 286.067 113.961C286.102 113.93 286.133 113.899 286.169 113.868C286.385 113.674 286.601 113.48 286.813 113.277C286.862 113.233 286.915 113.184 286.963 113.14C287.012 113.096 287.056 113.052 287.104 113.007C287.166 112.946 287.232 112.888 287.294 112.826C287.453 112.676 287.608 112.522 287.767 112.367L288.288 112.809L288.478 112.968H288.482L288.539 113.021L288.747 113.193L291.829 115.798L291.895 115.855L291.948 115.895L292.297 116.191L292.994 116.782L293.692 117.37L293.793 117.453L297.038 120.191L297.489 120.57L300.619 123.211L316.822 136.884L317.387 137.361L339.564 156.072L345.25 160.871L347.365 162.654C347.814 163.034 348.333 163.322 348.893 163.501C349.453 163.68 350.043 163.747 350.629 163.697C351.215 163.648 351.786 163.484 352.308 163.214C352.831 162.944 353.295 162.574 353.674 162.125C353.992 161.752 354.244 161.328 354.42 160.871C354.741 160.06 354.817 159.174 354.639 158.321C354.46 157.468 354.036 156.686 353.418 156.072ZM225.528 53.7272C229.958 48.4784 235.781 44.5897 242.327 42.5104C248.873 40.4311 255.873 40.246 262.519 41.9765C269.165 43.707 275.187 47.2824 279.887 52.2898C284.587 57.2972 287.775 63.5323 289.082 70.2746C289.14 70.5704 289.193 70.8618 289.241 71.1576C289.422 72.2128 289.555 73.2812 289.634 74.3497C289.656 74.6455 289.678 74.9369 289.692 75.2327C289.731 75.8949 289.749 76.5616 289.749 77.2238C289.752 81.241 289.086 85.2307 287.78 89.0296V89.034C286.32 93.2935 284.079 97.2433 281.171 100.681C281.109 100.751 281.047 100.827 280.981 100.897C280.398 101.586 279.784 102.248 279.153 102.88C279.149 102.884 279.144 102.893 279.14 102.897C278.923 103.114 278.703 103.334 278.482 103.537C278.032 103.974 277.572 104.389 277.104 104.787C276.402 105.4 275.683 105.976 274.946 106.513C274.698 106.694 274.451 106.871 274.199 107.047C273.952 107.224 273.701 107.392 273.449 107.559C272.945 107.895 272.433 108.217 271.917 108.522C271.661 108.676 271.396 108.827 271.135 108.972C270.875 109.122 270.61 109.264 270.345 109.4C270.08 109.542 269.815 109.679 269.546 109.811C269.012 110.08 268.473 110.332 267.926 110.566C267.652 110.69 267.378 110.804 267.104 110.91C266.932 110.981 266.764 111.052 266.592 111.114C266.525 111.145 266.456 111.171 266.385 111.193C266.292 111.233 266.199 111.268 266.107 111.299C266.077 111.313 266.046 111.324 266.014 111.334C265.824 111.409 265.639 111.476 265.444 111.542C265.166 111.643 264.888 111.736 264.606 111.824C264.323 111.917 264.045 112.005 263.762 112.085C263.48 112.173 263.193 112.253 262.91 112.328C262.623 112.407 262.341 112.482 262.054 112.548C261.749 112.628 261.444 112.699 261.135 112.765C260.866 112.827 260.601 112.88 260.332 112.928C260.08 112.981 259.824 113.025 259.572 113.069C259.219 113.131 258.866 113.189 258.508 113.237C258.314 113.268 258.124 113.295 257.93 113.312C257.846 113.325 257.767 113.334 257.687 113.343C257.44 113.378 257.193 113.405 256.95 113.427C256.884 113.431 256.822 113.44 256.76 113.445C256.491 113.471 256.217 113.493 255.948 113.515C255.369 113.555 254.795 113.582 254.217 113.595C253.926 113.599 253.63 113.604 253.338 113.604C253.047 113.604 252.756 113.599 252.464 113.59C252.464 113.59 252.464 113.595 252.46 113.59C252.455 113.595 252.455 113.595 252.451 113.59C252.45 113.591 252.45 113.591 252.449 113.592C252.448 113.592 252.447 113.592 252.447 113.592C252.446 113.592 252.445 113.592 252.444 113.592C252.443 113.591 252.443 113.591 252.442 113.59C252.428 113.595 252.412 113.595 252.398 113.59C252.191 113.59 251.983 113.582 251.78 113.568C251.63 113.564 251.475 113.559 251.321 113.546C251.113 113.537 250.906 113.524 250.698 113.506C250.632 113.506 250.566 113.498 250.5 113.493C250.469 113.493 250.438 113.49 250.407 113.484C250.195 113.467 249.979 113.449 249.767 113.427C249.661 113.418 249.55 113.409 249.444 113.396C249.122 113.361 248.8 113.321 248.482 113.277C248.12 113.233 247.758 113.18 247.4 113.114C247.233 113.091 247.069 113.061 246.906 113.03C246.689 112.994 246.473 112.955 246.257 112.91C246.032 112.866 245.806 112.822 245.581 112.769C245.4 112.729 245.215 112.69 245.034 112.646C244.945 112.628 244.857 112.606 244.773 112.584C244.31 112.473 243.851 112.354 243.396 112.222C243.109 112.142 242.822 112.058 242.539 111.97C242.151 111.851 241.767 111.723 241.383 111.586C241.232 111.537 241.087 111.484 240.937 111.427C240.787 111.378 240.641 111.321 240.491 111.264C240.354 111.215 240.217 111.162 240.085 111.109C239.864 111.025 239.647 110.937 239.431 110.849C238.985 110.668 238.548 110.478 238.111 110.275C237.864 110.156 237.617 110.041 237.374 109.922C236.416 109.458 235.472 108.943 234.544 108.376C234.314 108.239 234.085 108.094 233.855 107.948C233.568 107.771 233.29 107.586 233.012 107.401C232.857 107.295 232.707 107.193 232.557 107.087C232.279 106.893 232.005 106.694 231.736 106.495C231.594 106.394 231.453 106.288 231.316 106.182C230.826 105.811 230.345 105.423 229.873 105.025C229.647 104.835 229.422 104.641 229.202 104.442C229.109 104.363 229.016 104.279 228.923 104.195C228.817 104.098 228.711 104.005 228.61 103.904L228.601 103.895C228.447 103.758 228.292 103.612 228.142 103.467C227.908 103.246 227.678 103.021 227.458 102.791C227.228 102.566 227.007 102.332 226.791 102.103C226.57 101.873 226.358 101.639 226.151 101.4C225.939 101.167 225.731 100.928 225.528 100.685C225.33 100.456 225.135 100.217 224.95 99.9833C224.5 99.427 224.07 98.8604 223.661 98.2835C223.471 98.0186 223.29 97.7537 223.113 97.4844C222.923 97.2106 222.742 96.9326 222.57 96.6544C222.389 96.3763 222.217 96.0936 222.049 95.8067C222.045 95.7969 222.039 95.7879 222.032 95.7802C221.7 95.2195 221.383 94.6544 221.087 94.0804C220.782 93.4977 220.495 92.909 220.226 92.3144C220.089 92.0186 219.957 91.7184 219.833 91.4182C219.577 90.8133 219.338 90.2085 219.118 89.5947C219.007 89.299 218.906 89.0031 218.804 88.7029C218.801 88.6831 218.795 88.6638 218.786 88.6456C218.583 88.0362 218.398 87.4226 218.235 86.8045C218.23 86.7957 218.23 86.7869 218.226 86.778C218.142 86.4734 218.062 86.1687 217.992 85.8597C217.921 85.5904 217.859 85.321 217.802 85.0473C217.736 84.7427 217.67 84.4381 217.612 84.129C217.581 83.97 217.55 83.8111 217.524 83.6522C217.497 83.5197 217.475 83.3829 217.453 83.2504C217.431 83.118 217.409 82.9811 217.387 82.8442C217.343 82.5749 217.303 82.3056 217.268 82.0363C217.224 81.7184 217.188 81.4005 217.153 81.0782C217.113 80.6941 217.078 80.31 217.047 79.9215C217.025 79.661 217.012 79.3961 216.998 79.1312C216.985 78.8884 216.972 78.6456 216.968 78.4027C216.963 78.3899 216.963 78.3759 216.968 78.363C216.967 78.3624 216.966 78.3617 216.966 78.361C216.966 78.3602 216.966 78.3594 216.966 78.3586C216.966 78.3578 216.966 78.3569 216.966 78.3562C216.966 78.3554 216.967 78.3547 216.968 78.3542C216.963 78.3498 216.963 78.3497 216.968 78.3453C216.967 78.3448 216.966 78.3441 216.966 78.3433C216.966 78.3426 216.966 78.3418 216.966 78.3409C216.966 78.3401 216.966 78.3393 216.966 78.3385C216.966 78.3378 216.967 78.3371 216.968 78.3365C216.963 78.2394 216.959 78.1423 216.959 78.0452C216.95 77.7582 216.945 77.4712 216.945 77.1842C216.945 76.9237 216.95 76.6676 216.954 76.4072C216.963 76.0451 216.976 75.6831 216.994 75.3211C216.994 75.2416 217.003 75.1665 217.007 75.0871C217.012 75.0076 217.016 74.9325 217.02 74.8531C217.029 74.6853 217.043 74.5175 217.06 74.3498C217.06 74.3188 217.061 74.2878 217.065 74.257C217.078 74.0672 217.096 73.8774 217.113 73.6875C217.149 73.3078 217.193 72.9237 217.241 72.544C217.268 72.3542 217.29 72.1643 217.321 71.9745C217.338 71.842 217.36 71.7052 217.383 71.5683C217.4 71.4314 217.422 71.2946 217.449 71.1577C217.48 70.9767 217.511 70.7913 217.546 70.6058C217.563 70.4955 217.586 70.3851 217.608 70.2747C217.692 69.8332 217.784 69.3917 217.886 68.9502C217.987 68.5043 218.102 68.0628 218.226 67.6213C218.345 67.1754 218.477 66.7295 218.619 66.2835C218.685 66.0584 218.756 65.8376 218.835 65.6169C218.981 65.171 219.135 64.7295 219.308 64.2924C219.387 64.076 219.471 63.8553 219.564 63.6389C219.74 63.2019 219.926 62.7648 220.115 62.3365C220.213 62.1202 220.31 61.9039 220.416 61.6875C220.614 61.2593 220.822 60.831 221.047 60.4116C221.263 59.9833 221.497 59.5639 221.736 59.1489C221.974 58.7339 222.221 58.3189 222.482 57.9083C222.601 57.7052 222.733 57.4977 222.87 57.299C223.135 56.8928 223.413 56.4866 223.696 56.0893C224.266 55.2857 224.879 54.4954 225.528 53.7272ZM217.056 74.3497C217.043 74.5174 217.029 74.6852 217.021 74.853C217.029 74.6852 217.043 74.5174 217.06 74.3497C217.06 74.3187 217.061 74.2877 217.065 74.257C217.06 74.2879 217.06 74.3188 217.056 74.3497ZM217.603 70.2746C217.586 70.385 217.564 70.4954 217.546 70.6058C217.564 70.4954 217.586 70.385 217.608 70.2746H217.603ZM228.601 103.895V103.899C228.601 103.904 228.606 103.904 228.61 103.904L228.601 103.895Z" fill="#3F3D56"/>
<path opacity="0.3" d="M229.873 105.024C222.89 99.1309 218.378 90.8272 217.234 81.7615C216.089 72.6959 218.396 63.5314 223.696 56.0879C223 56.7888 222.327 57.5229 221.678 58.2902C218.595 61.9437 216.262 66.1686 214.812 70.7238C213.362 75.2789 212.823 80.0751 213.227 84.8384C213.63 89.6017 214.968 94.2389 217.164 98.4852C219.359 102.731 222.37 106.504 226.023 109.587C233.402 115.813 242.952 118.852 252.572 118.037C262.191 117.222 271.094 112.619 277.32 105.241C277.968 104.473 278.578 103.686 279.151 102.88C272.705 109.357 264.059 113.173 254.93 113.57C245.802 113.967 236.857 110.916 229.873 105.024Z" fill="black"/>
</g>
<defs>
<clipPath id="clip0_5624_17422">
<rect width="401.324" height="200" fill="white" transform="translate(0.337891)"/>
</clipPath>
</defs>
</svg>
