<svg width="20" height="21" viewBox="0 0 20 21" fill="none" xmlns="http://www.w3.org/2000/svg">
<path d="M9.16699 14.3809H10.8337V9.38086H9.16699V14.3809ZM10.0003 7.71419C10.2364 7.71419 10.4345 7.63419 10.5945 7.47419C10.7545 7.31419 10.8342 7.11642 10.8337 6.88086C10.8337 6.64475 10.7537 6.44669 10.5937 6.28669C10.4337 6.12669 10.2359 6.04697 10.0003 6.04753C9.76421 6.04753 9.56616 6.12753 9.40616 6.28753C9.24616 6.44753 9.16644 6.6453 9.16699 6.88086C9.16699 7.11697 9.24699 7.31503 9.40699 7.47503C9.56699 7.63503 9.76477 7.71475 10.0003 7.71419ZM10.0003 18.5475C8.84755 18.5475 7.76421 18.3286 6.75033 17.8909C5.73644 17.4531 4.85449 16.8595 4.10449 16.11C3.35449 15.36 2.76088 14.4781 2.32366 13.4642C1.88644 12.4503 1.66755 11.367 1.66699 10.2142C1.66699 9.06141 1.88588 7.97808 2.32366 6.96419C2.76144 5.9503 3.35505 5.06836 4.10449 4.31836C4.85449 3.56836 5.73644 2.97475 6.75033 2.53753C7.76421 2.1003 8.84755 1.88141 10.0003 1.88086C11.1531 1.88086 12.2364 2.09975 13.2503 2.53753C14.2642 2.9753 15.1462 3.56892 15.8962 4.31836C16.6462 5.06836 17.24 5.9503 17.6778 6.96419C18.1156 7.97808 18.3342 9.06141 18.3337 10.2142C18.3337 11.367 18.1148 12.4503 17.677 13.4642C17.2392 14.4781 16.6456 15.36 15.8962 16.11C15.1462 16.86 14.2642 17.4539 13.2503 17.8917C12.2364 18.3295 11.1531 18.5481 10.0003 18.5475ZM10.0003 16.8809C11.8614 16.8809 13.4378 16.235 14.7295 14.9434C16.0212 13.6517 16.667 12.0753 16.667 10.2142C16.667 8.35308 16.0212 6.77669 14.7295 5.48503C13.4378 4.19336 11.8614 3.54753 10.0003 3.54753C8.13921 3.54753 6.56283 4.19336 5.27116 5.48503C3.97949 6.77669 3.33366 8.35308 3.33366 10.2142C3.33366 12.0753 3.97949 13.6517 5.27116 14.9434C6.56283 16.235 8.13921 16.8809 10.0003 16.8809Z" fill="#B5B5B5"/>
</svg>
