<svg width="301" height="227" viewBox="0 0 301 227" fill="none" xmlns="http://www.w3.org/2000/svg">
<g clip-path="url(#clip0_5822_13905)">
<path d="M111.048 60.5338C123.97 52.1939 141.768 55.4343 154.358 64.2709C158.466 67.1941 162.24 70.5614 165.61 74.3118C167.576 76.4678 169.439 78.7311 171.221 81.0724C171.66 81.6468 172.097 82.227 172.526 82.8129C172.819 83.209 173.11 83.6078 173.398 84.0095C177.013 89.034 180.326 94.3199 183.57 99.5577C191.669 112.633 199.978 126.098 212.317 135.278C214.859 137.169 218.405 138.871 221.01 137.066C223.27 135.498 223.367 132.201 222.852 129.499C220.94 119.488 214.042 111.192 206.714 104.11C199.386 97.0288 191.274 90.5361 185.737 81.979C180.199 73.4218 177.67 61.9977 182.52 53.0355C186.699 45.3123 195.692 40.9801 204.47 40.7784C213.248 40.5785 221.775 43.9907 229.202 48.676C236.627 53.3633 243.156 59.3108 249.971 64.8486C254.078 68.1896 259.814 71.5047 264.29 68.676C268.071 66.2854 268.366 60.5467 266.113 56.6828C263.859 52.8189 259.837 50.3906 255.981 48.126C244.01 41.0926 232.038 34.0598 220.066 27.0277C216.393 24.8721 212.64 22.6475 209.929 19.3605C207.217 16.0755 205.712 11.4584 207.207 7.46921C208.681 3.53798 212.8 1.04169 216.967 0.52073C221.131 0.00097385 225.331 1.15572 229.227 2.71987C243.825 8.58291 278.197 46.9398 287.358 53.4977C293.246 57.7096 299.43 63.0418 300.026 70.256C300.767 79.2373 291.832 86.6905 282.863 87.5618C273.895 88.4356 265.203 84.5358 257.19 80.4129C249.177 76.2899 240.999 71.7441 232.005 71.1718C223.011 70.5995 212.92 75.4076 210.788 84.164C208.934 91.7833 213.648 99.6456 219.787 104.521C224.593 108.338 230.233 110.88 235.682 113.738C237.194 114.529 238.691 115.348 240.152 116.222C243.89 118.466 247.384 121.093 250.578 124.061C253.93 127.172 256.94 130.633 259.555 134.386C261.641 137.376 263.462 140.543 264.995 143.851C265.229 144.356 265.456 144.868 265.676 145.388C265.884 145.884 266.086 146.387 266.278 146.895C268.779 153.483 269.753 160.866 266.558 167.015C263.372 173.149 256.47 176.78 249.578 177.284C245.592 177.522 241.597 176.994 237.809 175.729C235.023 174.824 232.326 173.665 229.753 172.266C217.821 165.861 208.374 155.705 199.747 145.264C191.122 134.823 183 123.83 172.761 114.968C162.522 106.103 149.691 99.401 136.148 99.5028C122.606 99.6026 108.645 107.855 104.799 120.84C99.1927 111.179 95.4017 100.166 95.9022 89.0077C96.4027 77.8498 101.664 66.5914 111.048 60.5338Z" fill="#3F3D56"/>
<path d="M163.588 96.6322C164.41 96.6322 165.076 95.966 165.076 95.1442C165.076 94.3224 164.41 93.6562 163.588 93.6562C162.766 93.6562 162.1 94.3224 162.1 95.1442C162.1 95.966 162.766 96.6322 163.588 96.6322Z" fill="#009999"/>
<path d="M107.517 98.7592C108.788 98.7592 109.817 97.7293 109.817 96.4587C109.817 95.1882 108.788 94.1582 107.517 94.1582C106.247 94.1582 105.217 95.1882 105.217 96.4587C105.217 97.7293 106.247 98.7592 107.517 98.7592Z" fill="#EAAE14"/>
<path d="M273.78 78.4032C274.25 78.4032 274.63 78.0226 274.63 77.5531C274.63 77.0837 274.25 76.7031 273.78 76.7031C273.311 76.7031 272.93 77.0837 272.93 77.5531C272.93 78.0226 273.311 78.4032 273.78 78.4032Z" fill="#EAAE14"/>
<path d="M256.583 32.7196C257.053 32.7196 257.433 32.339 257.433 31.8695C257.433 31.4001 257.053 31.0195 256.583 31.0195C256.114 31.0195 255.733 31.4001 255.733 31.8695C255.733 32.339 256.114 32.7196 256.583 32.7196Z" fill="#EAAE14"/>
<path d="M234.713 115.718C234.955 115.021 235.28 114.356 235.682 113.738C237.195 114.53 238.692 115.348 240.152 116.223C243.89 118.466 247.384 121.093 250.578 124.061C249.292 125.808 247.423 127.036 245.309 127.523C243.196 128.009 240.978 127.721 239.058 126.712C237.139 125.702 235.645 124.038 234.847 122.021C234.05 120.003 234.003 117.767 234.713 115.718L234.713 115.718Z" fill="#EAAE14"/>
<path d="M126.316 88.0551C126.796 88.0551 127.185 87.6659 127.185 87.1857C127.185 86.7056 126.796 86.3164 126.316 86.3164C125.836 86.3164 125.447 86.7056 125.447 87.1857C125.447 87.6659 125.836 88.0551 126.316 88.0551Z" fill="#F0F0F0"/>
<path d="M232.816 23.7348C233.296 23.7348 233.685 23.3456 233.685 22.8654C233.685 22.3853 233.296 21.9961 232.816 21.9961C232.336 21.9961 231.947 22.3853 231.947 22.8654C231.947 23.3456 232.336 23.7348 232.816 23.7348Z" fill="#F0F0F0"/>
<path d="M224.989 8.25039C225.469 8.25039 225.858 7.86117 225.858 7.38105C225.858 6.90093 225.469 6.51172 224.989 6.51172C224.509 6.51172 224.12 6.90093 224.12 7.38105C224.12 7.86117 224.509 8.25039 224.989 8.25039Z" fill="#F0F0F0"/>
<path d="M286.541 65.9711C287.021 65.9711 287.41 65.5819 287.41 65.1018C287.41 64.6216 287.021 64.2324 286.541 64.2324C286.061 64.2324 285.672 64.6216 285.672 65.1018C285.672 65.5819 286.061 65.9711 286.541 65.9711Z" fill="#F0F0F0"/>
<path d="M240.88 67.2211C241.36 67.2211 241.749 66.8319 241.749 66.3518C241.749 65.8716 241.36 65.4824 240.88 65.4824C240.4 65.4824 240.011 65.8716 240.011 66.3518C240.011 66.8319 240.4 67.2211 240.88 67.2211Z" fill="#F0F0F0"/>
<path d="M216.65 150.139C217.13 150.139 217.519 149.75 217.519 149.27C217.519 148.79 217.13 148.4 216.65 148.4C216.17 148.4 215.781 148.79 215.781 149.27C215.781 149.75 216.17 150.139 216.65 150.139Z" fill="#F0F0F0"/>
<path d="M189.334 68.5902C189.814 68.5902 190.203 68.201 190.203 67.7209C190.203 67.2408 189.814 66.8516 189.334 66.8516C188.854 66.8516 188.465 67.2408 188.465 67.7209C188.465 68.201 188.854 68.5902 189.334 68.5902Z" fill="#F0F0F0"/>
<path d="M188.114 52.1527C188.594 52.1527 188.983 51.7635 188.983 51.2834C188.983 50.8033 188.594 50.4141 188.114 50.4141C187.634 50.4141 187.245 50.8033 187.245 51.2834C187.245 51.7635 187.634 52.1527 188.114 52.1527Z" fill="#F0F0F0"/>
<path d="M235.766 152.968C237.199 148.819 239.598 145.071 242.764 142.031C243.182 141.631 243.612 141.244 244.054 140.871C248.432 137.168 253.844 134.903 259.555 134.387C261.641 137.377 263.462 140.544 264.995 143.852C265.229 144.357 265.456 144.869 265.676 145.389C265.884 145.885 266.086 146.388 266.278 146.896C268.779 153.484 269.753 160.867 266.558 167.016C263.372 173.15 256.47 176.781 249.578 177.285C245.592 177.523 241.597 176.995 237.809 175.73C235.757 172.09 234.551 168.036 234.28 163.866C234.246 163.342 234.229 162.816 234.224 162.289C234.202 159.116 234.723 155.964 235.766 152.968Z" fill="#009999"/>
<path d="M224.261 147.459C225.657 143.436 230.88 141.068 238.971 140.788C240.59 140.731 242.371 141.404 244.054 140.87C252.22 138.281 259.628 139.973 265.676 145.388C265.884 145.885 266.086 146.388 266.278 146.896C266.197 146.866 266.116 146.837 266.035 146.809C257.864 143.973 249.752 142.318 242.764 142.031C241.473 141.979 239.933 141.231 239.013 142.014C231.627 148.301 226.631 145.667 225.42 147.862C223.651 151.068 226.789 156.063 232.469 160.874C233.03 161.35 233.616 161.821 234.224 162.288C234.229 162.816 234.246 163.341 234.28 163.866C233.364 163.188 232.496 162.503 231.676 161.811C225.498 156.578 222.865 151.481 224.261 147.459Z" fill="#E4E4E4"/>
<path d="M254.866 175.955C255.346 175.955 255.735 175.566 255.735 175.086C255.735 174.606 255.346 174.217 254.866 174.217C254.386 174.217 253.997 174.606 253.997 175.086C253.997 175.566 254.386 175.955 254.866 175.955Z" fill="#F0F0F0"/>
<path d="M239.487 164.774C239.967 164.774 240.356 164.385 240.356 163.904C240.356 163.424 239.967 163.035 239.487 163.035C239.007 163.035 238.617 163.424 238.617 163.904C238.617 164.385 239.007 164.774 239.487 164.774Z" fill="#F0F0F0"/>
<path d="M251.253 167.136C255.922 167.136 259.706 163.351 259.706 158.682C259.706 154.013 255.922 150.229 251.253 150.229C246.585 150.229 242.8 154.013 242.8 158.682C242.8 163.351 246.585 167.136 251.253 167.136Z" fill="#F0F0F0"/>
<path opacity="0.3" d="M118.442 65.2246C120.418 65.3175 124.505 66.2988 128.934 67.5676C133.36 68.8376 138.161 70.387 142.901 71.9196C151.197 74.6002 159.494 77.2799 167.79 79.9588C168.931 80.3266 170.075 80.6975 171.221 81.0718C171.66 81.6462 172.097 82.2264 172.526 82.8123C171.518 82.4559 170.506 82.1111 169.497 81.7825C165.185 80.3814 161.444 79.4573 157.26 78.1825C150.821 76.2224 144.027 73.6482 137.439 71.251C130.851 68.852 123.293 66.2697 118.442 65.2246Z" fill="#F0F0F0"/>
<path opacity="0.3" d="M265.966 48.2056L284.628 79.1878L267.019 47.5894C266.998 47.4891 266.954 47.3951 266.89 47.3152C266.826 47.2353 266.744 47.1719 266.65 47.1301C266.557 47.0884 266.454 47.0696 266.352 47.0752C266.25 47.0808 266.151 47.1107 266.062 47.1625C265.974 47.2142 265.899 47.2863 265.844 47.3727C265.789 47.4591 265.756 47.5574 265.746 47.6593C265.737 47.7613 265.752 47.8641 265.79 47.9591C265.828 48.0541 265.889 48.1386 265.966 48.2056Z" fill="#F0F0F0"/>
<path d="M256.864 139.641C257.344 139.641 257.734 139.252 257.734 138.772C257.734 138.292 257.344 137.902 256.864 137.902C256.384 137.902 255.995 138.292 255.995 138.772C255.995 139.252 256.384 139.641 256.864 139.641Z" fill="#F0F0F0"/>
<path d="M104.396 136.771C107.474 136.771 109.969 134.276 109.969 131.198C109.969 128.12 107.474 125.625 104.396 125.625C101.318 125.625 98.8232 128.12 98.8232 131.198C98.8232 134.276 101.318 136.771 104.396 136.771Z" fill="#009999"/>
<path d="M101.094 128.14C100.533 127.986 100.011 127.711 99.5672 127.334C99.1231 126.957 98.7671 126.487 98.5242 125.958C98.2813 125.428 98.1575 124.852 98.1614 124.269C98.1654 123.687 98.297 123.112 98.547 122.586L88.4565 112.651L95.6529 111.115L104.132 120.785C104.988 121.264 105.639 122.04 105.961 122.966C106.283 123.893 106.254 124.905 105.88 125.812C105.505 126.718 104.811 127.456 103.929 127.885C103.047 128.314 102.039 128.405 101.095 128.14L101.094 128.14Z" fill="#A0616A"/>
<path d="M52.8483 50.8203L58.4757 54.5297L65.0626 56.0728C65.0626 56.0728 70.2867 93.4124 72.8538 95.6521C75.4209 97.8918 73.2578 98.1042 73.9535 101.194C74.6491 104.283 76.259 110.603 76.259 110.603C60.6218 120.297 46.652 121.481 34.7333 112.197C34.5473 111.585 34.5758 110.928 34.8144 110.334C35.0529 109.741 35.487 109.247 36.0448 108.934C38.06 107.682 33.6889 102.778 35.3386 101.795C36.9883 100.813 34.0731 93.4659 34.0731 93.4659L34.5818 77.6873L33.1655 75.2672L35.1606 59.7319L40.3037 57.4461L42.0647 52.2258L52.8483 50.8203Z" fill="#009999"/>
<path d="M55.2866 52.1289L64.5656 55.2191C64.5656 55.2191 74.8299 54.1352 75.2459 69.4161C75.6618 84.697 73.7489 92.8971 73.7489 92.8971C73.7489 92.8971 95.1004 135.838 71.9718 123.155L65.213 96.54L58.2471 54.7413L55.2866 52.1289Z" fill="#2F2E41"/>
<path d="M64.5923 85.9132L69.4053 85.2484C69.4053 85.2484 69.87 92.5054 72.1722 93.6052C74.4744 94.705 73.6983 94.886 73.9698 96.0503C74.2413 97.2146 71.9226 100.44 73.7463 101.243C75.57 102.045 91.5092 122.142 91.5092 122.142L100.913 113.434C100.267 111.683 97.1568 113.108 96.9618 111.251C96.7164 108.444 91.7938 100.775 90.7462 99.7922C89.6987 98.8089 90.1128 97.0756 89.5698 94.7471C89.0269 92.4186 89.4038 94.5777 88.4989 90.6968C87.594 86.816 75.3305 67.0413 74.9041 63.4581C74.4778 59.8748 69.4852 57.7656 69.4852 57.7656L65.6047 58.6706L64.5923 85.9132Z" fill="#2F2E41"/>
<path d="M23.9551 214.961L29.6197 216.448L38.0529 195.305L29.6925 193.109L23.9551 214.961Z" fill="#A0616A"/>
<path d="M22.2036 220.818L39.6232 225.393L39.681 225.173C40.1532 223.374 39.8917 221.462 38.9541 219.857C38.0166 218.251 36.4797 217.084 34.6816 216.611L34.6812 216.611L32.1333 213.361L25.5625 214.217L24.0419 213.817L22.2036 220.818Z" fill="#2F2E41"/>
<path d="M52.9946 219.198L58.8508 219.198L61.6371 196.605L52.9932 196.606L52.9946 219.198Z" fill="#A0616A"/>
<path d="M52.7879 225.309L70.798 225.309V225.081C70.7979 223.221 70.0593 221.438 68.7447 220.124C67.4301 218.809 65.6471 218.07 63.788 218.07H63.7875L60.4978 215.574L54.3598 218.071L52.7876 218.071L52.7879 225.309Z" fill="#2F2E41"/>
<path d="M38.3457 111.085C36.931 112.853 37.6384 118.867 37.6384 118.867C37.6384 118.867 35.1625 138.321 36.2236 140.09C37.2847 141.859 35.5162 143.274 34.4551 145.75C33.394 148.226 32.333 154.239 32.333 154.239C26.3202 159.191 26.6739 181.829 26.6739 181.829L24.5518 201.991C25.2591 204.114 35.1625 204.467 36.5773 204.114C37.9921 203.76 51.7861 153.885 51.7861 153.885C51.7861 153.885 51.0787 201.991 51.0787 204.114C51.0787 206.236 60.6284 205.175 62.7506 205.175C64.8727 205.175 78.313 118.513 78.313 118.513V113.561L76.5446 111.085C76.5446 111.085 39.7605 109.316 38.3457 111.085Z" fill="#2F2E41"/>
<path d="M41.7033 53.1738L33.0175 58.7082L28.8164 62.2302L34.3891 97.7591C34.3891 97.7591 25.9225 130.054 39.2652 128.063C52.6079 126.072 51.8599 97.049 51.8599 97.049L41.7033 53.1738Z" fill="#2F2E41"/>
<path d="M53.3252 103.644C52.8239 103.941 52.2637 104.124 51.684 104.181C51.1043 104.238 50.5191 104.167 49.9697 103.974C49.4203 103.78 48.9201 103.468 48.5043 103.06C48.0884 102.652 47.7671 102.158 47.5629 101.612L33.407 101.954L37.3084 95.7148L50.153 96.3467C51.0922 96.0644 52.1024 96.1364 52.9921 96.5492C53.8818 96.962 54.5891 97.6868 54.9802 98.5863C55.3712 99.4859 55.4187 100.498 55.1136 101.43C54.8086 102.362 54.1723 103.15 53.3252 103.644Z" fill="#A0616A"/>
<path d="M46.2629 48.3695C52.4412 48.3695 57.4497 43.3606 57.4497 37.1818C57.4497 31.003 52.4412 25.9941 46.2629 25.9941C40.0847 25.9941 35.0762 31.003 35.0762 37.1818C35.0762 43.3606 40.0847 48.3695 46.2629 48.3695Z" fill="#A0616A"/>
<path d="M33.5739 29.8324C34.83 27.8889 37.1873 26.5936 39.4725 26.9576C39.6852 25.4991 40.2939 24.1269 41.2324 22.9904C42.1708 21.854 43.4031 20.9968 44.795 20.5122C46.1868 20.0277 47.685 19.9343 49.1262 20.2423C50.5675 20.5503 51.8966 21.2478 52.969 22.2589C53.3216 22.0106 53.7324 21.8576 54.1615 21.8146C54.5906 21.7717 55.0236 21.8402 55.4185 22.0137C56.205 22.3714 56.8892 22.9206 57.4085 23.6112C58.7198 25.2466 59.5631 27.207 59.8487 29.2836C60.1343 31.3603 59.8515 33.4756 59.0304 35.4043C59.3097 34.3889 58.2922 33.4337 57.2642 33.2058C56.2362 32.978 55.1578 33.1935 54.1153 33.0452C52.7792 32.855 51.5781 32.0798 50.2399 31.9054C49.1152 31.7588 47.9841 32.0472 46.8873 32.3362C45.7906 32.6253 44.6624 32.92 43.5361 32.7863C42.4098 32.6525 40.9589 36.9214 40.9784 39.9281C40.9821 40.4979 40.8647 41.2295 40.3079 41.3504C39.6222 41.4993 39.2249 40.5528 38.5722 40.2949C38.2714 40.2087 37.9489 40.2426 37.6727 40.3895C37.3964 40.5365 37.1879 40.7849 37.0912 41.0825C37.009 41.3851 37.0002 41.7029 37.0655 42.0095C37.1309 42.3162 37.2686 42.6028 37.4671 42.8455C37.8682 43.3266 38.3445 43.7398 38.8774 44.069L38.6086 44.2926C38.1615 44.8833 37.2341 44.9089 36.5896 44.5434C35.9734 44.126 35.4743 43.5577 35.14 42.8927C33.9477 40.9095 32.9018 38.7964 32.4811 36.5208C32.0603 34.2453 32.3178 31.7759 33.5739 29.8324Z" fill="#2F2E41"/>
<path d="M37.5237 63.2751L32.4967 58.9668C32.4967 58.9668 26.6272 60.7984 25.632 64.6492C17.7984 74.6664 13.5796 86.3656 12.4465 99.5006C22.6737 103.364 35.1967 104.734 48.669 105.074L45.8827 94.6241L26.7266 91.1409L37.5237 63.2751Z" fill="#2F2E41"/>
<path d="M19.7123 220.382L17.027 216.067L16.4906 218.533C16.3966 218.965 16.3025 219.404 16.2155 219.839C15.4527 219.188 14.6412 218.585 13.8471 218.007C11.4091 216.237 8.97216 214.465 6.53638 212.691L7.29912 217.115C7.76935 219.839 8.26049 222.619 9.42374 225.109C9.55265 225.391 9.69193 225.67 9.84176 225.942H21.1752C21.2664 225.689 21.3295 225.428 21.3633 225.161C21.3661 225.144 21.3673 225.127 21.3667 225.109C21.5444 223.42 20.6109 221.828 19.7123 220.382Z" fill="#009999"/>
<path d="M119.871 215.425L124.951 207.26L125.966 211.926C126.144 212.743 126.322 213.573 126.487 214.397C127.93 213.165 129.465 212.025 130.967 210.931C135.58 207.583 140.19 204.231 144.798 200.875L143.355 209.244C142.465 214.397 141.536 219.656 139.336 224.367C139.092 224.901 138.828 225.428 138.545 225.942H117.103C116.931 225.465 116.812 224.97 116.748 224.466C116.742 224.434 116.74 224.4 116.741 224.367C116.405 221.171 118.171 218.16 119.871 215.425Z" fill="#009999"/>
<path d="M115.886 226.117H92.558C91.495 226.116 90.4759 225.693 89.7242 224.941C88.9726 224.19 88.5498 223.17 88.5486 222.107V140.26C88.5498 139.197 88.9726 138.177 89.7242 137.426C90.4759 136.674 91.495 136.251 92.558 136.25H115.886C116.949 136.251 117.968 136.674 118.719 137.426C119.471 138.177 119.894 139.197 119.895 140.26V222.107C119.894 223.17 119.471 224.19 118.719 224.941C117.968 225.693 116.949 226.116 115.886 226.117Z" fill="#F2F2F2"/>
<path d="M110.377 138.34H98.4147C98.0151 138.34 97.6321 138.181 97.3496 137.898C97.0671 137.616 96.9082 137.232 96.9077 136.833V132.533C96.9082 132.133 97.0671 131.75 97.3496 131.467C97.6321 131.185 98.0151 131.026 98.4147 131.025H110.377C110.777 131.026 111.16 131.185 111.442 131.467C111.725 131.75 111.884 132.133 111.884 132.533V136.833C111.884 137.232 111.725 137.616 111.442 137.898C111.16 138.181 110.777 138.34 110.377 138.34Z" fill="#3F3D56"/>
<path d="M144.59 226.238L0.483576 226.345C0.373797 226.344 0.268626 226.301 0.191112 226.223C0.113599 226.145 0.0700684 226.04 0.0700684 225.93C0.0700684 225.82 0.113599 225.715 0.191112 225.637C0.268626 225.559 0.373797 225.516 0.483576 225.515L144.59 225.408C144.7 225.409 144.805 225.452 144.882 225.53C144.96 225.608 145.003 225.713 145.003 225.823C145.003 225.933 144.96 226.038 144.882 226.116C144.805 226.194 144.7 226.237 144.59 226.238Z" fill="#CACACA"/>
</g>
<defs>
<clipPath id="clip0_5822_13905">
<rect width="300" height="225.949" fill="white" transform="translate(0.0688477 0.394531)"/>
</clipPath>
</defs>
</svg>
