<svg width="226" height="200" viewBox="0 0 226 200" fill="none" xmlns="http://www.w3.org/2000/svg">
<path d="M215.847 199.734L215.546 199.621C215.48 199.596 208.907 197.073 205.829 191.35C202.75 185.628 204.257 178.738 204.273 178.669L204.344 178.355L204.644 178.468C204.71 178.493 211.283 181.017 214.362 186.739C217.441 192.462 215.933 199.352 215.917 199.42L215.847 199.734ZM206.322 191.084C208.925 195.922 214.119 198.402 215.435 198.969C215.685 197.555 216.469 191.839 213.869 187.006C211.268 182.173 206.072 179.689 204.756 179.121C204.505 180.535 203.721 186.251 206.322 191.084Z" fill="#3F3D56"/>
<path d="M20.0385 199.734L19.738 199.621C19.6719 199.596 13.0993 197.073 10.0205 191.35C6.94145 185.628 8.4491 178.738 8.46469 178.669L8.53565 178.355L8.83603 178.468C8.90207 178.493 15.4745 181.017 18.5535 186.739C21.6325 192.462 20.1249 199.352 20.1093 199.42L20.0385 199.734ZM10.5135 191.084C13.1166 195.922 18.3104 198.402 19.6264 198.969C19.8766 197.555 20.6613 191.839 18.0605 187.006C15.46 182.173 10.2641 179.689 8.9476 179.121C8.69726 180.535 7.91287 186.251 10.5135 191.084Z" fill="#3F3D56"/>
<path d="M208.182 189.343C213.715 192.679 215.846 199.306 215.846 199.306C215.846 199.306 209.006 200.523 203.473 197.187C197.94 193.851 195.809 187.225 195.809 187.225C195.809 187.225 202.649 186.007 208.182 189.343Z" fill="#009999"/>
<path d="M12.3732 189.343C17.9063 192.679 20.0373 199.306 20.0373 199.306C20.0373 199.306 13.1973 200.523 7.66416 197.187C2.13101 193.851 0 187.225 0 187.225C0 187.225 6.84003 186.007 12.3732 189.343Z" fill="#009999"/>
<path d="M119.102 107.186C119.37 106.77 119.723 106.416 120.137 106.146C120.551 105.877 121.018 105.698 121.506 105.622C121.994 105.546 122.492 105.574 122.969 105.704C123.445 105.834 123.889 106.064 124.271 106.378C124.391 106.478 124.504 106.587 124.61 106.702L138.389 104.692L139.156 94.3077C139.215 93.5111 139.587 92.7704 140.191 92.2487C140.794 91.727 141.58 91.4669 142.375 91.5258C143.17 91.5846 143.909 91.9575 144.429 92.5624C144.95 93.1674 145.209 93.9548 145.151 94.7515C145.149 94.7699 145.148 94.7884 145.146 94.8068L143.803 109.378L143.796 109.41C143.622 109.971 143.271 110.459 142.797 110.804C142.323 111.149 141.751 111.331 141.166 111.324L124.958 111.044C124.895 111.14 124.827 111.233 124.755 111.322C124.441 111.705 124.051 112.016 123.608 112.237C123.166 112.458 122.683 112.582 122.189 112.603C121.696 112.623 121.203 112.538 120.745 112.355C120.286 112.171 119.871 111.892 119.528 111.537C119.458 111.465 119.392 111.391 119.329 111.315C118.862 110.738 118.589 110.029 118.548 109.287C118.507 108.546 118.701 107.81 119.102 107.186Z" fill="#FFB7B7"/>
<path d="M146.883 195.725L142.953 195.725L141.083 180.533L146.883 180.533L146.883 195.725Z" fill="#FFB7B7"/>
<path d="M147.885 199.544L135.213 199.543V199.382C135.213 198.072 135.733 196.814 136.658 195.887C137.583 194.96 138.837 194.44 140.145 194.439H140.146L147.885 194.44L147.885 199.544Z" fill="#2F2E41"/>
<path d="M174.345 192.154L170.626 193.425L163.962 179.652L169.452 177.775L174.345 192.154Z" fill="#FFB7B7"/>
<path d="M176.523 195.444L164.53 199.543L164.478 199.391C164.056 198.151 164.143 196.793 164.719 195.616C165.296 194.439 166.316 193.541 167.554 193.117L167.554 193.117L174.88 190.613L176.523 195.444Z" fill="#2F2E41"/>
<path d="M151.211 62.8935C151.211 62.8935 147.299 61.5989 144.784 66.7775C142.27 71.9562 138.358 77.6527 138.358 77.6527L140.593 78.1705C140.593 78.1705 141.152 74.5455 142.549 74.0276L141.99 78.6884C141.99 78.6884 158.755 84.126 166.299 78.1705L166.019 76.358C166.019 76.358 167.137 76.6169 167.137 78.1705L167.975 77.3937C167.975 77.3937 167.137 75.8401 164.622 73.7687C162.972 72.4091 162.405 69.8224 162.21 68.2052C162.055 66.836 161.469 65.5518 160.537 64.5389C158.866 62.7441 155.821 60.8364 151.211 62.8935Z" fill="#2F2E41"/>
<path d="M152.652 80.988C156.598 80.988 159.797 77.7824 159.797 73.828C159.797 69.8736 156.598 66.668 152.652 66.668C148.707 66.668 145.508 69.8736 145.508 73.828C145.508 77.7824 148.707 80.988 152.652 80.988Z" fill="#FFB7B7"/>
<path d="M143.126 86.8832L141.827 86.4492C141.827 86.4492 139.229 87.5341 139.229 89.4868C139.229 91.4395 138.796 99.2505 138.796 99.2505L144.642 99.9014L143.126 86.8832Z" fill="#CBCBCB"/>
<path d="M166.376 129.561C165.837 128.956 165.533 128.177 165.519 127.367C165.505 126.556 165.782 125.767 166.299 125.143L162.652 94.5371C162.617 93.8154 162.868 93.1089 163.352 92.5728C163.835 92.0366 164.511 91.7146 165.231 91.6774C165.951 91.6403 166.657 91.8909 167.193 92.3744C167.728 92.8579 168.051 93.5347 168.09 94.2563C168.09 94.2663 168.09 94.2763 168.091 94.2863L171.353 124.925C171.471 125.044 171.58 125.172 171.679 125.308C171.941 125.67 172.129 126.081 172.232 126.516C172.335 126.952 172.352 127.403 172.281 127.845C172.21 128.287 172.053 128.71 171.819 129.091C171.585 129.472 171.278 129.804 170.916 130.066C170.879 130.093 170.841 130.119 170.802 130.145C170.383 130.423 169.908 130.604 169.411 130.676C168.914 130.748 168.407 130.709 167.927 130.562C167.327 130.38 166.79 130.033 166.376 129.561Z" fill="#FFB7B7"/>
<path d="M163.037 99.251L168.882 98.6001C168.882 98.6001 168.449 90.7891 168.449 88.8364C168.449 86.8837 165.851 85.7988 165.851 85.7988L164.552 86.2328L163.037 99.251Z" fill="#CBCBCB"/>
<path d="M143.993 110.088C143.993 110.088 139.013 119.212 139.013 130.277C139.013 141.343 138.58 192.114 138.58 192.114C138.58 192.114 145.075 195.151 148.972 191.463L152.436 135.267L166.076 190.378C166.076 190.378 172.571 191.68 175.602 189.51L169.756 151.106C169.756 151.106 167.375 115.089 160.88 112.486C154.385 109.882 143.993 110.088 143.993 110.088Z" fill="#2F2E41"/>
<path d="M144.932 73.8718C147.461 72.0374 149.509 69.9245 150.863 67.4112C150.863 67.4112 155.505 72.5796 158.341 72.8381C161.178 73.0965 158.599 66.6359 158.599 66.6359L153.442 65.3438L148.542 65.8606L144.674 68.4448L144.932 73.8718Z" fill="#2F2E41"/>
<path d="M159.797 84.4965C159.797 84.4965 160.003 84.3855 147.673 84.8356L142.513 86.2599L141.827 86.4492C141.827 86.4492 142.477 99.4674 144.209 101.854C145.941 104.241 145.508 105.543 145.075 105.76C144.642 105.977 143.559 105.543 144.209 106.627C144.858 107.712 145.724 107.061 144.858 107.712C143.992 108.363 143.559 110.75 143.559 110.75L162.611 113.354C162.611 113.354 163.261 104.892 164.993 100.552C166.725 96.2129 167.158 94.4771 167.158 94.4771L165.859 85.7983L159.797 84.4965Z" fill="#CBCBCB"/>
<path d="M123.575 47.4872H122.48V17.4086C122.48 12.7916 120.65 8.36364 117.392 5.09889C114.134 1.83413 109.716 7.44251e-06 105.109 0L41.5214 0C36.9143 -1.26521e-05 32.4959 1.83409 29.2382 5.09883C25.9806 8.36358 24.1504 12.7915 24.1504 17.4086V182.422C24.1504 187.039 25.9805 191.467 29.2382 194.732C32.4959 197.996 36.9142 199.83 41.5213 199.83H105.109C107.39 199.83 109.649 199.38 111.756 198.505C113.864 197.63 115.779 196.348 117.392 194.732C119.005 193.115 120.284 191.196 121.157 189.084C122.03 186.972 122.48 184.708 122.48 182.422V68.8976H123.575L123.575 47.4872Z" fill="#3F3D56"/>
<path d="M118.782 17.5303V182.301C118.784 184.007 118.45 185.696 117.8 187.273C117.15 188.849 116.197 190.282 114.994 191.489C113.792 192.696 112.364 193.654 110.792 194.309C109.22 194.963 107.535 195.3 105.833 195.302H41.9167C38.4785 195.304 35.1802 193.938 32.7473 191.503C30.3144 189.068 28.9463 185.765 28.9439 182.319V17.5303C28.9427 15.8242 29.2768 14.1346 29.9272 12.5579C30.5775 10.9812 31.5314 9.54827 32.7344 8.34101C33.9373 7.13375 35.3658 6.17577 36.9381 5.52175C38.5105 4.86774 40.196 4.5305 41.8984 4.5293H49.6674C49.2857 5.46713 49.14 6.48465 49.2432 7.4922C49.3463 8.49976 49.6952 9.46642 50.259 10.307C50.8228 11.1476 51.5842 11.8364 52.4762 12.3125C53.3682 12.7887 54.3634 13.0377 55.374 13.0376H91.8033C92.814 13.0377 93.8091 12.7887 94.7011 12.3125C95.5931 11.8364 96.3545 11.1476 96.9183 10.307C97.4821 9.46642 97.831 8.49976 97.9341 7.4922C98.0373 6.48465 97.8916 5.46713 97.5099 4.5293H105.809C109.247 4.52621 112.545 5.89177 114.978 8.32556C117.411 10.7594 118.779 14.062 118.782 17.507V17.5303L118.782 17.5303Z" fill="white"/>
<path d="M118.783 41.9077V36.2953H110.307V5.3319C108.867 4.79909 107.344 4.52732 105.81 4.52931H104.707V36.2953H75.3055V13.0377H69.7053V36.2953H45.0645V4.52934H41.9172C41.094 4.52805 40.2726 4.60604 39.4643 4.76225V36.2953H28.9443V41.9077H39.4643V54.8892L28.9445 60.9757V67.458L39.4643 61.3715V99.9956H28.9443V105.608H39.4643V161.451H28.9443V167.063H39.4643V195.069C40.2726 195.225 41.094 195.303 41.9172 195.302H45.0645V167.063H69.7053V195.302H75.3055V167.063H104.707V195.302H105.81C107.344 195.304 108.867 195.032 110.307 194.499V167.063H118.783V161.451H110.307V137.037H118.707V131.425H110.307V105.608H118.783V99.9956H110.307V65.7602H118.783V60.1478H110.307V41.9077L118.783 41.9077ZM61.9017 41.9077L61.9016 41.9077L45.0646 51.6508L45.0645 51.6509V41.9077H61.9017ZM45.0645 58.1303L45.0646 58.1303L69.7053 43.8721V99.9956H45.0645V58.1303ZM45.0645 161.451V105.608H69.7053V161.451H45.0645ZM104.707 161.451H75.3055V137.037H104.707V161.451ZM104.707 131.425H75.3055V105.608H104.707V131.425ZM104.707 99.9956H75.3055V65.7602H104.707V99.9956ZM104.707 60.1478H75.3055V41.9077H104.707V60.1478Z" fill="#E5E5E5"/>
<path d="M123.467 60.2515C123.467 78.0744 91.2661 117.778 91.2661 117.778C91.2661 117.778 59.0649 78.0744 59.0649 60.2515C59.0649 51.6927 62.4576 43.4844 68.4964 37.4324C74.5353 31.3804 82.7258 27.9805 91.2661 27.9805C99.8064 27.9805 107.997 31.3804 114.036 37.4324C120.075 43.4844 123.467 51.6927 123.467 60.2515Z" fill="#009999"/>
<path d="M110.307 58.8496C110.307 62.6237 109.19 66.313 107.098 69.451C105.006 72.589 102.032 75.0348 98.5528 76.4791C95.0736 77.9234 91.2452 78.3013 87.5516 77.565C83.8581 76.8287 80.4654 75.0113 77.8025 72.3426C75.1396 69.674 73.3261 66.2739 72.5915 62.5723C71.8568 58.8708 72.2338 55.034 73.675 51.5472C75.1161 48.0604 77.5566 45.0802 80.6878 42.9835C83.8191 40.8867 87.5004 39.7676 91.2663 39.7676C93.7656 39.7664 96.2406 40.2586 98.5501 41.2161C100.86 42.1735 102.958 43.5775 104.726 45.3478C106.495 47.1181 107.897 49.2201 108.855 51.5337C109.812 53.8474 110.306 56.3273 110.307 58.8321V58.8496Z" fill="white"/>
<path d="M91.2658 141.07C96.0598 141.07 99.9461 137.175 99.9461 132.371C99.9461 127.567 96.0598 123.672 91.2658 123.672C86.4718 123.672 82.5854 127.567 82.5854 132.371C82.5854 137.175 86.4718 141.07 91.2658 141.07Z" fill="#009999"/>
<path d="M225.564 200.001H0.43626C0.361997 200.001 0.290775 199.971 0.238263 199.919C0.185751 199.866 0.15625 199.794 0.15625 199.72C0.15625 199.646 0.185751 199.574 0.238263 199.522C0.290775 199.469 0.361997 199.439 0.43626 199.439H225.564C225.639 199.439 225.71 199.469 225.762 199.522C225.815 199.574 225.844 199.646 225.844 199.72C225.844 199.794 225.815 199.866 225.762 199.919C225.71 199.971 225.639 200.001 225.564 200.001Z" fill="#616161"/>
</svg>
