<svg width="21" height="20" viewBox="0 0 21 20" fill="none" xmlns="http://www.w3.org/2000/svg">
<path d="M18.4154 9.99967C18.4154 11.0393 18.2106 12.0688 17.8127 13.0293C17.4149 13.9897 16.8318 14.8625 16.0966 15.5976C15.3615 16.3327 14.4888 16.9159 13.5283 17.3137C12.5678 17.7116 11.5383 17.9163 10.4987 17.9163C9.45907 17.9163 8.42961 17.7116 7.46912 17.3137C6.50863 16.9159 5.6359 16.3327 4.90077 15.5976C4.16564 14.8625 3.5825 13.9897 3.18465 13.0293C2.7868 12.0688 2.58203 11.0393 2.58203 9.99967C2.58203 7.90004 3.41611 5.88641 4.90077 4.40175C6.38543 2.91708 8.39907 2.08301 10.4987 2.08301C12.5983 2.08301 14.612 2.91708 16.0966 4.40175C17.5813 5.88641 18.4154 7.90004 18.4154 9.99967Z" stroke="#009999" stroke-width="1.25"/>
<path d="M13.6651 9.99928C13.6651 11.0387 13.5828 12.0686 13.4236 13.0288C13.2653 13.9891 13.0318 14.8615 12.7373 15.5969C12.4436 16.3323 12.0945 16.9149 11.7106 17.3131C11.3258 17.7105 10.9142 17.9155 10.4986 17.9155C10.083 17.9155 9.67133 17.7105 9.28739 17.3131C8.90266 16.9149 8.55355 16.3315 8.25986 15.5969C7.96537 14.8615 7.73184 13.9899 7.57273 13.0288C7.41042 12.0272 7.32993 11.014 7.33207 9.99928C7.33207 8.95987 7.41361 7.92997 7.57273 6.96972C7.73184 6.00948 7.96537 5.1371 8.25986 4.40168C8.55355 3.66626 8.90266 3.08362 9.2866 2.68544C9.67133 2.28883 10.083 2.08301 10.4986 2.08301C10.9142 2.08301 11.3258 2.28804 11.7098 2.68544C12.0945 3.08362 12.4436 3.66705 12.7373 4.40168C13.0318 5.1371 13.2653 6.00869 13.4236 6.96972C13.5828 7.92997 13.6651 8.95987 13.6651 9.99928Z" stroke="#009999" stroke-width="1.25"/>
<path d="M2.58203 10H18.4146" stroke="#009999" stroke-width="1.25" stroke-linecap="round"/>
</svg>
