<svg width="20" height="20" viewBox="0 0 20 20" fill="none" xmlns="http://www.w3.org/2000/svg">
<path d="M6.01167 13.325C5.64591 13.325 5.33269 13.1946 5.07201 12.9339C4.81132 12.6732 4.6812 12.3602 4.68164 11.9949V6.67481H6.01167V11.9949H8.00671V6.67481H9.33674V11.9949C9.33674 12.3607 9.2064 12.6739 8.94571 12.9346C8.68503 13.1953 8.37203 13.3254 8.00671 13.325H6.01167ZM11.9968 13.325C11.631 13.325 11.3178 13.1946 11.0571 12.9339C10.7965 12.6732 10.6663 12.3602 10.6668 11.9949V11.3299H11.9968V11.9949H13.9918V10.6649H11.9968C11.631 10.6649 11.3178 10.5346 11.0571 10.2739C10.7965 10.0132 10.6663 9.70018 10.6668 9.33486V8.00483C10.6668 7.63908 10.7971 7.32585 11.0578 7.06517C11.3185 6.80448 11.6315 6.67436 11.9968 6.67481H13.9918C14.3576 6.67481 14.6708 6.80515 14.9315 7.06583C15.1922 7.32652 15.3223 7.63952 15.3219 8.00483V8.66985H13.9918V8.00483H11.9968V9.33486H13.9918C14.3576 9.33486 14.6708 9.46521 14.9315 9.72589C15.1922 9.98658 15.3223 10.2996 15.3219 10.6649V11.9949C15.3219 12.3607 15.1915 12.6739 14.9308 12.9346C14.6702 13.1953 14.3572 13.3254 13.9918 13.325H11.9968Z" fill="#009999"/>
<path d="M17.9154 9.99967C17.9154 11.0393 17.7106 12.0688 17.3127 13.0293C16.9149 13.9897 16.3318 14.8625 15.5966 15.5976C14.8615 16.3327 13.9888 16.9159 13.0283 17.3137C12.0678 17.7116 11.0383 17.9163 9.9987 17.9163C8.95907 17.9163 7.92961 17.7116 6.96912 17.3137C6.00863 16.9159 5.1359 16.3327 4.40077 15.5976C3.66564 14.8625 3.0825 13.9897 2.68465 13.0293C2.2868 12.0688 2.08203 11.0393 2.08203 9.99967C2.08203 7.90004 2.91611 5.88641 4.40077 4.40175C5.88543 2.91708 7.89907 2.08301 9.9987 2.08301C12.0983 2.08301 14.112 2.91708 15.5966 4.40175C17.0813 5.88641 17.9154 7.90004 17.9154 9.99967Z" stroke="#009999" stroke-width="1.25"/>
</svg>
