<svg width="36" height="16" viewBox="0 0 36 16" fill="none" xmlns="http://www.w3.org/2000/svg">
<rect width="36" height="16" rx="8" fill="#009999" fill-opacity="0.2"/>
<path d="M6.11186 12V4.72727H8.89595C9.42152 4.72727 9.85831 4.81013 10.2063 4.97585C10.5567 5.1392 10.8183 5.36293 10.9911 5.64702C11.1663 5.93111 11.2539 6.25308 11.2539 6.61293C11.2539 6.90885 11.1971 7.16217 11.0835 7.37287C10.9698 7.5812 10.8171 7.75047 10.6254 7.88068C10.4336 8.01089 10.2193 8.1044 9.9826 8.16122V8.23224C10.2406 8.24645 10.488 8.32576 10.7248 8.47017C10.9639 8.61222 11.1592 8.81345 11.3107 9.07386C11.4622 9.33428 11.538 9.64915 11.538 10.0185C11.538 10.3949 11.4469 10.7334 11.2646 11.0341C11.0823 11.3324 10.8076 11.5679 10.4407 11.7408C10.0737 11.9136 9.6121 12 9.05575 12H6.11186ZM7.42933 10.8991H8.84624C9.32446 10.8991 9.66892 10.808 9.87962 10.6257C10.0927 10.4411 10.1992 10.2043 10.1992 9.91548C10.1992 9.70005 10.146 9.50592 10.0394 9.3331C9.93288 9.15791 9.78137 9.0206 9.58487 8.92116C9.38838 8.81937 9.154 8.76847 8.88175 8.76847H7.42933V10.8991ZM7.42933 7.82031H8.7326C8.95987 7.82031 9.16465 7.77888 9.34695 7.69602C9.52924 7.6108 9.67247 7.49124 9.77663 7.33736C9.88317 7.18111 9.93643 6.99645 9.93643 6.78338C9.93643 6.50166 9.837 6.26965 9.63814 6.08736C9.44164 5.90507 9.14927 5.81392 8.76101 5.81392H7.42933V7.82031ZM12.6841 12V4.72727H17.4142V5.83168H14.0016V7.80611H17.1692V8.91051H14.0016V10.8956H17.4426V12H12.6841ZM18.4387 5.83168V4.72727H24.2413V5.83168H21.9934V12H20.6866V5.83168H18.4387ZM25.415 12H24.0087L26.5691 4.72727H28.1955L30.7594 12H29.3532L27.4107 6.21875H27.3539L25.415 12ZM25.4611 9.14844H29.2963V10.2067H25.4611V9.14844Z" fill="#009999"/>
</svg>
