<svg width="47" height="16" viewBox="0 0 47 16" fill="none" xmlns="http://www.w3.org/2000/svg">
<rect x="0.5" y="0.569824" width="46" height="14" rx="7" fill="#009999" fill-opacity="0.1" stroke="#009999"/>
<path d="M6.97727 4.16784V2.84255H13.9403V4.16784H11.2429V11.5698H9.67472V4.16784H6.97727ZM15.2827 11.5698V2.84255H18.5554C19.2259 2.84255 19.7884 2.95903 20.2429 3.19198C20.7003 3.42494 21.0455 3.75164 21.2784 4.1721C21.5142 4.58971 21.6321 5.07693 21.6321 5.63374C21.6321 6.1934 21.5128 6.6792 21.2741 7.09113C21.0384 7.50022 20.6903 7.81698 20.2301 8.04142C19.7699 8.26301 19.2045 8.3738 18.5341 8.3738H16.2031V7.0613H18.321C18.7131 7.0613 19.0341 7.00732 19.2841 6.89937C19.5341 6.78857 19.7188 6.62806 19.8381 6.41784C19.9602 6.20477 20.0213 5.9434 20.0213 5.63374C20.0213 5.32409 19.9602 5.05988 19.8381 4.84113C19.7159 4.61954 19.5298 4.45193 19.2798 4.33829C19.0298 4.22181 18.7074 4.16357 18.3125 4.16357H16.8636V11.5698H15.2827ZM19.7912 7.61528L21.9517 11.5698H20.1875L18.0653 7.61528H19.7912ZM24.6683 2.84255V11.5698H23.0874V2.84255H24.6683ZM27.5011 11.5698H25.8136L28.886 2.84255H30.8377L33.9144 11.5698H32.2269L29.896 4.63232H29.8278L27.5011 11.5698ZM27.5565 8.14795H32.1587V9.41784H27.5565V8.14795ZM35.0639 11.5698V2.84255H36.6449V10.2445H40.4886V11.5698H35.0639Z" fill="#009999"/>
</svg>
