<svg width="15" height="15" viewBox="0 0 15 15" fill="none" xmlns="http://www.w3.org/2000/svg">
<rect x="0.3125" y="0.3125" width="14.375" height="14.375" rx="2.8125" fill="#810000" fill-opacity="0.2"/>
<rect x="0.3125" y="0.3125" width="14.375" height="14.375" rx="2.8125" stroke="white" stroke-width="0.625"/>
<path d="M8.04941 7.50032L10.8131 4.30094C10.8594 4.24777 10.8205 4.16699 10.7489 4.16699H9.9087C9.85922 4.16699 9.81184 4.18846 9.77921 4.22527L7.49984 6.86433L5.22047 4.22527C5.18888 4.18846 5.14151 4.16699 5.09097 4.16699H4.25081C4.17922 4.16699 4.14027 4.24777 4.18659 4.30094L6.95026 7.50032L4.18659 10.6997C4.17621 10.7116 4.16956 10.7261 4.16741 10.7415C4.16526 10.7569 4.16772 10.7726 4.17448 10.7867C4.18124 10.8008 4.19203 10.8127 4.20556 10.821C4.21909 10.8294 4.2348 10.8337 4.25081 10.8337H5.09097C5.14045 10.8337 5.18783 10.8122 5.22047 10.7754L7.49984 8.13632L9.77921 10.7754C9.81079 10.8122 9.85817 10.8337 9.9087 10.8337H10.7489C10.8205 10.8337 10.8594 10.7529 10.8131 10.6997L8.04941 7.50032Z" fill="#810000"/>
</svg>
